<svg xmlns="http://www.w3.org/2000/svg" viewBox="0 0 488 90" xml:space="preserve">
  <g transform="matrix(1.21017 0 0 1.21017 -4.37 -14.7)" fill="#1d1d1b">
    <path d="M44 46.07V46a5.74 5.74 0 0 0-3.52-2.72h-.14c-.81-.25-1.65-.4-2.5-.47-2.3-.3-4.49-1.12-6.43-2.38a.75.75 0 0 0-.84 1.24c.64.41 1.31.78 2 1.11 0 .1-.09.2-.12.31a6.1 6.1 0 0 0 5.93 7.76 5.9 5.9 0 0 0 4.69-2.28c.09 1 .03 2.01-.18 3-.16.38.03.82.41.98l.06.02h.24c.32 0 .6-.2.71-.51.32-1.34.4-2.73.23-4.1a4.94 4.94 0 0 0-.54-1.89zm-4.47-1.49c.04.17.04.35 0 .52a1.31 1.31 0 1 1-2.53-.71l.09-.17.6.07c.63.05 1.25.15 1.86.3l-.02-.01zm.94 4.25a4.67 4.67 0 0 1-3.48.32 4.59 4.59 0 0 1-3.14-5.67v-.12c.56.21 1.12.4 1.7.55v.06A2.8 2.8 0 1 0 41 45.14c.6.3 1.11.76 1.48 1.32a4.27 4.27 0 0 1-1.99 2.37h-.02zm27.1-5.76c0-.11-.08-.2-.12-.31.69-.33 1.36-.7 2-1.11a.75.75 0 0 0-.84-1.24 15.61 15.61 0 0 1-6.43 2.38c-.86.06-1.7.22-2.52.47h-.12A5.74 5.74 0 0 0 56 46v.05c-.31.6-.5 1.27-.54 1.95-.17 1.37-.1 2.76.23 4.1.1.3.39.51.71.51a.75.75 0 0 0 .72-1c-.21-.98-.27-2-.19-3a5.9 5.9 0 0 0 4.69 2.28 6.09 6.09 0 0 0 5.96-7.78l-.01-.04zm-5.3 1.22.6-.07.09.17c.2.69-.2 1.4-.89 1.6a1.27 1.27 0 0 1-1.63-1.41c.6-.15 1.22-.25 1.84-.29h-.01zm.73 4.86c-1.16.35-2.4.23-3.48-.32a4.27 4.27 0 0 1-2-2.38c.37-.56.88-1 1.48-1.31a2.8 2.8 0 0 0 2.76 2.37A2.8 2.8 0 0 0 64.41 44v-.06c.58-.15 1.14-.34 1.7-.55v.12A4.59 4.59 0 0 1 63 49.15z"/>
    <path d="M46.33 44.89c-.16-2.25-2-3.68-5.15-3.92-1.66-.22-3.26-.8-4.68-1.69a.75.75 0 0 0-.83 1.25 12.92 12.92 0 0 0 5.4 1.93c1.35.1 3.63.57 3.77 2.53.03.4.35.7.75.7h.05a.75.75 0 0 0 .69-.8zm12.98-2.43c1.92-.23 3.77-.89 5.4-1.93a.75.75 0 0 0-.83-1.25c-1.42.9-3.02 1.5-4.69 1.72-3.11.24-5 1.67-5.15 3.92-.03.41.28.77.7.8h.05c.4 0 .72-.3.75-.7.14-2.02 2.46-2.45 3.77-2.56zm-24.67-5.21a.75.75 0 1 0 1.16-.95l-3.19-3.92a.75.75 0 1 0-1.16.95l3.19 3.92zM38 35.08c.11.29.39.48.7.48a.75.75 0 0 0 .7-1l-1.41-3.68a.75.75 0 1 0-1.4.54L38 35.08zm4 .11c.4 0 .72-.3.75-.69l.25-3.18a.75.75 0 0 0-.69-.81.74.74 0 0 0-.8.67l-.01.02-.25 3.19c-.03.41.28.77.7.8H42z"/>
    <path d="M95.31 61c-3.9-1.24-13.08-1.13-20.54-.79 5-6.31 5-12.41 4.11-15.28-.68-2.15-1.73-7.57-.39-9.68.25-.43.69-.72 1.18-.77 1.76-.23 2.08-2.06 2.33-3.52.07-.52.19-1.04.35-1.54.3-.54.72-1 1.22-1.37a10.6 10.6 0 0 0 3.18-4.23c1.59-3.91-.54-5.84-.63-5.92a.73.73 0 0 0-.28-.13h-.14a6.16 6.16 0 0 0-4.81.73c-.68.33-1.52.73-2.76 1.25a6.88 6.88 0 0 1-8-1.32c-4.5-4.32-7.67-5.57-20.08-5.57s-15.54 1.26-20 5.57a6.88 6.88 0 0 1-8 1.32 51.8 51.8 0 0 1-2.76-1.25 6.16 6.16 0 0 0-4.81-.73h-.14c-.1.02-.2.07-.28.13-.09.08-2.22 2-.63 5.92a10.6 10.6 0 0 0 3.18 4.23c.5.36.92.83 1.22 1.37.1.52.16 1.05.17 1.58.25 1.47.56 3.29 2.33 3.52.5.05.93.34 1.18.77 1.34 2.11.29 7.53-.39 9.68-.91 2.87-.87 9 4.11 15.28-7.46-.34-16.64-.45-20.54.79a.75.75 0 1 0 .46 1.43c4.09-1.3 15-1 21.18-.66h.25l.65.69c-7.68.11-12.89.64-15.5 1.58a.75.75 0 1 0 .51 1.41c2.58-.93 8.3-1.45 16.56-1.51l1.07.88c-6.47.36-17 1.21-21 3a.75.75 0 0 0 .6 1.37c4.17-1.83 16.18-2.64 22.22-2.95l1 .72.1.07c-6.29.61-10.59 1.4-12.79 2.36a.75.75 0 0 0 .6 1.37c2.07-.91 6.45-1.69 12.72-2.28-.03 1.85.2 3.7.68 5.48 1.63 4.32 3.86 5.38 6.46 5.6.37.7.9 1.32 1.52 1.81a15.16 15.16 0 0 0-3.39 4.47.75.75 0 1 0 1.4.54c.27-.7 1.08-2 3.29-4.19.64.32 1.3.59 2 .78-.48 1.09-.8 2.24-.92 3.43-.02.41.3.77.7.79h.01c.4 0 .73-.31.75-.71.13-1.1.44-2.17.91-3.17 2.17.36 4.38.36 6.54 0 .47 1 .78 2.07.91 3.17.02.4.35.71.75.71a.75.75 0 0 0 .71-.79 11.33 11.33 0 0 0-.89-3.44c.7-.2 1.36-.45 2-.78 2.21 2.19 3 3.49 3.29 4.19a.75.75 0 1 0 1.4-.54c-.84-1.69-2-3.2-3.39-4.47a5.68 5.68 0 0 0 1.52-1.81c2.6-.22 4.83-1.27 6.45-5.59.47-1.78.69-3.61.65-5.45 6.27.59 10.66 1.37 12.72 2.28a.75.75 0 1 0 .6-1.37c-2.22-1-6.6-1.77-13-2.38l.8-.56.3-.22c6 .3 18.2 1.11 22.43 3a.75.75 0 0 0 .6-1.37c-4.06-1.78-14.61-2.62-21.07-3 .38-.29.75-.58 1.1-.88 8.29.05 14 .57 16.6 1.51a.75.75 0 0 0 .5-1.41c-2.6-.94-7.8-1.47-15.5-1.58l.66-.69h.25c6.15-.31 17.09-.64 21.18.66A.8.8 0 0 0 95.3 61zm-42 18.91a.75.75 0 0 0-1.3.75c.16.27.39.7.64 1.2-1.73.25-3.49.25-5.22 0 .35-.71.63-1.19.64-1.2a.75.75 0 0 0-1.3-.75c0 .06-.42.73-.87 1.66a7 7 0 0 1-3.58-2h2.43A6 6 0 0 0 50 76.43a6 6 0 0 0 5.29 3.13h2.43a7 7 0 0 1-3.58 2c-.45-.9-.83-1.56-.87-1.63l.04-.02zm17.1-17.26-.08.06a35.2 35.2 0 0 1-2.68 2h-.78c.13-1.71.45-3.25 1.07-3.71a.76.76 0 0 0-.94-1.2c-1 .83-1.44 2.64-1.63 4.83h-.61a.73.73 0 0 0-.77.69v.04c-.01.41.32.76.73.77h.56v.74h-.18a.76.76 0 0 0-.81.68c-.04.41.27.77.68.81h.21c.03 1.7-.16 3.4-.56 5.05-1.41 3.75-3.1 4.54-5.55 4.66h-3.78a4.54 4.54 0 0 1-4.53-4.46c.35-.33.74-.61 1.16-.84 1-.64 2.47-1.52 1.93-2.79-.19-.44-.06-.65 1.66-1.82l.63-.43a2.48 2.48 0 0 0 1.3-2 2.08 2.08 0 0 0-.95-1.6.74.74 0 0 0-1 .22c-.2.34-.1.77.21 1 .08.06.26.23.27.37s-.17.41-.66.75l-.62.43c-1.63 1.1-2.91 2-2.2 3.57-.08.25-.89.74-1.33 1-.4.23-.77.49-1.13.77-.36-.28-.74-.54-1.13-.77a7.48 7.48 0 0 1-1.33-.93c.71-1.67-.58-2.54-2.2-3.65l-.62-.43c-.48-.34-.66-.61-.66-.75s.18-.31.26-.37a.75.75 0 0 0-.81-1.26c-.55.35-.9.95-.95 1.6.06.84.55 1.6 1.3 2l.63.43c1.73 1.17 1.85 1.38 1.66 1.82-.54 1.28.89 2.15 1.93 2.79.4.23.8.49 1.16.77a4.54 4.54 0 0 1-4.54 4.52h-1.56c-3.72.09-6 .14-7.78-4.66-.4-1.65-.59-3.35-.56-5.05h.21a.75.75 0 0 0-.13-1.5h-.14v-.74h.56a.75.75 0 0 0 0-1.5h-.61c-.19-2.19-.58-4-1.63-4.83A.82.82 0 0 0 32.06 61c.62.49.91 2 1.06 3.71h-.95a40.85 40.85 0 0 1-2.63-2.14l-.76-.69 2.33.15h.06a.75.75 0 0 0 .06-1.5s-1.57-.12-4-.25c-5.44-6.19-5.58-12.2-4.72-14.92 0-.08 2.33-7.62.23-10.93a3.07 3.07 0 0 0-2.2-1.43c-.62-.08-.82-1-1-2.29a9.54 9.54 0 0 0-.44-1.84 5.36 5.36 0 0 0-1.63-1.95 9 9 0 0 1-2.78-3.67c-1-2.36-.23-3.66.1-4.08.73-.06 1.46.13 2.07.54.07.06 7.52 5.52 10.79 5.52H28c-3 2.15-4.76 4.9-4.76 7.59a.75.75 0 0 0 1.5 0c0-2.81 2.6-5.89 6.63-7.86 1.57-.23 3.08-.74 4.48-1.49a.75.75 0 0 0-.7-1.33l-.03.02a15.47 15.47 0 0 1-7.56 1.58c-1.25 0-3.64-1.21-5.86-2.55a8.3 8.3 0 0 0 9.3-1.73c4-3.82 6.49-5.15 19-5.15s15 1.34 19 5.15a8.18 8.18 0 0 0 5.77 2.45 9.77 9.77 0 0 0 3.44-.68c-2.21 1.33-4.6 2.53-5.84 2.53-2.61.12-5.21-.42-7.56-1.58a.75.75 0 0 0-.73 1.3c1.4.77 2.93 1.28 4.51 1.52 4 2 6.63 5 6.63 7.86a.75.75 0 0 0 1.5 0c0-2.7-1.77-5.45-4.76-7.6h.44c3.27 0 10.72-5.45 10.79-5.51a3.2 3.2 0 0 1 2.06-.54c.33.43 1.05 1.73.1 4.08a9 9 0 0 1-2.78 3.67 5.36 5.36 0 0 0-1.63 1.95c-.2.6-.36 1.21-.44 1.84-.23 1.33-.42 2.2-1 2.29-.93.11-1.76.65-2.25 1.45-2.11 3.3.2 10.86.23 10.93.87 2.73.72 8.74-4.72 14.92-2.39.13-4 .25-4 .25a.75.75 0 0 0 .06 1.5h.06l2.33-.15c-.21.23-.52.47-.8.71z"/>
    <path d="M64.77 37.53c.23 0 .44-.1.58-.28l3.19-3.92a.75.75 0 0 0-1.13-.98l-.03.03-3.19 3.92a.75.75 0 0 0 .58 1.22v.01zm-3.7-2.02c.09.02.18.02.27 0 .31 0 .59-.2.7-.48l1.41-3.68a.75.75 0 1 0-1.4-.54l-1.41 3.68a.75.75 0 0 0 .43 1.02zM58 35.2c.41-.03.72-.4.69-.8v-.01l-.25-3.19a.75.75 0 0 0-1.5.12l.25 3.19c.03.41.4.72.8.69H58z"/>
    <circle cx="38.13" cy="69.84" r="1.05"/>
    <circle cx="38.48" cy="73.41" r="1.05"/>
    <circle cx="41.22" cy="75.76" r="1.05"/>
    <circle cx="42.14" cy="72.11" r="1.05"/>
    <circle cx="45.06" cy="73.95" r="1.05"/>
    <circle cx="61.87" cy="69.84" r="1.05"/>
    <circle cx="61.52" cy="73.41" r="1.05"/>
    <circle cx="58.78" cy="75.76" r="1.05"/>
    <circle cx="57.86" cy="72.11" r="1.05"/>
    <circle cx="54.94" cy="73.95" r="1.05"/>
    <path d="M53.56 52.5a.75.75 0 0 0-.81.69A9.2 9.2 0 0 1 50 58.58a9.16 9.16 0 0 1-2.73-5.4.75.75 0 0 0-1.5.12 11 11 0 0 0 3.73 6.86c.13.1.3.17.47.17.17 0 .34-.06.47-.17a11 11 0 0 0 3.73-6.86.75.75 0 0 0-.61-.8zm-13.19 2.7a.75.75 0 0 0-1 .27c-.2.35-.46.72-.73 1.11-1.34 1.94-3.36 4.88-.51 8a.75.75 0 0 0 1.1-1c-1.89-2.05-.93-3.82.64-6.1.29-.43.57-.83.79-1.21a.75.75 0 0 0-.29-1.07zm20.32.27a.75.75 0 0 0-1.3.75c.22.38.5.78.79 1.21 1.57 2.28 2.53 4.05.64 6.1a.75.75 0 1 0 1.1 1c2.85-3.09.83-6-.5-8-.26-.34-.52-.71-.73-1.06zM41.89 65a.75.75 0 1 0-1.43-.46 4.13 4.13 0 0 0 1.91 4.82.75.75 0 0 0 .75-1.3A2.62 2.62 0 0 1 41.89 65zm15.73 4.33a4.13 4.13 0 0 0 1.91-4.82.75.75 0 1 0-1.43.46A2.62 2.62 0 0 1 56.87 68a.75.75 0 0 0 .75 1.3v.03zm-4.74-4.18a3.83 3.83 0 0 1-5.77 0 .77.77 0 0 0-1.16 1 5.32 5.32 0 0 0 8.08 0 .77.77 0 0 0-1.16-1h.01zM30.51 50.52a.75.75 0 1 0-.72 1.31c2.63 1.45 3.77 3.59 3.77 4.36a.75.75 0 0 0 1.5 0c0-1.55-1.7-4.1-4.55-5.67zm40.08.3a.75.75 0 0 0-1-.3C66.72 52.09 65 54.64 65 56.2a.75.75 0 0 0 1.5 0c0-.77 1.14-2.92 3.77-4.36a.75.75 0 0 0 .32-1.02z"/>
  </g>
  <path d="M134.3 56.29a11.8 11.8 0 0 1-.57-4.1c0-1.74.6-6.91 1.79-15.51 1.19-8.57 1.78-15.46 1.78-20.65 0-1.22-.08-2.9-.26-5.01 3.08.17 5.01.9 5.8 2.17.4.76.66 1.47.78 2.14.12.67.18 1.73.18 3.18 0 1.42-.66 6.84-1.96 16.25-1.34 9.41-2.02 16.12-2.05 20.13.2-.05.56-.08 1.09-.08 8.8 0 15.35-.61 19.65-1.83-.3 2.35-1.1 4.18-2.4 5.49a6.83 6.83 0 0 1-4.97 1.96c-.58 0-2.34-.13-5.27-.4-2.96-.26-5.82-.39-8.58-.39s-5.54.26-8.32.79a7 7 0 0 1 3.3-4.14zm40.13-20.22a29.72 29.72 0 0 0-2.7 6.27 21.22 21.22 0 0 0-.96 6.15c0 1.95.43 3.6 1.3 4.97a4.2 4.2 0 0 0 3.75 2.04c2.3 0 4.43-1.25 6.4-3.74 2.01-2.53 3.55-5.57 4.63-9.11a34.48 34.48 0 0 0 1.6-9.9c0-3.01-.1-5.5-.34-7.44.96-.09 1.57-.13 1.83-.13 3.46 0 5.19 1.77 5.19 5.31 0 .76-.5 3.9-1.49 9.41-.95 5.52-1.43 9.94-1.43 13.25 0 3.31.62 6.24 1.87 8.8-2.56-.52-4.41-1.65-5.58-3.4-1.16-1.7-1.74-4.2-1.74-7.45 0-.58.09-1.68.26-3.3a18.63 18.63 0 0 1-5.8 9.32c-2.78 2.38-5.5 3.57-8.14 3.57a7.85 7.85 0 0 1-6.45-3.05c-1.63-2-2.44-4.78-2.44-8.32 0-3.58.66-7.06 2-10.46 1.31-3.4 3.3-6.33 5.97-8.8 2.65-2.5 5.62-3.75 8.93-3.75 1.43 0 3 .3 4.71.87a17.08 17.08 0 0 0-6.62 3.36 20.26 20.26 0 0 0-4.75 5.53zm61.4-18.52.04.74c0 1.54-.58 6.6-1.75 15.17-1.16 8.54-1.74 15.68-1.74 21.43 0 2.56.13 4.55.4 5.97l-1.62.13c-1.83 0-3.2-.42-4.1-1.26-.87-.84-1.3-2.2-1.3-4.1 0-1.88.68-7.66 2.04-17.34 1.34-9.64 2-16.53 2-20.65 0-4.13-.27-6.83-.82-8.1 1.3.17 2.52.68 3.62 1.52a7.27 7.27 0 0 1 2.53 3.31 21.7 21.7 0 0 1 10.37-2.48c3.77 0 6.75 1.16 8.93 3.48A12.23 12.23 0 0 1 257.7 24c0 4.36-1.59 8.28-4.75 11.76-3.17 3.46-7.44 5.19-12.81 5.19-1.22 0-2.34-.07-3.36-.22l-.17-1.96c2.73 0 5.1-.4 7.14-1.22a10.77 10.77 0 0 0 4.62-3.22 14.35 14.35 0 0 0 3.1-9.15c0-2.53-.8-4.64-2.4-6.32-1.6-1.69-3.92-2.53-6.97-2.53-1.83 0-3.92.4-6.28 1.22zm35.37 18.52a28.6 28.6 0 0 0-2.74 6.27 22.2 22.2 0 0 0-.92 6.15c0 1.95.44 3.6 1.31 4.97a4.2 4.2 0 0 0 3.75 2.04c2.26 0 4.4-1.25 6.4-3.74a27.72 27.72 0 0 0 4.58-9.11 33.75 33.75 0 0 0 1.65-9.9c0-3.01-.13-5.5-.39-7.44 1-.09 1.6-.13 1.83-.13 3.46 0 5.19 1.77 5.19 5.31 0 .76-.48 3.9-1.44 9.41-.99 5.52-1.48 9.94-1.48 13.25 0 3.31.62 6.24 1.87 8.8-2.56-.52-4.41-1.65-5.58-3.4-1.16-1.7-1.74-4.2-1.74-7.45 0-.58.09-1.68.26-3.3a18.63 18.63 0 0 1-5.8 9.32c-2.75 2.38-5.47 3.57-8.14 3.57a7.85 7.85 0 0 1-6.45-3.05c-1.62-2-2.44-4.78-2.44-8.32 0-3.58.67-7.06 2-10.46 1.31-3.4 3.3-6.33 5.97-8.8 2.68-2.5 5.66-3.75 8.94-3.75 1.42 0 2.99.3 4.7.87a16.7 16.7 0 0 0-6.58 3.36c-2 1.62-3.58 3.46-4.75 5.53zm58.35-2.66c0 1.86-.4 5.16-1.18 9.9-.78 4.73-1.18 8.18-1.18 10.36 0 2.15.27 3.7.79 4.67a6.22 6.22 0 0 0 2.7 2.44c-.55.05-1.3.08-2.27.08-2.75 0-4.71-.52-5.88-1.57-1.16-1.04-1.74-2.9-1.74-5.57 0-1.52.4-4.55 1.22-9.11.81-4.59 1.22-7.96 1.22-10.1 0-2.68-.82-4.02-2.44-4.02-2.61 0-5.32 2.3-8.1 6.89-2.8 4.59-4.19 10.12-4.19 16.6 0 2.56.13 4.54.4 5.97a39.3 39.3 0 0 1-1.92.13c-3.58 0-5.36-1.76-5.36-5.27 0-.82.43-3.94 1.3-9.37.85-5.46 1.27-9.8 1.27-13.03 0-3.26-.35-6.23-1.05-8.93 2.41.93 4.1 2.25 5.06 3.96a12.09 12.09 0 0 1 1.43 5.93c0 2.2-.24 4.78-.74 7.71a28.76 28.76 0 0 1 6.32-11.59c2.85-3.17 5.52-4.75 8.02-4.75 4.21 0 6.32 2.89 6.32 8.67zm29.24-6.88c0 1.68-.32 2.86-.96 3.53-.67.64-1.63.96-2.88.96h-4.4l-1.26 7.58c-1.4 7.55-2.1 13.26-2.1 17.12 0 3.87.3 6.44.88 7.71-2.33-.87-3.98-2.16-4.97-3.87a12.93 12.93 0 0 1-1.44-6.32c0-2.5.14-4.85.44-7.06.31-2.21.75-4.8 1.3-7.76.58-3 1-5.37 1.22-7.14-2.32.31-4.6.97-6.84 1.96-.05-.67-.08-1.27-.08-1.79 0-1.95.64-3.25 1.91-3.92 1.31-.67 3.18-1 5.62-1 .3-3.02.44-5.28.44-6.76 0-1.48-.01-2.67-.04-3.57v-2c1.86.29 3.3 1.12 4.31 2.48 1.02 1.34 1.52 3.2 1.52 5.58 0 1.22-.1 2.7-.3 4.44 3.54 0 6.04-.6 7.5-1.78.08.57.13 1.11.13 1.6zm11.45 14.55a29.64 29.64 0 0 1 6.2-11.59c2.78-3.17 5.4-4.75 7.84-4.75 2.44 0 4.17.74 5.18 2.22 1.02 1.48 1.53 3.5 1.53 6.06 0 2.53-.4 6.09-1.18 10.67-.79 4.62-1.18 7.98-1.18 10.07 0 2.1.26 3.62.79 4.58.52.95 1.4 1.77 2.65 2.44-.52.05-1.26.08-2.22.08-2.61 0-4.54-.53-5.8-1.6-1.21-1.09-1.82-2.93-1.82-5.54 0-1.52.4-4.55 1.22-9.11.81-4.59 1.22-7.96 1.22-10.1 0-2.68-.95-4.02-2.83-4.02-1.1 0-2.33.58-3.66 1.75a20.28 20.28 0 0 0-3.88 4.66 29.11 29.11 0 0 0-3.1 7.54 33.2 33.2 0 0 0-1.26 8.93c0 2.96.13 5.15.4 6.58l-1.66.13c-1.92 0-3.33-.4-4.23-1.22-.93-.82-1.4-2.1-1.4-3.84 0-1.7.37-5.04 1.1-9.97 2.14-15.14 3.22-26.63 3.22-34.47 0-3.54-.23-5.93-.7-7.15 2.35.88 4.01 2.14 4.97 3.8.96 1.68 1.44 3.97 1.44 6.88 0 2.03-.4 6.3-1.22 12.8-.79 6.51-1.32 11.23-1.62 14.17zm46.15-13.16c-2.44 0-4.5 1.4-6.19 4.18a26.13 26.13 0 0 0-3.4 9.9h1.7c2.15 0 4.02-.3 5.62-.92a9.5 9.5 0 0 0 3.66-2.35 9.5 9.5 0 0 0 2.44-6.36c0-1.34-.31-2.41-.96-3.23-.64-.81-1.6-1.22-2.87-1.22zm8.58 24.7c-1.86 3.06-3.9 5.2-6.14 6.41a16.03 16.03 0 0 1-7.8 1.83c-2.93 0-5.5-1.3-7.71-3.92-2.21-2.58-3.31-6.24-3.31-10.98 0-5.37 1.45-10.16 4.35-14.38a16.44 16.44 0 0 1 5.58-4.97 15.6 15.6 0 0 1 7.58-1.87c6.1 0 9.15 2.95 9.15 8.85 0 3.54-1.36 6.31-4.1 8.32-2.75 2-5.93 3-9.54 3a29.4 29.4 0 0 1-6.49-.65c-.03.4-.04 1.03-.04 1.88 0 7.2 2.13 10.8 6.4 10.8 4.01 0 7.28-1.99 9.8-5.97 1.52.2 2.27.76 2.27 1.66zm-1.22-32.45a2 2 0 0 1-.65 1.26 2.7 2.7 0 0 1-1.3.74 32.36 32.36 0 0 0-5.63-5.4 21.68 21.68 0 0 0-7.01-3.8 6 6 0 0 1 2.96-5c2.15.84 4.37 2.52 6.67 5.05 2.3 2.5 3.95 4.88 4.96 7.15zm18 19.95c1.45-5.28 3.21-9.18 5.27-11.68 2.06-2.5 3.98-3.74 5.75-3.74 1.78 0 3.1.65 3.97 1.96a8.84 8.84 0 0 1 1.35 5.05 8.9 8.9 0 0 1-1.57 5.27 5.4 5.4 0 0 1-4.66 2.23c-.64 0-1.15-.05-1.53-.13 1.4-2 2.1-4.04 2.1-6.1 0-1.45-.6-2.18-1.8-2.18-.92 0-1.91.53-2.96 1.61a17.75 17.75 0 0 0-3.05 4.57 31.41 31.41 0 0 0-2.44 7.63c-.66 3.14-1 6.52-1 10.15 0 .4.1 2.14.3 5.19a39.4 39.4 0 0 1-1.82.13c-3.58 0-5.36-1.76-5.36-5.27 0-.82.43-3.94 1.3-9.37.85-5.46 1.27-9.8 1.27-13.03 0-3.26-.35-6.23-1.05-8.93 2.41.93 4.1 2.25 5.06 3.96a12.36 12.36 0 0 1 1.43 6.06c0 2.3-.18 4.5-.56 6.62zm35.95-12.2c-2.44 0-4.52 1.4-6.24 4.18a26.55 26.55 0 0 0-3.35 9.9h1.7c2.15 0 4.02-.3 5.62-.92a9.5 9.5 0 0 0 3.66-2.35 9.5 9.5 0 0 0 2.44-6.36c0-1.34-.32-2.41-.96-3.23-.64-.81-1.6-1.22-2.87-1.22zm8.58 24.7c-1.86 3.06-3.9 5.2-6.14 6.41a16.03 16.03 0 0 1-7.8 1.83c-2.94 0-5.5-1.3-7.72-3.92-2.2-2.58-3.3-6.24-3.3-10.98 0-5.37 1.44-10.16 4.35-14.38a16.44 16.44 0 0 1 5.58-4.97 15.6 15.6 0 0 1 7.58-1.87c6.1 0 9.15 2.95 9.15 8.85 0 3.54-1.36 6.31-4.1 8.32-2.75 2-5.94 3-9.54 3a29.4 29.4 0 0 1-6.5-.65c-.02.4-.04 1.03-.04 1.88 0 7.2 2.14 10.8 6.41 10.8 4 0 7.28-1.99 9.8-5.97 1.52.2 2.27.76 2.27 1.66zM109.2 89.82l-1.5-3.77h-5.75l-1.5 3.77h-.96l4.8-12.02h1.08l4.8 12.02h-.97zm-6.91-4.6h5.08l-2.1-5.25-.44-1.27-.45 1.24-2.1 5.27zm23.53-1.28h4.94v5.88h-.73l-.03-2.1c-.33.73-.85 1.3-1.54 1.7a5.3 5.3 0 0 1-2.6.58c-1.1 0-2.05-.25-2.86-.75a4.91 4.91 0 0 1-1.9-2.16 7.59 7.59 0 0 1-.66-3.28c0-1.25.23-2.34.69-3.28a5 5 0 0 1 1.9-2.15 5.4 5.4 0 0 1 2.88-.76c1.23 0 2.23.24 3 .73a4.4 4.4 0 0 1 1.76 2.22l-.84.43a3.51 3.51 0 0 0-1.4-1.9 4.48 4.48 0 0 0-2.52-.65c-.9 0-1.68.22-2.37.65a4.27 4.27 0 0 0-1.57 1.86 6.6 6.6 0 0 0-.57 2.85c0 1.66.4 2.97 1.2 3.93.8.95 1.9 1.43 3.3 1.43.87 0 1.61-.18 2.22-.52.6-.35 1.06-.8 1.34-1.37.3-.56.44-1.17.44-1.82v-.66h-4.08v-.86zM144 89h7.58v.83h-8.49V77.8h8.2v.84H144v4.64h5.76v.86H144v4.85zm28.56-11.19v12.02h-1.13l-6.38-9.43-.88-1.6h-.03l.07 1.51v9.52h-.89V77.8h1.16l6.35 9.42.9 1.61-.03-1.5V77.8h.86zm22.39 8.97a4.45 4.45 0 0 1-1.77 2.38c-.85.57-1.86.85-3.03.85a5 5 0 0 1-4.8-2.91 7.59 7.59 0 0 1-.66-3.28c0-1.25.22-2.34.66-3.28a5 5 0 0 1 1.91-2.16c.84-.5 1.79-.75 2.87-.75 2.4 0 3.95.99 4.66 2.97l-.9.41a3.58 3.58 0 0 0-1.33-1.91 4.1 4.1 0 0 0-2.38-.64c-.9 0-1.68.22-2.37.65a4.33 4.33 0 0 0-1.6 1.86c-.37.8-.56 1.76-.56 2.85 0 1.1.19 2.04.56 2.85.37.8.89 1.42 1.56 1.86.68.43 1.47.65 2.38.65.97 0 1.8-.24 2.47-.72a3.73 3.73 0 0 0 1.42-2.02l.91.34zm12.7 2.22h7.59v.83h-8.5V77.8h8.2v.84h-7.3v4.64h5.77v.86h-5.77v4.85zm37.91-11.19c1.92 0 3.4.51 4.43 1.52 1.04 1.02 1.56 2.48 1.56 4.4 0 1.97-.52 3.48-1.56 4.52-1.04 1.05-2.51 1.58-4.43 1.58h-3.78V77.8h3.78zm.08 11.19c1.6 0 2.83-.46 3.68-1.37.86-.9 1.29-2.2 1.29-3.9 0-1.63-.43-2.88-1.3-3.76-.84-.88-2.07-1.32-3.67-1.32h-2.95v10.35h2.95zm18.97 0h7.58v.83h-8.49V77.8h8.2v.84h-7.29v4.64h5.76v.86h-5.76v4.85zm40.08-7.6-2.42 8.43h-1.13l-3.75-12.02h.99l3.33 11.28 3.15-11.28h1.05l3.15 11.29 3.36-11.29h.94l-3.76 12.02h-1.12l-2.43-8.43-.66-2.6h-.03l-.67 2.6zM325.8 89h7.59v.83h-8.5V77.8h8.21v.84h-7.3v4.64h5.77v.86h-5.78v4.85zm19.33.83V77.8h4.24c1.32 0 2.3.28 2.95.82.64.55.97 1.34.97 2.37 0 .7-.2 1.3-.58 1.78-.38.49-.92.8-1.62.95v.01c.78.12 1.4.44 1.85.95.45.51.68 1.15.68 1.9 0 1.03-.36 1.83-1.1 2.4a5.1 5.1 0 0 1-3.15.84h-4.24zm.91-6.48h3.36c1.95 0 2.92-.78 2.92-2.35s-.97-2.35-2.92-2.35h-3.36v4.7zm0 5.65h3.51c1.03 0 1.8-.21 2.32-.63.52-.41.78-1 .78-1.78 0-.79-.26-1.39-.78-1.8-.52-.4-1.3-.6-2.32-.6h-3.5v4.8zm38.28-11.19c1.93 0 3.4.51 4.44 1.52 1.04 1.02 1.56 2.48 1.56 4.4 0 1.97-.52 3.48-1.56 4.52-1.03 1.05-2.51 1.58-4.44 1.58h-3.78V77.8h3.78zm.08 11.19c1.6 0 2.84-.46 3.7-1.37.84-.9 1.27-2.2 1.27-3.9 0-1.63-.43-2.88-1.27-3.76-.86-.88-2.1-1.32-3.7-1.32h-2.95v10.35h2.95zm18.98 0h7.59v.83h-8.5V77.8h8.2v.84h-7.3v4.64h5.78v.86h-5.78v4.85zm23.04-11.37c2.26 0 3.77.88 4.54 2.65l-.78.64a3.52 3.52 0 0 0-1.37-1.87 4.27 4.27 0 0 0-2.37-.59c-.7 0-1.32.12-1.84.34-.52.22-.92.51-1.19.89-.27.38-.41.8-.41 1.27 0 .46.11.84.35 1.14.22.3.61.57 1.17.78.55.21 1.32.4 2.29.58 1.56.26 2.67.65 3.33 1.17.65.5.97 1.2.97 2.1a2.8 2.8 0 0 1-.56 1.72c-.37.5-.9.88-1.59 1.14-.69.28-1.48.42-2.36.42a6.26 6.26 0 0 1-3.19-.75 3.82 3.82 0 0 1-1.78-2.12l.8-.63c.25.87.73 1.53 1.46 1.98.74.46 1.65.69 2.73.69 1.04 0 1.9-.21 2.55-.64.67-.42 1-1.01 1-1.75 0-.65-.27-1.15-.82-1.53a7.21 7.21 0 0 0-2.8-.9c-1.13-.2-2.02-.44-2.68-.72a3.14 3.14 0 0 1-1.4-1.04c-.3-.4-.44-.92-.44-1.55 0-.61.18-1.18.54-1.7.35-.53.86-.95 1.53-1.25a5.36 5.36 0 0 1 2.32-.47zm17.57.18v12.02h-.91V77.8h.9zm17.51 6.14h4.93v5.88h-.73l-.02-2.1c-.33.73-.85 1.3-1.55 1.7-.7.39-1.56.58-2.59.58a4.94 4.94 0 0 1-4.76-2.91 7.59 7.59 0 0 1-.66-3.28c0-1.25.22-2.34.67-3.28a5.09 5.09 0 0 1 1.93-2.15 5.4 5.4 0 0 1 2.87-.76 5.6 5.6 0 0 1 3 .73 4.34 4.34 0 0 1 1.75 2.22l-.83.43a3.51 3.51 0 0 0-1.4-1.9 4.52 4.52 0 0 0-2.52-.65c-.9 0-1.69.22-2.36.65a4.36 4.36 0 0 0-1.6 1.86c-.36.8-.55 1.76-.55 2.85 0 1.66.4 2.97 1.2 3.93a4.05 4.05 0 0 0 3.3 1.43c.87 0 1.6-.18 2.21-.52.6-.35 1.06-.8 1.35-1.37.3-.56.44-1.17.44-1.82v-.66h-4.08v-.86zM488 77.8v12.02h-1.13l-6.37-9.43-.89-1.6h-.02l.05 1.51v9.52h-.87V77.8h1.14l6.36 9.42.91 1.61-.04-1.5V77.8h.86z"/>
</svg>
