<?xml version="1.0" encoding="utf-8"?>
<!-- Generator: Adobe Illustrator 25.4.1, SVG Export Plug-In . SVG Version: 6.00 Build 0)  -->
<svg version="1.1" id="Layer_1" xmlns="http://www.w3.org/2000/svg" xmlns:xlink="http://www.w3.org/1999/xlink" x="0px" y="0px"
	 viewBox="0 0 222.2 47.7" style="enable-background:new 0 0 222.2 47.7;" xml:space="preserve">
<style type="text/css">
	.st0{fill:#1D1D1B;}
</style>
<g id="dff727ea-c914-4c1d-9325-86d683f65698" transform="matrix(1.8084622163430943,0,0,1.8084622163430943,110.4220895861043,123.09992096770425)">
	<path d="M-19.5-55.2L-19.5-55.2L-19.5-55.2c-0.1-0.2-0.1-0.5-0.1-0.9l0,0l0,0c0-0.4,0.1-1.6,0.4-3.6l0,0l0,0c0.3-2,0.4-3.5,0.4-4.7
		l0,0l0,0c0-0.3,0-0.7-0.1-1.2l0,0l0,0c0.7,0,1.1,0.2,1.3,0.5l0,0l0,0c0.1,0.2,0.2,0.3,0.2,0.5l0,0l0,0c0,0.2,0,0.4,0,0.7l0,0l0,0
		c0,0.3-0.1,1.6-0.4,3.7l0,0l0,0c-0.3,2.2-0.5,3.7-0.5,4.6l0,0l0,0c0,0,0.1,0,0.2,0l0,0l0,0c2,0,3.5-0.1,4.5-0.4l0,0l0,0
		c-0.1,0.5-0.2,1-0.5,1.3l0,0l0,0c-0.3,0.3-0.7,0.5-1.1,0.5l0,0l0,0c-0.1,0-0.5,0-1.2-0.1l0,0l0,0c-0.7-0.1-1.3-0.1-2-0.1l0,0l0,0
		c-0.6,0-1.3,0.1-1.9,0.2l0,0l0,0C-20.2-54.6-19.9-54.9-19.5-55.2z M-10.3-59.8L-10.3-59.8L-10.3-59.8c-0.3,0.5-0.5,0.9-0.6,1.4l0,0
		l0,0c-0.1,0.5-0.2,1-0.2,1.4l0,0l0,0c0,0.4,0.1,0.8,0.3,1.1l0,0l0,0c0.2,0.3,0.5,0.5,0.9,0.5l0,0l0,0c0.5,0,1-0.3,1.5-0.9l0,0l0,0
		c0.5-0.6,0.8-1.3,1.1-2.1l0,0l0,0c0.2-0.8,0.4-1.6,0.4-2.3l0,0l0,0c0-0.7,0-1.3-0.1-1.7l0,0l0,0c0.2,0,0.4,0,0.4,0l0,0l0,0
		c0.8,0,1.2,0.4,1.2,1.2l0,0l0,0c0,0.2-0.1,0.9-0.3,2.2l0,0l0,0c-0.2,1.3-0.3,2.3-0.3,3l0,0l0,0c0,0.8,0.1,1.4,0.4,2l0,0l0,0
		c-0.6-0.1-1-0.4-1.3-0.8l0,0l0,0c-0.3-0.4-0.4-1-0.4-1.7l0,0l0,0c0-0.1,0-0.4,0.1-0.8l0,0l0,0c-0.3,0.9-0.7,1.6-1.3,2.1l0,0l0,0
		c-0.6,0.5-1.3,0.8-1.9,0.8l0,0l0,0c-0.6,0-1.1-0.2-1.5-0.7l0,0l0,0c-0.4-0.5-0.6-1.1-0.6-1.9l0,0l0,0c0-0.8,0.2-1.6,0.5-2.4l0,0
		l0,0c0.3-0.8,0.8-1.5,1.4-2l0,0l0,0c0.6-0.6,1.3-0.9,2.1-0.9l0,0l0,0c0.3,0,0.7,0.1,1.1,0.2l0,0l0,0c-0.6,0.1-1.1,0.4-1.5,0.8l0,0
		l0,0C-9.7-60.7-10.1-60.3-10.3-59.8z M3.8-64.1L3.8-64.1l0,0.2l0,0c0,0.4-0.1,1.5-0.4,3.5l0,0l0,0c-0.3,2-0.4,3.6-0.4,4.9l0,0l0,0
		c0,0.6,0,1,0.1,1.4l0,0l0,0c-0.2,0-0.4,0-0.4,0l0,0l0,0c-0.4,0-0.7-0.1-0.9-0.3l0,0l0,0c-0.2-0.2-0.3-0.5-0.3-0.9l0,0l0,0
		c0-0.4,0.2-1.8,0.5-4l0,0l0,0c0.3-2.2,0.5-3.8,0.5-4.7l0,0l0,0c0-0.9-0.1-1.6-0.2-1.9l0,0l0,0c0.3,0,0.6,0.2,0.8,0.3l0,0l0,0
		c0.3,0.2,0.5,0.4,0.6,0.8l0,0l0,0c0.7-0.4,1.5-0.6,2.4-0.6l0,0l0,0c0.9,0,1.6,0.3,2.1,0.8l0,0l0,0c0.5,0.5,0.8,1.2,0.8,2l0,0l0,0
		c0,1-0.4,1.9-1.1,2.7l0,0l0,0C7-59.1,6-58.7,4.8-58.7l0,0l0,0c-0.3,0-0.5,0-0.8,0l0,0l0-0.5l0,0c0.6,0,1.2-0.1,1.6-0.3l0,0l0,0
		c0.5-0.2,0.8-0.4,1.1-0.7l0,0l0,0c0.5-0.6,0.7-1.3,0.7-2.1l0,0l0,0c0-0.6-0.2-1.1-0.6-1.5l0,0l0,0c-0.4-0.4-0.9-0.6-1.6-0.6l0,0
		l0,0C4.8-64.3,4.3-64.2,3.8-64.1z M11.9-59.8L11.9-59.8L11.9-59.8c-0.3,0.5-0.5,0.9-0.6,1.4l0,0l0,0c-0.1,0.5-0.2,1-0.2,1.4l0,0
		l0,0c0,0.4,0.1,0.8,0.3,1.1l0,0l0,0c0.2,0.3,0.5,0.5,0.9,0.5l0,0l0,0c0.5,0,1-0.3,1.5-0.9l0,0l0,0c0.5-0.6,0.8-1.3,1-2.1l0,0l0,0
		c0.3-0.8,0.4-1.6,0.4-2.3l0,0l0,0c0-0.7,0-1.3-0.1-1.7l0,0l0,0c0.2,0,0.4,0,0.4,0l0,0l0,0c0.8,0,1.2,0.4,1.2,1.2l0,0l0,0
		c0,0.2-0.1,0.9-0.3,2.2l0,0l0,0c-0.2,1.3-0.3,2.3-0.3,3l0,0l0,0c0,0.8,0.1,1.4,0.4,2l0,0l0,0c-0.6-0.1-1-0.4-1.3-0.8l0,0l0,0
		c-0.3-0.4-0.4-1-0.4-1.7l0,0l0,0c0-0.1,0-0.4,0.1-0.8l0,0l0,0c-0.3,0.9-0.7,1.6-1.3,2.1l0,0l0,0c-0.6,0.5-1.3,0.8-1.9,0.8l0,0l0,0
		c-0.6,0-1.1-0.2-1.5-0.7l0,0l0,0c-0.4-0.5-0.6-1.1-0.6-1.9l0,0l0,0c0-0.8,0.2-1.6,0.5-2.4l0,0l0,0c0.3-0.8,0.8-1.5,1.4-2l0,0l0,0
		c0.6-0.6,1.3-0.9,2-0.9l0,0l0,0c0.3,0,0.7,0.1,1.1,0.2l0,0l0,0c-0.6,0.1-1.1,0.4-1.5,0.8l0,0l0,0C12.5-60.7,12.1-60.3,11.9-59.8z
		 M25.3-60.4L25.3-60.4L25.3-60.4c0,0.4-0.1,1.2-0.3,2.3l0,0l0,0c-0.2,1.1-0.3,1.9-0.3,2.4l0,0l0,0c0,0.5,0.1,0.8,0.2,1.1l0,0l0,0
		c0.1,0.2,0.3,0.4,0.6,0.6l0,0l0,0c-0.1,0-0.3,0-0.5,0l0,0l0,0c-0.6,0-1.1-0.1-1.3-0.4l0,0l0,0c-0.3-0.2-0.4-0.7-0.4-1.3l0,0l0,0
		c0-0.3,0.1-1,0.3-2.1l0,0l0,0c0.2-1.1,0.3-1.8,0.3-2.3l0,0l0,0c0-0.6-0.2-0.9-0.6-0.9l0,0l0,0c-0.6,0-1.2,0.5-1.9,1.6l0,0l0,0
		c-0.6,1.1-1,2.3-1,3.8l0,0l0,0c0,0.6,0,1,0.1,1.4l0,0l0,0c-0.2,0-0.4,0-0.4,0l0,0l0,0c-0.8,0-1.2-0.4-1.2-1.2l0,0l0,0
		c0-0.2,0.1-0.9,0.3-2.1l0,0l0,0c0.2-1.3,0.3-2.3,0.3-3l0,0l0,0c0-0.7-0.1-1.4-0.2-2.1l0,0l0,0c0.6,0.2,0.9,0.5,1.2,0.9l0,0l0,0
		c0.2,0.4,0.3,0.9,0.3,1.4l0,0l0,0c0,0.5-0.1,1.1-0.2,1.8l0,0l0,0c0.3-1.1,0.8-1.9,1.5-2.7l0,0l0,0c0.7-0.7,1.3-1.1,1.8-1.1l0,0l0,0
		C24.8-62.4,25.3-61.7,25.3-60.4z M32-62L32-62L32-62c0,0.4-0.1,0.7-0.2,0.8l0,0l0,0C31.6-61,31.4-61,31.1-61l0,0h-1l0,0
		c0,0.2-0.1,0.8-0.3,1.7l0,0l0,0c-0.3,1.7-0.5,3-0.5,3.9l0,0l0,0c0,0.9,0.1,1.5,0.2,1.8l0,0l0,0c-0.5-0.2-0.9-0.5-1.1-0.9l0,0l0,0
		c-0.2-0.4-0.3-0.9-0.3-1.5l0,0l0,0c0-0.6,0-1.1,0.1-1.6l0,0l0,0c0.1-0.5,0.2-1.1,0.3-1.8l0,0l0,0c0.1-0.7,0.2-1.2,0.3-1.6l0,0l0,0
		c-0.5,0.1-1.1,0.2-1.6,0.5l0,0l0,0c0-0.2,0-0.3,0-0.4l0,0l0,0c0-0.4,0.1-0.7,0.4-0.9l0,0l0,0c0.3-0.2,0.7-0.2,1.3-0.2l0,0l0,0
		c0.1-0.7,0.1-1.2,0.1-1.5l0,0l0,0c0-0.3,0-0.6,0-0.8l0,0l0,0c0-0.2,0-0.4,0-0.5l0,0l0,0c0.4,0.1,0.8,0.3,1,0.6l0,0l0,0
		c0.2,0.3,0.4,0.7,0.4,1.3l0,0l0,0c0,0.3,0,0.6-0.1,1l0,0l0,0c0.8,0,1.4-0.1,1.7-0.4l0,0l0,0C32-62.2,32-62.1,32-62z M34.6-58.7
		L34.6-58.7c0.3-1.1,0.8-1.9,1.4-2.7l0,0l0,0c0.6-0.7,1.2-1.1,1.8-1.1l0,0l0,0c0.6,0,1,0.2,1.2,0.5l0,0l0,0c0.2,0.3,0.4,0.8,0.4,1.4
		l0,0l0,0c0,0.6-0.1,1.4-0.3,2.5l0,0l0,0c-0.2,1.1-0.3,1.8-0.3,2.3l0,0l0,0c0,0.5,0.1,0.8,0.2,1l0,0l0,0c0.1,0.2,0.3,0.4,0.6,0.6
		l0,0l0,0c-0.1,0-0.3,0-0.5,0l0,0l0,0c-0.6,0-1-0.1-1.3-0.4l0,0l0,0c-0.3-0.2-0.4-0.7-0.4-1.3l0,0l0,0c0-0.3,0.1-1,0.3-2.1l0,0l0,0
		c0.2-1.1,0.3-1.8,0.3-2.3l0,0l0,0c0-0.6-0.2-0.9-0.7-0.9l0,0l0,0c-0.3,0-0.5,0.1-0.8,0.4l0,0l0,0c-0.3,0.3-0.6,0.6-0.9,1.1l0,0l0,0
		c-0.3,0.5-0.5,1-0.7,1.7l0,0l0,0c-0.2,0.7-0.3,1.4-0.3,2.1l0,0l0,0c0,0.7,0,1.2,0.1,1.5l0,0l0,0c-0.2,0-0.4,0-0.4,0l0,0l0,0
		c-0.4,0-0.8-0.1-1-0.3l0,0l0,0c-0.2-0.2-0.3-0.5-0.3-0.9l0,0l0,0c0-0.4,0.1-1.2,0.2-2.3l0,0l0,0c0.5-3.5,0.7-6.1,0.7-7.9l0,0l0,0
		c0-0.8-0.1-1.4-0.2-1.6l0,0l0,0c0.5,0.2,0.9,0.5,1.1,0.9l0,0l0,0c0.2,0.4,0.3,0.9,0.3,1.6l0,0l0,0c0,0.5-0.1,1.4-0.3,2.9l0,0l0,0
		C34.8-60.4,34.7-59.3,34.6-58.7L34.6-58.7z M45.2-61.7L45.2-61.7L45.2-61.7c-0.6,0-1,0.3-1.4,1l0,0l0,0c-0.4,0.6-0.7,1.4-0.8,2.3
		l0,0h0.4l0,0c0.5,0,0.9-0.1,1.3-0.2l0,0l0,0c0.4-0.1,0.6-0.3,0.8-0.5l0,0l0,0c0.4-0.4,0.6-0.9,0.6-1.5l0,0l0,0
		c0-0.3-0.1-0.6-0.2-0.7l0,0l0,0C45.7-61.6,45.5-61.7,45.2-61.7z M47.2-56L47.2-56c-0.4,0.7-0.9,1.2-1.4,1.5l0,0l0,0
		c-0.5,0.3-1.1,0.4-1.8,0.4l0,0l0,0c-0.7,0-1.3-0.3-1.8-0.9l0,0l0,0c-0.5-0.6-0.8-1.4-0.8-2.5l0,0l0,0c0-1.2,0.3-2.3,1-3.3l0,0l0,0
		c0.3-0.5,0.8-0.8,1.3-1.1l0,0l0,0c0.5-0.3,1.1-0.4,1.7-0.4l0,0l0,0c1.4,0,2.1,0.7,2.1,2l0,0l0,0c0,0.8-0.3,1.5-0.9,1.9l0,0l0,0
		c-0.6,0.5-1.4,0.7-2.2,0.7l0,0l0,0c-0.6,0-1.1,0-1.5-0.1l0,0l0,0c0,0.1,0,0.2,0,0.4l0,0l0,0c0,1.7,0.5,2.5,1.5,2.5l0,0l0,0
		c0.9,0,1.7-0.5,2.2-1.4l0,0l0,0C47-56.3,47.2-56.2,47.2-56L47.2-56z M46.9-63.5L46.9-63.5L46.9-63.5c0,0.1-0.1,0.2-0.2,0.3l0,0l0,0
		c-0.1,0.1-0.2,0.1-0.3,0.2l0,0l0,0c-0.3-0.4-0.8-0.8-1.3-1.2l0,0l0,0c-0.5-0.4-1.1-0.7-1.6-0.9l0,0l0,0c0-0.5,0.2-0.9,0.7-1.2l0,0
		l0,0c0.5,0.2,1,0.6,1.5,1.2l0,0l0,0C46.3-64.5,46.7-64,46.9-63.5z M51-58.9L51-58.9c0.3-1.2,0.7-2.1,1.2-2.7l0,0l0,0
		c0.5-0.6,0.9-0.9,1.3-0.9l0,0l0,0c0.4,0,0.7,0.1,0.9,0.5l0,0l0,0c0.2,0.3,0.3,0.7,0.3,1.2l0,0l0,0c0,0.5-0.1,0.9-0.4,1.2l0,0l0,0
		c-0.2,0.3-0.6,0.5-1.1,0.5l0,0l0,0c-0.1,0-0.3,0-0.3,0l0,0l0,0c0.3-0.5,0.5-0.9,0.5-1.4l0,0l0,0c0-0.3-0.1-0.5-0.4-0.5l0,0l0,0
		c-0.2,0-0.4,0.1-0.7,0.4l0,0l0,0c-0.2,0.3-0.5,0.6-0.7,1l0,0l0,0c-0.2,0.5-0.4,1-0.6,1.8l0,0l0,0c-0.2,0.7-0.2,1.5-0.2,2.3l0,0l0,0
		c0,0.1,0,0.5,0.1,1.2l0,0l0,0c-0.2,0-0.4,0-0.4,0l0,0l0,0c-0.8,0-1.2-0.4-1.2-1.2l0,0l0,0c0-0.2,0.1-0.9,0.3-2.1l0,0l0,0
		c0.2-1.3,0.3-2.3,0.3-3l0,0l0,0c0-0.7-0.1-1.4-0.2-2.1l0,0l0,0c0.6,0.2,0.9,0.5,1.2,0.9l0,0l0,0c0.2,0.4,0.3,0.9,0.3,1.4l0,0l0,0
		C51.2-59.9,51.1-59.4,51-58.9L51-58.9z M59.3-61.7L59.3-61.7L59.3-61.7c-0.6,0-1,0.3-1.4,1l0,0l0,0c-0.4,0.6-0.6,1.4-0.8,2.3l0,0
		h0.4l0,0c0.5,0,0.9-0.1,1.3-0.2l0,0l0,0c0.4-0.1,0.6-0.3,0.8-0.5l0,0l0,0c0.4-0.4,0.6-0.9,0.6-1.5l0,0l0,0c0-0.3-0.1-0.6-0.2-0.7
		l0,0l0,0C59.8-61.6,59.6-61.7,59.3-61.7z M61.2-56L61.2-56c-0.4,0.7-0.9,1.2-1.4,1.5l0,0l0,0c-0.5,0.3-1.1,0.4-1.8,0.4l0,0l0,0
		c-0.7,0-1.3-0.3-1.8-0.9l0,0l0,0c-0.5-0.6-0.8-1.4-0.8-2.5l0,0l0,0c0-1.2,0.3-2.3,1-3.3l0,0l0,0c0.3-0.5,0.8-0.8,1.3-1.1l0,0l0,0
		c0.5-0.3,1.1-0.4,1.7-0.4l0,0l0,0c1.4,0,2.1,0.7,2.1,2l0,0l0,0c0,0.8-0.3,1.5-0.9,1.9l0,0l0,0c-0.6,0.5-1.4,0.7-2.2,0.7l0,0l0,0
		c-0.6,0-1.1,0-1.5-0.1l0,0l0,0c0,0.1,0,0.2,0,0.4l0,0l0,0c0,1.7,0.5,2.5,1.5,2.5l0,0l0,0c0.9,0,1.7-0.5,2.3-1.4l0,0l0,0
		C61.1-56.3,61.2-56.2,61.2-56L61.2-56z"/>
</g>
<g id="dfe8044c-91b6-4966-9038-a63642c35301" transform="matrix(0.6414999074478166,0,0,0.6414999074478166,37.325639709553826,117.89613952995941)">
	<path class="st0" d="M-15.4-150.6L-15.4-150.6c-0.8-1.4-2-2.4-3.5-2.8h-0.1c-0.8-0.2-1.7-0.4-2.5-0.5c-2.3-0.3-4.5-1.1-6.4-2.4
		c-0.4-0.2-0.8-0.1-1,0.3c-0.2,0.3-0.1,0.8,0.2,1c0.6,0.4,1.3,0.8,2,1.1c0,0.1-0.1,0.2-0.1,0.3c-0.9,3.2,0.9,6.6,4.2,7.5
		c0.6,0.2,1.2,0.3,1.8,0.2c1.8,0,3.6-0.8,4.7-2.3c0.1,1,0,2-0.2,3c-0.2,0.4,0,0.8,0.4,1c0,0,0,0,0.1,0c0.1,0,0.2,0,0.2,0
		c0.3,0,0.6-0.2,0.7-0.5c0.3-1.3,0.4-2.7,0.2-4.1C-14.9-149.3-15.1-150-15.4-150.6z M-19.9-152.1c0,0.2,0,0.3,0,0.5
		c-0.2,0.7-0.9,1.1-1.6,0.9s-1.1-0.9-0.9-1.6c0-0.1,0.1-0.1,0.1-0.2l0.6,0.1C-21.1-152.3-20.5-152.2-19.9-152.1L-19.9-152.1z
		 M-19-147.8c-1.1,0.6-2.3,0.7-3.5,0.3c-2.4-0.7-3.8-3.2-3.1-5.7v-0.1c0.6,0.2,1.1,0.4,1.7,0.5v0.1c-0.5,1.5,0.3,3,1.8,3.5
		s3-0.3,3.5-1.8c0.1-0.2,0.1-0.3,0.1-0.5c0.6,0.3,1.1,0.8,1.5,1.3C-17.3-149.2-18-148.3-19-147.8L-19-147.8z M8.1-153.6
		c0-0.1-0.1-0.2-0.1-0.3c0.7-0.3,1.4-0.7,2-1.1c0.3-0.3,0.4-0.7,0.1-1.1c-0.2-0.3-0.7-0.4-1-0.2c-1.9,1.3-4.1,2.1-6.4,2.4
		c-0.9,0.1-1.7,0.2-2.5,0.5H0.1c-1.5,0.4-2.8,1.4-3.5,2.7v0.1c-0.3,0.6-0.5,1.3-0.5,1.9c-0.2,1.4-0.1,2.8,0.2,4.1
		c0.1,0.3,0.4,0.5,0.7,0.5c0.4,0,0.8-0.3,0.8-0.7c0-0.1,0-0.2,0-0.3c-0.2-1-0.3-2-0.2-3c1.1,1.4,2.9,2.3,4.7,2.3
		c0.6,0,1.2-0.1,1.8-0.2C7.2-146.9,9.1-150.3,8.1-153.6C8.2-153.5,8.2-153.6,8.1-153.6z M2.8-152.4l0.6-0.1c0,0.1,0.1,0.1,0.1,0.2
		c0.2,0.7-0.2,1.4-0.9,1.6c-0.7,0.2-1.4-0.2-1.6-0.8c-0.1-0.2-0.1-0.4,0-0.6C1.6-152.2,2.2-152.3,2.8-152.4L2.8-152.4z M3.6-147.5
		c-1.2,0.3-2.4,0.2-3.5-0.3c-0.9-0.5-1.7-1.4-2-2.4c0.4-0.6,0.9-1,1.5-1.3c0,0.1,0,0.2,0.1,0.4c0.4,1.2,1.4,2,2.7,2
		c1.5,0,2.8-1.3,2.7-2.9c0-0.2,0-0.4-0.1-0.7v-0.1c0.6-0.2,1.1-0.3,1.7-0.6v0.1C7.4-150.7,6-148.2,3.6-147.5z"/>
	<path class="st0" d="M-13.1-151.8c-0.2-2.2-2-3.7-5.2-3.9c-1.7-0.2-3.3-0.8-4.7-1.7c-0.3-0.2-0.8-0.1-1,0.2c-0.2,0.3-0.1,0.8,0.2,1
		c1.6,1,3.5,1.7,5.4,1.9c1.3,0.1,3.6,0.6,3.8,2.5c0,0.4,0.4,0.7,0.7,0.7h0C-13.4-151-13.1-151.3-13.1-151.8z M-0.1-154.2
		c1.9-0.2,3.8-0.9,5.4-1.9c0.3-0.2,0.4-0.7,0.2-1c-0.2-0.3-0.7-0.4-1-0.2c-1.4,0.9-3,1.5-4.7,1.7c-3.1,0.2-5,1.7-5.2,3.9
		c0,0.4,0.3,0.8,0.7,0.8c0,0,0,0,0,0h0c0.4,0,0.7-0.3,0.8-0.7C-3.7-153.6-1.4-154.1-0.1-154.2z M-24.8-159.4
		c0.3,0.3,0.7,0.4,1.1,0.1s0.4-0.7,0.1-1.1c0,0,0,0,0,0l-3.2-3.9c-0.3-0.3-0.7-0.4-1.1-0.1s-0.4,0.7-0.1,1.1c0,0,0,0,0,0
		L-24.8-159.4z M-21.4-161.6c0.1,0.3,0.4,0.5,0.7,0.5c0.4,0,0.7-0.3,0.7-0.8c0-0.1,0-0.2,0-0.2l-1.4-3.7c-0.1-0.4-0.6-0.6-1-0.4
		c-0.4,0.1-0.6,0.6-0.4,1L-21.4-161.6z M-17.4-161.5c0.4,0,0.7-0.3,0.8-0.7l0.2-3.2c0-0.4-0.3-0.8-0.7-0.8c0,0,0,0,0,0
		c-0.4,0-0.8,0.3-0.8,0.7c0,0,0,0,0,0l-0.2,3.2C-18.2-161.8-17.9-161.5-17.4-161.5C-17.5-161.5-17.4-161.5-17.4-161.5z"/>
	<path class="st0" d="M35.9-135.6c-3.9-1.2-13.1-1.1-20.5-0.8c5-6.3,5-12.4,4.1-15.3c-0.7-2.1-1.7-7.6-0.4-9.7
		c0.2-0.4,0.7-0.7,1.2-0.8c1.8-0.2,2.1-2.1,2.3-3.5c0.1-0.5,0.2-1,0.3-1.5c0.3-0.5,0.7-1,1.2-1.4c1.4-1.1,2.5-2.6,3.2-4.2
		c1.6-3.9-0.5-5.8-0.6-5.9c-0.1-0.1-0.2-0.1-0.3-0.1h-0.1c-1.6-0.4-3.4-0.2-4.8,0.7c-0.7,0.3-1.5,0.7-2.8,1.2
		c-2.7,1.3-5.9,0.8-8-1.3c-4.5-4.3-7.7-5.6-20.1-5.6s-15.5,1.3-20,5.6c-2.1,2.1-5.3,2.7-8,1.3c-0.9-0.4-1.9-0.8-2.8-1.2
		c-1.4-0.9-3.2-1.2-4.8-0.7h-0.1c-0.1,0-0.2,0.1-0.3,0.1c-0.1,0.1-2.2,2-0.6,5.9c0.7,1.7,1.8,3.1,3.2,4.2c0.5,0.4,0.9,0.8,1.2,1.4
		c0.1,0.5,0.2,1,0.2,1.6c0.2,1.5,0.6,3.3,2.3,3.5c0.5,0.1,0.9,0.3,1.2,0.8c1.3,2.1,0.3,7.5-0.4,9.7c-0.9,2.9-0.9,9,4.1,15.3
		c-7.5-0.3-16.6-0.4-20.5,0.8c-0.4,0.1-0.6,0.6-0.5,0.9s0.6,0.6,0.9,0.5c4.1-1.3,15-1,21.2-0.7h0.2l0.6,0.7
		c-7.7,0.1-12.9,0.6-15.5,1.6c-0.4,0.1-0.6,0.6-0.5,0.9c0.1,0.4,0.6,0.6,0.9,0.5c0,0,0,0,0,0c2.6-0.9,8.3-1.4,16.6-1.5
		c0.4,0.3,0.7,0.6,1.1,0.9c-6.5,0.4-17,1.2-21,3c-0.4,0.2-0.5,0.6-0.3,1c0.2,0.3,0.6,0.5,0.9,0.4c4.2-1.8,16.2-2.6,22.2-2.9l1,0.7
		l0.1,0.1c-6.3,0.6-10.6,1.4-12.8,2.4c-0.4,0.2-0.5,0.6-0.3,1c0.2,0.3,0.6,0.5,0.9,0.4c2.1-0.9,6.4-1.7,12.7-2.3
		c0,1.8,0.2,3.7,0.7,5.5c1.6,4.3,3.9,5.4,6.5,5.6c0.4,0.7,0.9,1.3,1.5,1.8c-1.4,1.3-2.5,2.8-3.4,4.5c-0.1,0.4,0,0.8,0.4,1
		s0.8,0,1-0.4c0.3-0.7,1.1-2,3.3-4.2c0.6,0.3,1.3,0.6,2,0.8c-0.5,1.1-0.8,2.2-0.9,3.4c0,0.4,0.3,0.8,0.7,0.8c0,0,0,0,0,0
		c0.4,0,0.7-0.3,0.7-0.7c0.1-1.1,0.4-2.2,0.9-3.2c2.2,0.4,4.4,0.4,6.5,0c0.5,1,0.8,2.1,0.9,3.2c0,0.4,0.4,0.7,0.8,0.7
		c0.4,0,0.7-0.4,0.7-0.8c0,0,0,0,0,0c-0.1-1.2-0.4-2.3-0.9-3.4c0.7-0.2,1.4-0.5,2-0.8c2.2,2.2,3,3.5,3.3,4.2c0.1,0.4,0.6,0.6,1,0.4
		s0.6-0.6,0.4-1c-0.8-1.7-2-3.2-3.4-4.5c0.6-0.5,1.1-1.1,1.5-1.8c2.6-0.2,4.8-1.3,6.4-5.6c0.5-1.8,0.7-3.6,0.7-5.4
		c6.3,0.6,10.7,1.4,12.7,2.3c0.4,0.2,0.8,0.1,1-0.3c0.2-0.4,0.1-0.8-0.3-1c0,0-0.1,0-0.1,0c-2.2-1-6.6-1.8-13-2.4l0.8-0.6l0.3-0.2
		c6,0.3,18.2,1.1,22.4,3c0.4,0.1,0.8-0.1,1-0.5c0.1-0.3,0-0.7-0.4-0.9c-4.1-1.8-14.6-2.6-21.1-3c0.4-0.3,0.8-0.6,1.1-0.9
		c8.3,0.1,14,0.6,16.6,1.5c0.4,0.1,0.8-0.1,0.9-0.5c0.1-0.4-0.1-0.8-0.4-0.9c-2.6-0.9-7.8-1.5-15.5-1.6l0.7-0.7h0.2
		c6.2-0.3,17.1-0.6,21.2,0.7c0.4,0.1,0.9-0.1,1-0.5C36.6-135.1,36.3-135.5,35.9-135.6z M-6.1-116.7c-0.2-0.4-0.7-0.5-1-0.3
		c-0.4,0.2-0.5,0.7-0.3,1c0.2,0.3,0.4,0.7,0.6,1.2c-1.7,0.3-3.5,0.3-5.2,0c0.3-0.7,0.6-1.2,0.6-1.2c0.2-0.4,0.1-0.8-0.3-1
		c-0.4-0.2-0.8-0.1-1,0.3c0,0.1-0.4,0.7-0.9,1.7c-1.4-0.3-2.6-1-3.6-2h2.4c2.2,0,4.2-1.2,5.2-3.1c1.1,1.9,3.1,3.1,5.3,3.1h2.4
		c-1,1-2.2,1.7-3.6,2C-5.7-116-6.1-116.6-6.1-116.7L-6.1-116.7z M11-134L11-134c-0.9,0.8-1.8,1.4-2.8,2.1H7.4
		c0.1-1.7,0.4-3.2,1.1-3.7c0.3-0.3,0.4-0.7,0.1-1.1c-0.3-0.3-0.7-0.4-1.1-0.1c-1,0.8-1.4,2.6-1.6,4.8H5.3c-0.4,0-0.7,0.3-0.8,0.7
		c0,0,0,0,0,0c0,0.4,0.3,0.8,0.7,0.8c0,0,0,0,0,0h0.6v0.7H5.7c-0.4,0-0.8,0.3-0.8,0.7c0,0.4,0.3,0.8,0.7,0.8h0.2
		c0,1.7-0.2,3.4-0.6,5.1c-1.4,3.8-3.1,4.5-5.5,4.7h-3.8c-2.5,0-4.5-2-4.5-4.5c0.3-0.3,0.7-0.6,1.2-0.8c1-0.6,2.5-1.5,1.9-2.8
		c-0.2-0.4-0.1-0.7,1.7-1.8l0.6-0.4c0.7-0.4,1.2-1.2,1.3-2c0-0.7-0.4-1.2-1-1.6c-0.3-0.2-0.8-0.1-1,0.2c-0.2,0.3-0.1,0.8,0.2,1
		c0.1,0.1,0.3,0.2,0.3,0.4s-0.2,0.4-0.7,0.8l-0.6,0.4c-1.6,1.1-2.9,2-2.2,3.6c-0.1,0.2-0.9,0.7-1.3,1c-0.4,0.2-0.8,0.5-1.1,0.8
		c-0.4-0.3-0.7-0.5-1.1-0.8c-0.5-0.3-0.9-0.6-1.3-0.9c0.7-1.7-0.6-2.5-2.2-3.7l-0.6-0.4c-0.5-0.3-0.7-0.6-0.7-0.8s0.2-0.3,0.3-0.4
		c0.3-0.2,0.4-0.7,0.2-1c-0.2-0.3-0.6-0.4-1-0.2c-0.6,0.4-0.9,0.9-1,1.6c0.1,0.8,0.6,1.6,1.3,2l0.6,0.4c1.7,1.2,1.8,1.4,1.7,1.8
		c-0.5,1.3,0.9,2.2,1.9,2.8c0.4,0.2,0.8,0.5,1.2,0.8c0,2.5-2,4.5-4.5,4.5h-1.6c-3.7,0.1-6,0.1-7.8-4.7c-0.4-1.7-0.6-3.3-0.6-5.1h0.2
		c0.4,0,0.7-0.4,0.7-0.8c0-0.4-0.4-0.7-0.8-0.7h-0.1v-0.7h0.6c0.4,0,0.8-0.3,0.8-0.8s-0.3-0.8-0.8-0.8h-0.6c-0.2-2.2-0.6-4-1.6-4.8
		c-0.4-0.3-0.9-0.2-1.1,0.1c-0.3,0.4-0.2,0.9,0.1,1.1c0.6,0.5,0.9,2,1.1,3.7h-1c-0.9-0.6-1.7-1.3-2.5-2c0-0.1-0.1-0.1-0.1-0.1
		c-0.3-0.2-0.5-0.5-0.8-0.7l2.3,0.1h0.1c0.4,0,0.8-0.3,0.8-0.7c0-0.4-0.3-0.8-0.7-0.8c0,0-1.6-0.1-4-0.2c-5.4-6.2-5.6-12.2-4.7-14.9
		c0-0.1,2.3-7.6,0.2-10.9c-0.5-0.8-1.3-1.3-2.2-1.4c-0.6-0.1-0.8-1-1-2.3c-0.1-0.6-0.2-1.2-0.4-1.8c-0.4-0.8-0.9-1.4-1.6-1.9
		c-1.2-1-2.2-2.2-2.8-3.7c-1-2.4-0.2-3.7,0.1-4.1c0.7-0.1,1.5,0.1,2.1,0.5c0.1,0.1,7.5,5.5,10.8,5.5h0.3c-3,2.2-4.8,4.9-4.8,7.6
		c0,0.4,0.3,0.8,0.8,0.8c0.4,0,0.8-0.3,0.8-0.8c0-2.8,2.6-5.9,6.6-7.9c1.6-0.2,3.1-0.7,4.5-1.5c0.4-0.2,0.5-0.6,0.3-1
		c-0.2-0.4-0.6-0.5-1-0.3c0,0,0,0,0,0c-2.3,1.2-4.9,1.7-7.6,1.6c-1.3,0-3.6-1.2-5.9-2.6c3.2,1.4,6.9,0.7,9.3-1.7
		c4-3.8,6.5-5.2,19-5.2s15,1.3,19,5.2c1.5,1.6,3.6,2.4,5.8,2.4c1.2,0,2.3-0.2,3.4-0.7c-2.2,1.3-4.6,2.5-5.8,2.5
		c-2.6,0.1-5.2-0.4-7.6-1.6c-0.4-0.2-0.8-0.1-1,0.3c-0.2,0.4-0.1,0.8,0.3,1c1.4,0.8,2.9,1.3,4.5,1.5c4,2,6.6,5,6.6,7.9
		c0,0.4,0.3,0.8,0.8,0.8s0.8-0.3,0.8-0.8c0-2.7-1.8-5.4-4.8-7.6H13c3.3,0,10.7-5.5,10.8-5.5c0.6-0.4,1.3-0.6,2.1-0.5
		c0.3,0.4,1.1,1.7,0.1,4.1c-0.6,1.4-1.6,2.7-2.8,3.7c-0.7,0.5-1.3,1.2-1.6,1.9c-0.2,0.6-0.4,1.2-0.4,1.8c-0.2,1.3-0.4,2.2-1,2.3
		c-0.9,0.1-1.8,0.6-2.2,1.4c-2.1,3.3,0.2,10.9,0.2,10.9c0.9,2.7,0.7,8.7-4.7,14.9c-2.4,0.1-4,0.2-4,0.2c-0.4,0-0.7,0.4-0.7,0.8
		s0.4,0.7,0.8,0.7h0.1l2.3-0.1C11.6-134.5,11.3-134.2,11-134z"/>
	<path class="st0" d="M5.3-159.1c0.2,0,0.4-0.1,0.6-0.3l3.2-3.9c0.3-0.3,0.2-0.8-0.1-1.1s-0.8-0.2-1.1,0.1c0,0,0,0,0,0l-3.2,3.9
		c-0.3,0.3-0.2,0.8,0.1,1.1C5-159.2,5.2-159.1,5.3-159.1L5.3-159.1z M1.6-161.1c0.1,0,0.2,0,0.3,0c0.3,0,0.6-0.2,0.7-0.5l1.4-3.7
		c0.1-0.4,0-0.8-0.4-1c-0.4-0.1-0.8,0-1,0.4l-1.4,3.7C1-161.8,1.2-161.3,1.6-161.1C1.6-161.1,1.6-161.1,1.6-161.1z M-1.4-161.4
		c0.4,0,0.7-0.4,0.7-0.8c0,0,0,0,0,0l-0.2-3.2c0-0.4-0.4-0.7-0.8-0.7c-0.4,0-0.7,0.4-0.7,0.8l0.2,3.2
		C-2.2-161.7-1.8-161.4-1.4-161.4C-1.4-161.4-1.4-161.4-1.4-161.4z"/>
	<circle class="st0" cx="-21.3" cy="-126.8" r="1.1"/>
	<circle class="st0" cx="-20.9" cy="-123.2" r="1.1"/>
	<circle class="st0" cx="-18.2" cy="-120.9" r="1.1"/>
	<circle class="st0" cx="-17.3" cy="-124.5" r="1.1"/>
	<circle class="st0" cx="-14.4" cy="-122.7" r="1.1"/>
	<circle class="st0" cx="2.4" cy="-126.8" r="1.1"/>
	<circle class="st0" cx="2.1" cy="-123.2" r="1.1"/>
	<circle class="st0" cx="-0.6" cy="-120.9" r="1.1"/>
	<circle class="st0" cx="-1.6" cy="-124.5" r="1.1"/>
	<circle class="st0" cx="-4.5" cy="-122.7" r="1.1"/>
	<path class="st0" d="M-5.9-144.1c-0.4,0-0.8,0.3-0.8,0.7c0,0,0,0,0,0c-0.3,2.1-1.3,4-2.8,5.4c-1.5-1.4-2.5-3.3-2.7-5.4
		c0-0.4-0.4-0.7-0.8-0.7c-0.4,0-0.7,0.4-0.7,0.8c0.4,2.7,1.7,5.1,3.7,6.9c0.1,0.1,0.3,0.2,0.5,0.2c0.2,0,0.3-0.1,0.5-0.2
		c2-1.8,3.4-4.2,3.7-6.9C-5.2-143.7-5.5-144.1-5.9-144.1z M-19.1-141.4c-0.4-0.2-0.8-0.1-1,0.3c-0.2,0.3-0.5,0.7-0.7,1.1
		c-1.3,1.9-3.4,4.9-0.5,8c0.3,0.3,0.8,0.2,1.1-0.1c0.2-0.3,0.2-0.6,0-0.9c-1.9-2.1-0.9-3.8,0.6-6.1c0.3-0.4,0.6-0.8,0.8-1.2
		C-18.5-140.7-18.6-141.2-19.1-141.4C-19-141.4-19-141.4-19.1-141.4z M1.3-141.2c-0.2-0.4-0.7-0.5-1-0.3c-0.4,0.2-0.5,0.7-0.3,1
		c0.2,0.4,0.5,0.8,0.8,1.2c1.6,2.3,2.5,4.1,0.6,6.1c-0.3,0.3-0.4,0.7-0.1,1.1c0.3,0.3,0.7,0.4,1.1,0.1c0.1,0,0.1-0.1,0.1-0.1
		c2.8-3.1,0.8-6-0.5-8C1.7-140.5,1.5-140.8,1.3-141.2z M-17.5-131.6c0.1-0.4-0.1-0.8-0.5-0.9c-0.4-0.1-0.8,0.1-0.9,0.5
		c-0.6,1.9,0.2,3.9,1.9,4.8c0.4,0.2,0.8,0.1,1-0.3s0.1-0.8-0.3-1C-17.4-129.2-17.9-130.5-17.5-131.6z M-1.8-127.3
		c1.7-1,2.5-3,1.9-4.8c-0.1-0.4-0.6-0.6-0.9-0.5c-0.4,0.1-0.6,0.6-0.5,0.9l0,0c0.3,1.2-0.2,2.4-1.2,3c-0.4,0.2-0.5,0.7-0.3,1
		C-2.6-127.3-2.2-127.1-1.8-127.3L-1.8-127.3z M-6.5-131.5c-1.4,1.6-3.8,1.8-5.4,0.4c-0.1-0.1-0.3-0.2-0.4-0.4
		c-0.3-0.3-0.8-0.4-1.1-0.1c-0.3,0.3-0.4,0.8-0.1,1.1c1.9,2.2,5.3,2.5,7.5,0.6c0.2-0.2,0.4-0.4,0.6-0.6c0.3-0.3,0.2-0.8-0.1-1.1
		C-5.8-131.8-6.3-131.8-6.5-131.5L-6.5-131.5L-6.5-131.5z M-28.9-146.1c-0.3-0.2-0.8-0.1-1,0.2s-0.1,0.8,0.2,1c0,0,0.1,0,0.1,0.1
		c2.6,1.4,3.8,3.6,3.8,4.4c0,0.4,0.3,0.8,0.8,0.8s0.8-0.3,0.8-0.8C-24.4-142-26.1-144.6-28.9-146.1z M11.2-145.8
		c-0.2-0.4-0.6-0.5-1-0.3c-2.9,1.6-4.6,4.1-4.6,5.7c0,0.4,0.3,0.8,0.8,0.8s0.8-0.3,0.8-0.8c0-0.8,1.1-2.9,3.8-4.4
		C11.2-145,11.4-145.4,11.2-145.8C11.2-145.8,11.2-145.8,11.2-145.8z"/>
</g>
<g id="_x35_afeb38c-54b7-45cf-8e8f-6e00f7dcb161" transform="matrix(0.4959242904269749,0,0,0.4959242904269749,111.69879049937542,160.64609744192566)">
	<path d="M-68.4-242l-1.2-2.9H-74l-1.2,2.9h-0.7l3.7-9.2h0.8l3.7,9.2H-68.4z M-73.7-245.5h3.9l-1.6-4l-0.3-1h0l-0.3,1L-73.7-245.5z
		 M-55.6-246.5h3.8v4.5h-0.6l0-1.6l0,0c-0.3,0.6-0.6,1-1.2,1.3l0,0l0,0c-0.5,0.3-1.2,0.5-2,0.5l0,0l0,0c-0.8,0-1.6-0.2-2.2-0.6l0,0
		l0,0c-0.6-0.4-1.1-0.9-1.5-1.7l0,0l0,0c-0.3-0.7-0.5-1.6-0.5-2.5l0,0l0,0c0-1,0.2-1.8,0.5-2.5l0,0l0,0c0.3-0.7,0.8-1.3,1.5-1.7l0,0
		l0,0c0.6-0.4,1.4-0.6,2.2-0.6l0,0l0,0c0.9,0,1.7,0.2,2.3,0.6l0,0l0,0c0.6,0.4,1.1,0.9,1.4,1.7l0,0l-0.7,0.3l0,0
		c-0.2-0.6-0.6-1.1-1.1-1.5l0,0l0,0c-0.5-0.3-1.2-0.5-1.9-0.5l0,0l0,0c-0.7,0-1.3,0.2-1.8,0.5l0,0l0,0c-0.5,0.3-0.9,0.8-1.2,1.4l0,0
		l0,0c-0.3,0.6-0.4,1.4-0.4,2.2l0,0l0,0c0,1.3,0.3,2.3,0.9,3l0,0l0,0c0.6,0.7,1.5,1.1,2.5,1.1l0,0l0,0c0.7,0,1.2-0.1,1.7-0.4l0,0
		l0,0c0.5-0.3,0.8-0.6,1-1.1l0,0l0,0c0.2-0.4,0.3-0.9,0.3-1.4l0,0v-0.5h-3.1V-246.5z M-41.7-242.6h5.8v0.6h-6.5v-9.2h6.3v0.6h-5.6
		v3.6h4.4v0.7h-4.4V-242.6z M-19.7-251.2v9.2h-0.9l-4.9-7.3l-0.7-1.2h0l0,1.2v7.3h-0.7v-9.2h0.9l4.9,7.2l0.7,1.2l0-1.2v-7.3H-19.7z
		 M-2.5-244.3L-2.5-244.3c-0.3,0.8-0.7,1.4-1.4,1.8l0,0l0,0c-0.7,0.4-1.4,0.7-2.3,0.7l0,0l0,0c-0.8,0-1.6-0.2-2.2-0.6l0,0l0,0
		c-0.6-0.4-1.1-0.9-1.5-1.7l0,0l0,0c-0.3-0.7-0.5-1.6-0.5-2.5l0,0l0,0c0-1,0.2-1.8,0.5-2.5l0,0l0,0c0.3-0.7,0.8-1.3,1.5-1.7l0,0l0,0
		c0.6-0.4,1.4-0.6,2.2-0.6l0,0l0,0c1.8,0,3,0.8,3.6,2.3l0,0l-0.7,0.3l0,0c-0.2-0.7-0.6-1.1-1-1.5l0,0l0,0c-0.5-0.3-1.1-0.5-1.8-0.5
		l0,0l0,0c-0.7,0-1.3,0.2-1.8,0.5l0,0l0,0c-0.5,0.3-0.9,0.8-1.2,1.4l0,0l0,0c-0.3,0.6-0.4,1.4-0.4,2.2l0,0l0,0
		c0,0.8,0.1,1.6,0.4,2.2l0,0l0,0c0.3,0.6,0.7,1.1,1.2,1.4l0,0l0,0c0.5,0.3,1.1,0.5,1.8,0.5l0,0l0,0c0.7,0,1.4-0.2,1.9-0.5l0,0l0,0
		c0.5-0.4,0.9-0.9,1.1-1.6l0,0L-2.5-244.3z M7.3-242.6h5.8v0.6H6.6v-9.2h6.3v0.6H7.3v3.6h4.4v0.7H7.3V-242.6z M36.4-251.2
		L36.4-251.2c1.5,0,2.6,0.4,3.4,1.2l0,0l0,0c0.8,0.8,1.2,1.9,1.2,3.4l0,0l0,0c0,1.5-0.4,2.7-1.2,3.5l0,0l0,0
		c-0.8,0.8-1.9,1.2-3.4,1.2l0,0h-2.9v-9.2H36.4z M36.5-242.6L36.5-242.6c1.2,0,2.2-0.3,2.8-1l0,0l0,0c0.7-0.7,1-1.7,1-3l0,0l0,0
		c0-1.3-0.3-2.2-1-2.9l0,0l0,0c-0.7-0.7-1.6-1-2.8-1l0,0h-2.3v8H36.5z M51.1-242.6h5.8v0.6h-6.5v-9.2h6.3v0.6h-5.6v3.6h4.4v0.7h-4.4
		V-242.6z M81.9-248.5L80-242h-0.9l-2.9-9.2h0.8l2.6,8.7l2.4-8.7h0.8l2.4,8.7l2.6-8.7h0.7l-2.9,9.2h-0.9l-1.9-6.5l-0.5-2h0
		L81.9-248.5z M98.1-242.6h5.8v0.6h-6.5v-9.2h6.3v0.6h-5.6v3.6h4.4v0.7h-4.4V-242.6z M113-242v-9.2h3.3l0,0c1,0,1.8,0.2,2.3,0.6l0,0
		l0,0c0.5,0.4,0.7,1,0.7,1.8l0,0l0,0c0,0.5-0.1,1-0.4,1.4l0,0l0,0c-0.3,0.4-0.7,0.6-1.2,0.7l0,0v0l0,0c0.6,0.1,1.1,0.3,1.4,0.7l0,0
		l0,0c0.4,0.4,0.5,0.9,0.5,1.5l0,0l0,0c0,0.8-0.3,1.4-0.9,1.8l0,0l0,0c-0.6,0.4-1.4,0.7-2.4,0.7l0,0H113z M113.7-247h2.6l0,0
		c1.5,0,2.2-0.6,2.2-1.8l0,0l0,0c0-1.2-0.8-1.8-2.2-1.8l0,0h-2.6V-247z M113.7-242.6h2.7l0,0c0.8,0,1.4-0.2,1.8-0.5l0,0l0,0
		c0.4-0.3,0.6-0.8,0.6-1.4l0,0l0,0c0-0.6-0.2-1.1-0.6-1.4l0,0l0,0c-0.4-0.3-1-0.5-1.8-0.5l0,0h-2.7V-242.6z M143.2-251.2
		L143.2-251.2c1.5,0,2.6,0.4,3.4,1.2l0,0l0,0c0.8,0.8,1.2,1.9,1.2,3.4l0,0l0,0c0,1.5-0.4,2.7-1.2,3.5l0,0l0,0
		c-0.8,0.8-1.9,1.2-3.4,1.2l0,0h-2.9v-9.2H143.2z M143.2-242.6L143.2-242.6c1.2,0,2.2-0.3,2.8-1l0,0l0,0c0.7-0.7,1-1.7,1-3l0,0l0,0
		c0-1.3-0.3-2.2-1-2.9l0,0l0,0c-0.7-0.7-1.6-1-2.8-1l0,0h-2.3v8H143.2z M157.8-242.6h5.8v0.6h-6.5v-9.2h6.3v0.6h-5.6v3.6h4.4v0.7
		h-4.4V-242.6z M175.5-251.4L175.5-251.4c1.7,0,2.9,0.7,3.5,2l0,0l-0.6,0.5l0,0c-0.2-0.7-0.6-1.1-1.1-1.4l0,0l0,0
		c-0.5-0.3-1.1-0.4-1.8-0.4l0,0l0,0c-0.5,0-1,0.1-1.4,0.3l0,0l0,0c-0.4,0.2-0.7,0.4-0.9,0.7l0,0l0,0c-0.2,0.3-0.3,0.6-0.3,1l0,0l0,0
		c0,0.4,0.1,0.6,0.3,0.9l0,0l0,0c0.2,0.2,0.5,0.4,0.9,0.6l0,0l0,0c0.4,0.2,1,0.3,1.8,0.4l0,0l0,0c1.2,0.2,2.1,0.5,2.6,0.9l0,0l0,0
		c0.5,0.4,0.8,0.9,0.8,1.6l0,0l0,0c0,0.5-0.1,0.9-0.4,1.3l0,0l0,0c-0.3,0.4-0.7,0.7-1.2,0.9l0,0l0,0c-0.5,0.2-1.1,0.3-1.8,0.3l0,0
		l0,0c-1,0-1.8-0.2-2.4-0.6l0,0l0,0c-0.7-0.4-1.1-0.9-1.4-1.6l0,0l0.6-0.5l0,0c0.2,0.7,0.6,1.2,1.1,1.5l0,0l0,0
		c0.6,0.4,1.3,0.5,2.1,0.5l0,0l0,0c0.8,0,1.5-0.2,2-0.5l0,0l0,0c0.5-0.3,0.8-0.8,0.8-1.4l0,0l0,0c0-0.5-0.2-0.9-0.6-1.2l0,0l0,0
		c-0.4-0.3-1.1-0.5-2.2-0.7l0,0l0,0c-0.9-0.2-1.6-0.3-2.1-0.6l0,0l0,0c-0.5-0.2-0.9-0.5-1.1-0.8l0,0l0,0c-0.2-0.3-0.3-0.7-0.3-1.2
		l0,0l0,0c0-0.5,0.1-0.9,0.4-1.3l0,0l0,0c0.3-0.4,0.7-0.7,1.2-1l0,0l0,0C174.3-251.2,174.8-251.4,175.5-251.4L175.5-251.4z
		 M189-251.2v9.2h-0.7v-9.2H189z M202.5-246.5h3.8v4.5h-0.6l0-1.6l0,0c-0.3,0.6-0.6,1-1.2,1.3l0,0l0,0c-0.5,0.3-1.2,0.5-2,0.5l0,0
		l0,0c-0.8,0-1.6-0.2-2.2-0.6l0,0l0,0c-0.6-0.4-1.1-0.9-1.4-1.7l0,0l0,0c-0.3-0.7-0.5-1.6-0.5-2.5l0,0l0,0c0-1,0.2-1.8,0.5-2.5l0,0
		l0,0c0.4-0.7,0.8-1.3,1.5-1.7l0,0l0,0c0.6-0.4,1.4-0.6,2.2-0.6l0,0l0,0c0.9,0,1.7,0.2,2.3,0.6l0,0l0,0c0.6,0.4,1,0.9,1.3,1.7l0,0
		l-0.6,0.3l0,0c-0.2-0.6-0.6-1.1-1.1-1.5l0,0l0,0c-0.5-0.3-1.2-0.5-1.9-0.5l0,0l0,0c-0.7,0-1.3,0.2-1.8,0.5l0,0l0,0
		c-0.5,0.3-0.9,0.8-1.2,1.4l0,0l0,0c-0.3,0.6-0.4,1.4-0.4,2.2l0,0l0,0c0,1.3,0.3,2.3,0.9,3l0,0l0,0c0.6,0.7,1.5,1.1,2.5,1.1l0,0l0,0
		c0.7,0,1.2-0.1,1.7-0.4l0,0l0,0c0.5-0.3,0.8-0.6,1-1.1l0,0l0,0c0.2-0.4,0.3-0.9,0.3-1.4l0,0v-0.5h-3.1V-246.5z M222.9-251.2v9.2
		H222l-4.9-7.3l-0.7-1.2h0l0,1.2v7.3h-0.7v-9.2h0.9l4.9,7.2l0.7,1.2l0-1.2v-7.3H222.9z"/>
</g>
</svg>
