<?xml version="1.0" encoding="utf-8"?>
<!-- Generator: Adobe Illustrator 25.4.1, SVG Export Plug-In . SVG Version: 6.00 Build 0)  -->
<!DOCTYPE svg PUBLIC "-//W3C//DTD SVG 1.1//EN" "http://www.w3.org/Graphics/SVG/1.1/DTD/svg11.dtd" [
	<!ENTITY ns_extend "http://ns.adobe.com/Extensibility/1.0/">
	<!ENTITY ns_ai "http://ns.adobe.com/AdobeIllustrator/10.0/">
	<!ENTITY ns_graphs "http://ns.adobe.com/Graphs/1.0/">
	<!ENTITY ns_vars "http://ns.adobe.com/Variables/1.0/">
	<!ENTITY ns_imrep "http://ns.adobe.com/ImageReplacement/1.0/">
	<!ENTITY ns_sfw "http://ns.adobe.com/SaveForWeb/1.0/">
	<!ENTITY ns_custom "http://ns.adobe.com/GenericCustomNamespace/1.0/">
	<!ENTITY ns_adobe_xpath "http://ns.adobe.com/XPath/1.0/">
]>
<svg version="1.1" id="Layer_1" xmlns:x="&ns_extend;" xmlns:i="&ns_ai;" xmlns:graph="&ns_graphs;"
	 xmlns="http://www.w3.org/2000/svg" xmlns:xlink="http://www.w3.org/1999/xlink" x="0px" y="0px" viewBox="0 0 488 90"
	 style="enable-background:new 0 0 488 90;" xml:space="preserve">
<metadata>
	<sfw  xmlns="&ns_sfw;">
		<slices></slices>
		<sliceSourceBounds  bottomLeftOrigin="true" height="16383" width="487.324" x="0.676" y="-8146.945"></sliceSourceBounds>
	</sfw>
</metadata>
<g id="_x39_7221fff-9f5f-45e5-b2fa-fe4d6ef25df3" transform="matrix(1.2101654687240968,0,0,1.2101654687240968,-4.368992009843154,-14.702727655207887)">
	<path style="fill:#1D1D1B;" d="M44,46.07V46c-0.76-1.343-2.029-2.323-3.52-2.72h-0.14c-0.814-0.248-1.652-0.405-2.5-0.47
		c-2.293-0.307-4.489-1.12-6.43-2.38c-0.355-0.213-0.816-0.098-1.029,0.257c-0.197,0.328-0.115,0.751,0.189,0.983
		c0.641,0.414,1.31,0.785,2,1.11c0,0.1-0.09,0.2-0.12,0.31c-0.914,3.218,0.939,6.572,4.15,7.51c0.579,0.166,1.178,0.25,1.78,0.25
		c1.833,0.01,3.566-0.833,4.69-2.28c0.087,1.003,0.026,2.014-0.18,3c-0.157,0.383,0.026,0.821,0.41,0.978
		c0.02,0.008,0.04,0.015,0.06,0.022c0.079,0.013,0.161,0.013,0.24,0c0.322,0,0.607-0.205,0.71-0.51
		c0.321-1.342,0.398-2.731,0.23-4.1C44.488,47.3,44.305,46.657,44,46.07z M39.53,44.58c0.036,0.172,0.036,0.348,0,0.52
		c-0.196,0.699-0.921,1.106-1.62,0.91s-1.106-0.921-0.91-1.62c0.026-0.059,0.056-0.116,0.09-0.17l0.6,0.07
		c0.628,0.046,1.25,0.146,1.86,0.3L39.53,44.58z M40.47,48.83c-1.075,0.553-2.322,0.668-3.48,0.32
		c-2.43-0.702-3.835-3.238-3.14-5.67v-0.12c0.556,0.215,1.123,0.399,1.7,0.55v0.06c-0.468,1.474,0.347,3.048,1.821,3.516
		s3.048-0.347,3.516-1.821c0.054-0.171,0.092-0.347,0.113-0.525c0.6,0.304,1.11,0.759,1.48,1.32c-0.344,1.011-1.054,1.857-1.99,2.37
		H40.47z M67.57,43.07c0-0.11-0.08-0.2-0.12-0.31c0.69-0.325,1.359-0.696,2-1.11c0.33-0.251,0.394-0.721,0.143-1.051
		c-0.232-0.304-0.655-0.386-0.983-0.189c-1.941,1.26-4.137,2.073-6.43,2.38c-0.855,0.063-1.7,0.221-2.52,0.47h-0.12
		C58.038,43.657,56.761,44.645,56,46v0.05c-0.313,0.606-0.496,1.27-0.54,1.95c-0.168,1.369-0.091,2.758,0.23,4.1
		c0.103,0.305,0.388,0.51,0.71,0.51c0.414,0.007,0.756-0.323,0.763-0.737c0.002-0.09-0.013-0.179-0.043-0.263
		c-0.21-0.985-0.274-1.996-0.19-3c1.124,1.447,2.857,2.29,4.69,2.28c0.602,0,1.201-0.084,1.78-0.25
		c3.234-0.924,5.106-4.295,4.182-7.529C67.578,43.097,67.574,43.084,67.57,43.07z M62.27,44.29l0.6-0.07
		c0.034,0.054,0.064,0.111,0.09,0.17c0.193,0.687-0.204,1.401-0.89,1.6c-0.67,0.207-1.381-0.168-1.589-0.838
		c-0.057-0.185-0.071-0.381-0.041-0.572c0.604-0.149,1.22-0.246,1.84-0.29L62.27,44.29z M63,49.15
		c-1.158,0.348-2.405,0.233-3.48-0.32c-0.942-0.514-1.656-1.364-2-2.38c0.371-0.558,0.881-1.009,1.48-1.31
		c0.015,0.125,0.039,0.248,0.07,0.37c0.354,1.189,1.449,2.003,2.69,2c1.546-0.032,2.773-1.312,2.741-2.858
		c-0.005-0.22-0.035-0.439-0.091-0.652v-0.06c0.577-0.151,1.144-0.335,1.7-0.55v0.12C66.788,45.924,65.403,48.435,63,49.15z"/>
	<path style="fill:#1D1D1B;" d="M46.33,44.89c-0.16-2.25-2-3.68-5.15-3.92c-1.664-0.217-3.261-0.794-4.68-1.69
		c-0.345-0.229-0.811-0.135-1.04,0.21s-0.135,0.811,0.21,1.04c1.633,1.04,3.478,1.699,5.4,1.93c1.35,0.1,3.63,0.57,3.77,2.53
		c0.026,0.395,0.355,0.701,0.75,0.7h0.05C46.051,45.658,46.359,45.301,46.33,44.89z M59.31,42.46c1.922-0.231,3.767-0.89,5.4-1.93
		c0.345-0.229,0.439-0.695,0.21-1.04s-0.695-0.439-1.04-0.21c-1.42,0.908-3.02,1.495-4.69,1.72c-3.11,0.24-5,1.67-5.15,3.92
		c-0.028,0.413,0.283,0.771,0.697,0.8c0.001,0,0.002,0,0.003,0h0.05c0.395,0.001,0.724-0.305,0.75-0.7
		C55.68,43,58,42.57,59.31,42.46z M34.64,37.25c0.253,0.328,0.724,0.389,1.052,0.136s0.389-0.724,0.136-1.052
		c-0.009-0.012-0.018-0.023-0.028-0.034l-3.19-3.92c-0.253-0.328-0.724-0.389-1.052-0.136c-0.328,0.253-0.389,0.724-0.136,1.052
		c0.009,0.012,0.018,0.023,0.028,0.034L34.64,37.25z M38,35.08c0.112,0.289,0.39,0.48,0.7,0.48c0.414-0.004,0.747-0.343,0.743-0.757
		c-0.001-0.083-0.015-0.165-0.043-0.243l-1.41-3.68c-0.149-0.387-0.583-0.579-0.97-0.43s-0.579,0.583-0.43,0.97L38,35.08z M42,35.19
		c0.392,0.001,0.719-0.299,0.75-0.69L43,31.32c0.034-0.413-0.272-0.775-0.685-0.81c-0.002,0-0.003,0-0.005,0
		c-0.407-0.039-0.769,0.258-0.808,0.665c-0.001,0.008-0.001,0.017-0.002,0.025l-0.25,3.19c-0.028,0.413,0.285,0.771,0.698,0.798
		C41.966,35.189,41.983,35.19,42,35.19z"/>
	<path style="fill:#1D1D1B;" d="M95.31,61c-3.9-1.24-13.08-1.13-20.54-0.79c5-6.31,5-12.41,4.11-15.28
		c-0.68-2.15-1.73-7.57-0.39-9.68c0.248-0.43,0.687-0.716,1.18-0.77c1.76-0.23,2.08-2.06,2.33-3.52
		c0.068-0.523,0.185-1.039,0.35-1.54c0.302-0.54,0.718-1.008,1.22-1.37c1.401-1.118,2.495-2.574,3.18-4.23
		c1.59-3.91-0.54-5.84-0.63-5.92c-0.083-0.063-0.178-0.107-0.28-0.13H85.7c-1.636-0.427-3.375-0.163-4.81,0.73
		c-0.68,0.33-1.52,0.73-2.76,1.25c-2.67,1.345-5.903,0.812-8-1.32c-4.5-4.32-7.67-5.57-20.08-5.57s-15.54,1.26-20,5.57
		c-2.097,2.132-5.33,2.665-8,1.32c-0.932-0.39-1.852-0.806-2.76-1.25c-1.435-0.893-3.174-1.157-4.81-0.73h-0.14
		c-0.102,0.023-0.197,0.067-0.28,0.13c-0.09,0.08-2.22,2-0.63,5.92c0.685,1.656,1.779,3.112,3.18,4.23
		c0.501,0.363,0.918,0.83,1.22,1.37c0.106,0.52,0.163,1.049,0.17,1.58c0.25,1.47,0.56,3.29,2.33,3.52
		c0.493,0.054,0.932,0.34,1.18,0.77c1.34,2.11,0.29,7.53-0.39,9.68c-0.91,2.87-0.87,9,4.11,15.28c-7.46-0.34-16.64-0.45-20.54,0.79
		c-0.395,0.127-0.612,0.55-0.485,0.945c0.127,0.395,0.55,0.612,0.945,0.485c4.09-1.3,15-1,21.18-0.66h0.25l0.65,0.69
		c-7.68,0.11-12.89,0.64-15.5,1.58c-0.393,0.13-0.607,0.554-0.477,0.947s0.554,0.607,0.947,0.477
		c0.013-0.004,0.027-0.009,0.04-0.014c2.58-0.93,8.3-1.45,16.56-1.51c0.35,0.3,0.71,0.59,1.07,0.88c-6.47,0.36-17,1.21-21,3
		c-0.366,0.195-0.504,0.649-0.31,1.014c0.174,0.327,0.56,0.478,0.91,0.356c4.17-1.83,16.18-2.64,22.22-2.95l1,0.72l0.1,0.07
		C26.5,67.68,22.2,68.47,20,69.43c-0.366,0.195-0.504,0.649-0.31,1.014c0.174,0.327,0.56,0.478,0.91,0.356
		c2.07-0.91,6.45-1.69,12.72-2.28c-0.029,1.849,0.2,3.694,0.68,5.48c1.63,4.32,3.86,5.38,6.46,5.6c0.374,0.703,0.892,1.32,1.52,1.81
		c-1.398,1.266-2.548,2.782-3.39,4.47c-0.149,0.387,0.043,0.821,0.43,0.97s0.821-0.043,0.97-0.43c0.27-0.7,1.08-2,3.29-4.19
		c0.639,0.325,1.309,0.587,2,0.78c-0.485,1.088-0.796,2.245-0.92,3.43c-0.023,0.414,0.294,0.767,0.708,0.79c0.001,0,0.001,0,0.002,0
		c0.399,0.001,0.729-0.311,0.75-0.71c0.132-1.099,0.439-2.169,0.91-3.17c2.165,0.361,4.375,0.361,6.54,0
		c0.468,1.002,0.776,2.072,0.91,3.17c0.021,0.399,0.351,0.711,0.75,0.71c0.414-0.021,0.732-0.374,0.71-0.788
		c0-0.001,0-0.001,0-0.002c-0.114-1.186-0.414-2.347-0.89-3.44c0.691-0.193,1.361-0.455,2-0.78c2.21,2.19,3,3.49,3.29,4.19
		c0.149,0.387,0.583,0.579,0.97,0.43s0.579-0.583,0.43-0.97c-0.842-1.688-1.992-3.204-3.39-4.47c0.628-0.49,1.146-1.107,1.52-1.81
		c2.6-0.22,4.83-1.27,6.45-5.59c0.467-1.778,0.686-3.612,0.65-5.45c6.27,0.59,10.66,1.37,12.72,2.28
		c0.366,0.195,0.82,0.056,1.014-0.31c0.195-0.366,0.056-0.82-0.31-1.014c-0.034-0.018-0.069-0.033-0.105-0.046
		c-2.22-1-6.6-1.77-13-2.38l0.8-0.56l0.31-0.22c6,0.3,18.2,1.11,22.42,3c0.391,0.137,0.819-0.069,0.956-0.46
		c0.122-0.349-0.029-0.736-0.356-0.91c-4.06-1.78-14.61-2.62-21.07-3c0.38-0.287,0.75-0.58,1.11-0.88c8.28,0.05,14,0.57,16.59,1.51
		c0.393,0.13,0.817-0.084,0.947-0.477c0.125-0.378-0.067-0.787-0.437-0.933c-2.6-0.94-7.81-1.47-15.5-1.58l0.65-0.69h0.25
		c6.15-0.31,17.09-0.64,21.18,0.66c0.425,0.13,0.875-0.11,1.005-0.535C95.975,61.58,95.735,61.13,95.31,61z M53.31,79.91
		c-0.207-0.359-0.666-0.482-1.025-0.275s-0.482,0.666-0.275,1.025c0.16,0.27,0.39,0.7,0.64,1.2c-1.731,0.252-3.489,0.252-5.22,0
		c0.35-0.71,0.63-1.19,0.64-1.2c0.207-0.359,0.084-0.818-0.275-1.025s-0.818-0.084-1.025,0.275c0,0.06-0.42,0.73-0.87,1.66
		c-1.366-0.294-2.613-0.991-3.58-2h2.43c2.192-0.009,4.205-1.213,5.25-3.14c1.054,1.936,3.086,3.138,5.29,3.13h2.43
		c-0.967,1.009-2.214,1.706-3.58,2c-0.45-0.9-0.83-1.56-0.87-1.63L53.31,79.91z M70.41,62.65l-0.08,0.06c-0.84,0.7-1.77,1.38-2.68,2
		h-0.78C67,63,67.32,61.46,67.94,61c0.331-0.26,0.39-0.739,0.13-1.07S67.331,59.54,67,59.8c-1,0.83-1.44,2.64-1.63,4.83h-0.61
		c-0.403-0.022-0.747,0.286-0.769,0.689c-0.001,0.014-0.001,0.027-0.001,0.041c-0.011,0.414,0.315,0.759,0.729,0.77c0,0,0,0,0.001,0
		h0.56v0.74H65.1c-0.409-0.029-0.768,0.272-0.81,0.68c-0.035,0.411,0.269,0.773,0.68,0.81h0.21c0.029,1.7-0.159,3.397-0.56,5.05
		c-1.41,3.75-3.1,4.54-5.55,4.66h-3.78c-2.473-0.005-4.486-1.988-4.53-4.46c0.348-0.329,0.738-0.612,1.16-0.84
		c1-0.64,2.47-1.52,1.93-2.79c-0.19-0.44-0.06-0.65,1.66-1.82l0.63-0.43c0.747-0.401,1.237-1.155,1.3-2
		c-0.047-0.653-0.399-1.246-0.95-1.6c-0.338-0.206-0.779-0.109-1,0.22c-0.198,0.338-0.107,0.77,0.21,1
		c0.08,0.06,0.26,0.23,0.27,0.37s-0.17,0.41-0.66,0.75l-0.62,0.43c-1.63,1.1-2.91,2-2.2,3.57c-0.08,0.25-0.89,0.74-1.33,1
		c-0.393,0.231-0.771,0.488-1.13,0.77c-0.359-0.282-0.737-0.539-1.13-0.77c-0.476-0.261-0.922-0.573-1.33-0.93
		c0.71-1.67-0.58-2.54-2.2-3.65l-0.62-0.43c-0.48-0.34-0.66-0.61-0.66-0.75s0.18-0.31,0.26-0.37c0.336-0.242,0.412-0.711,0.17-1.047
		c-0.224-0.311-0.647-0.403-0.98-0.213c-0.551,0.354-0.903,0.947-0.95,1.6c0.063,0.845,0.553,1.599,1.3,2l0.63,0.43
		c1.73,1.17,1.85,1.38,1.66,1.82c-0.54,1.28,0.89,2.15,1.93,2.79c0.403,0.231,0.791,0.488,1.16,0.77c-0.011,2.5-2.04,4.52-4.54,4.52
		h-1.56c-3.72,0.09-6,0.14-7.78-4.66c-0.4-1.653-0.588-3.35-0.56-5.05h0.21c0.414-0.036,0.721-0.401,0.685-0.815
		s-0.401-0.721-0.815-0.685h-0.14v-0.74h0.56c0.414,0,0.75-0.336,0.75-0.75s-0.336-0.75-0.75-0.75h-0.61
		c-0.19-2.19-0.58-4-1.63-4.83c-0.351-0.284-0.866-0.231-1.15,0.12c-0.284,0.351-0.231,0.866,0.12,1.15c0.62,0.49,0.91,2,1.06,3.71
		h-0.95c-0.85-0.64-1.7-1.31-2.48-2c-0.043-0.053-0.094-0.101-0.15-0.14c-0.26-0.23-0.52-0.46-0.76-0.69l2.33,0.15h0.06
		c0.414,0.017,0.763-0.306,0.78-0.72s-0.306-0.763-0.72-0.78c0,0-1.57-0.12-4-0.25c-5.44-6.19-5.58-12.2-4.72-14.92
		c0-0.08,2.33-7.62,0.23-10.93c-0.482-0.782-1.29-1.307-2.2-1.43c-0.62-0.08-0.82-1-1-2.29c-0.085-0.626-0.233-1.243-0.44-1.84
		c-0.379-0.771-0.938-1.44-1.63-1.95c-1.229-0.962-2.187-2.226-2.78-3.67c-1-2.36-0.23-3.66,0.1-4.08
		c0.732-0.064,1.463,0.127,2.07,0.54c0.07,0.06,7.52,5.52,10.79,5.52H28c-3,2.15-4.76,4.9-4.76,7.59c0,0.414,0.336,0.75,0.75,0.75
		s0.75-0.336,0.75-0.75c0-2.81,2.6-5.89,6.63-7.86c1.568-0.234,3.084-0.738,4.48-1.49c0.366-0.194,0.505-0.648,0.312-1.014
		c-0.194-0.366-0.648-0.505-1.014-0.312c-0.009,0.005-0.019,0.01-0.028,0.015c-2.346,1.157-4.947,1.701-7.56,1.58
		c-1.25,0-3.64-1.21-5.86-2.55c3.157,1.419,6.864,0.73,9.3-1.73c4-3.82,6.49-5.15,19-5.15s15,1.34,19,5.15
		c1.522,1.55,3.598,2.432,5.77,2.45c1.178-0.017,2.344-0.248,3.44-0.68c-2.21,1.33-4.6,2.53-5.84,2.53
		c-2.613,0.121-5.214-0.423-7.56-1.58c-0.366-0.194-0.82-0.055-1.014,0.311c-0.188,0.355-0.063,0.796,0.284,0.999
		c1.404,0.762,2.93,1.273,4.51,1.51c4,2,6.63,5,6.63,7.86c0,0.414,0.336,0.75,0.75,0.75s0.75-0.336,0.75-0.75
		c0-2.7-1.77-5.45-4.76-7.59h0.44c3.27,0,10.72-5.46,10.79-5.52c0.605-0.411,1.332-0.601,2.06-0.54c0.33,0.43,1.05,1.73,0.1,4.08
		c-0.593,1.444-1.551,2.708-2.78,3.67c-0.692,0.51-1.251,1.179-1.63,1.95c-0.208,0.597-0.355,1.214-0.44,1.84
		c-0.23,1.33-0.42,2.21-1,2.29c-0.932,0.114-1.761,0.648-2.25,1.45c-2.11,3.31,0.2,10.86,0.23,10.93c0.87,2.73,0.72,8.74-4.72,14.92
		c-2.39,0.13-4,0.25-4,0.25c-0.414,0.017-0.737,0.366-0.72,0.78s0.366,0.737,0.78,0.72h0.06l2.33-0.15
		C71,62.17,70.69,62.41,70.41,62.65z"/>
	<path style="fill:#1D1D1B;" d="M64.77,37.53c0.226-0.001,0.439-0.104,0.58-0.28l3.19-3.92c0.272-0.313,0.238-0.786-0.074-1.058
		c-0.313-0.272-0.786-0.238-1.058,0.074c-0.009,0.011-0.019,0.022-0.028,0.034l-3.19,3.92c-0.26,0.323-0.208,0.795,0.114,1.054
		c0.132,0.106,0.296,0.165,0.466,0.166C64.77,37.52,64.77,37.53,64.77,37.53z M61.07,35.51c0.089,0.017,0.181,0.017,0.27,0
		c0.31,0,0.588-0.191,0.7-0.48l1.41-3.68c0.149-0.387-0.043-0.821-0.43-0.97s-0.821,0.043-0.97,0.43l-1.41,3.68
		c-0.173,0.376-0.008,0.822,0.368,0.995C61.028,35.494,61.049,35.502,61.07,35.51z M58,35.2c0.413-0.032,0.722-0.392,0.69-0.805
		c0-0.002,0-0.003,0-0.005l-0.25-3.19c-0.033-0.414-0.396-0.723-0.81-0.69c-0.414,0.033-0.723,0.396-0.69,0.81l0.25,3.19
		c0.032,0.413,0.392,0.722,0.805,0.69C57.997,35.2,57.998,35.2,58,35.2z"/>
	<circle style="fill:#1D1D1B;" cx="38.13" cy="69.84" r="1.05"/>
	<circle style="fill:#1D1D1B;" cx="38.48" cy="73.41" r="1.05"/>
	<circle style="fill:#1D1D1B;" cx="41.22" cy="75.76" r="1.05"/>
	<circle style="fill:#1D1D1B;" cx="42.14" cy="72.11" r="1.05"/>
	<circle style="fill:#1D1D1B;" cx="45.06" cy="73.95" r="1.05"/>
	<circle style="fill:#1D1D1B;" cx="61.87" cy="69.84" r="1.05"/>
	<circle style="fill:#1D1D1B;" cx="61.52" cy="73.41" r="1.05"/>
	<circle style="fill:#1D1D1B;" cx="58.78" cy="75.76" r="1.05"/>
	<circle style="fill:#1D1D1B;" cx="57.86" cy="72.11" r="1.05"/>
	<circle style="fill:#1D1D1B;" cx="54.94" cy="73.95" r="1.05"/>
	<path style="fill:#1D1D1B;" d="M53.56,52.5c-0.413-0.034-0.775,0.272-0.81,0.685c0,0.002,0,0.003,0,0.005
		c-0.283,2.055-1.252,3.954-2.75,5.39c-1.495-1.439-2.458-3.343-2.73-5.4c-0.033-0.414-0.396-0.723-0.81-0.69
		s-0.723,0.396-0.69,0.81c0.363,2.666,1.69,5.106,3.73,6.86c0.133,0.109,0.299,0.169,0.47,0.17c0.171-0.001,0.337-0.061,0.47-0.17
		c2.04-1.754,3.367-4.194,3.73-6.86C54.202,52.916,53.939,52.571,53.56,52.5z M40.37,55.2c-0.352-0.192-0.792-0.073-1,0.27
		c-0.2,0.35-0.46,0.72-0.73,1.11c-1.34,1.94-3.36,4.88-0.51,8c0.317,0.267,0.79,0.226,1.057-0.091
		c0.217-0.259,0.235-0.631,0.043-0.909c-1.89-2.05-0.93-3.82,0.64-6.1c0.29-0.43,0.57-0.83,0.79-1.21
		c0.222-0.349,0.12-0.813-0.23-1.035C40.411,55.222,40.391,55.211,40.37,55.2z M60.69,55.47c-0.207-0.359-0.666-0.482-1.025-0.275
		c-0.359,0.207-0.482,0.666-0.275,1.025c0.22,0.38,0.5,0.78,0.79,1.21c1.57,2.28,2.53,4.05,0.64,6.1
		c-0.317,0.267-0.358,0.74-0.091,1.057c0.267,0.317,0.74,0.358,1.057,0.091c0.051-0.043,0.097-0.093,0.135-0.148
		c2.85-3.09,0.83-6-0.51-8C61.16,56.19,60.9,55.82,60.69,55.47z M41.89,65c0.127-0.395-0.09-0.818-0.485-0.945
		s-0.818,0.09-0.945,0.485c-0.577,1.856,0.219,3.863,1.91,4.82c0.359,0.207,0.818,0.084,1.025-0.275s0.084-0.818-0.275-1.025
		C42.039,67.458,41.526,66.182,41.89,65z M57.62,69.33c1.691-0.957,2.487-2.964,1.91-4.82c-0.127-0.395-0.55-0.612-0.945-0.485
		s-0.612,0.55-0.485,0.945l0,0c0.348,1.173-0.163,2.431-1.23,3.03c-0.359,0.207-0.482,0.666-0.275,1.025s0.666,0.482,1.025,0.275
		V69.33z M52.88,65.15c-1.391,1.593-3.811,1.757-5.404,0.366c-0.13-0.114-0.252-0.236-0.366-0.366c-0.276-0.32-0.76-0.356-1.08-0.08
		c-0.32,0.276-0.356,0.76-0.08,1.08c1.912,2.231,5.27,2.49,7.501,0.579c0.207-0.178,0.401-0.371,0.579-0.579
		c0.276-0.32,0.24-0.804-0.08-1.08c-0.32-0.276-0.804-0.24-1.08,0.08l0,0H52.88z M30.51,50.52c-0.345-0.229-0.811-0.135-1.04,0.21
		s-0.135,0.811,0.21,1.04c0.035,0.023,0.071,0.043,0.109,0.06c2.63,1.45,3.77,3.59,3.77,4.36c0,0.414,0.336,0.75,0.75,0.75
		s0.75-0.336,0.75-0.75C35.06,54.64,33.36,52.09,30.51,50.52z M70.59,50.82c-0.198-0.354-0.64-0.486-1-0.3
		C66.72,52.09,65,54.64,65,56.2c0,0.414,0.336,0.75,0.75,0.75s0.75-0.336,0.75-0.75c0-0.77,1.14-2.92,3.77-4.36
		c0.369-0.189,0.514-0.641,0.325-1.009C70.594,50.827,70.592,50.823,70.59,50.82z"/>
</g>
<g id="_x34_09599fb-89aa-4ddd-9c19-604f11e9ffd0" transform="matrix(4.357298631868611,0,0,4.357298631868611,127.58696443664917,-10.718954323777375)">
	<path d="M1.54,18.032L1.54,18.032L1.54,18.032c-0.087-0.227-0.13-0.54-0.13-0.94l0,0l0,0c0-0.4,0.137-1.587,0.41-3.56l0,0l0,0
		c0.273-1.967,0.41-3.547,0.41-4.74l0,0l0,0c0-0.28-0.02-0.663-0.06-1.15l0,0l0,0c0.707,0.04,1.15,0.207,1.33,0.5l0,0l0,0
		c0.093,0.173,0.153,0.337,0.18,0.49l0,0l0,0c0.027,0.153,0.04,0.397,0.04,0.73l0,0l0,0c0,0.327-0.15,1.57-0.45,3.73l0,0l0,0
		c-0.307,2.16-0.463,3.7-0.47,4.62l0,0l0,0c0.047-0.013,0.13-0.02,0.25-0.02l0,0l0,0c2.02,0,3.523-0.14,4.51-0.42l0,0l0,0
		c-0.067,0.54-0.25,0.96-0.55,1.26l0,0l0,0c-0.307,0.3-0.687,0.45-1.14,0.45l0,0l0,0c-0.133,0-0.537-0.03-1.21-0.09l0,0l0,0
		c-0.68-0.06-1.337-0.09-1.97-0.09l0,0l0,0c-0.633,0-1.27,0.06-1.91,0.18l0,0l0,0C0.907,18.568,1.16,18.252,1.54,18.032z
		 M10.75,13.392L10.75,13.392L10.75,13.392c-0.267,0.467-0.473,0.947-0.62,1.44l0,0l0,0c-0.147,0.487-0.22,0.957-0.22,1.41l0,0l0,0
		c0,0.447,0.1,0.827,0.3,1.14l0,0l0,0c0.2,0.313,0.487,0.47,0.86,0.47l0,0l0,0c0.527,0,1.017-0.287,1.47-0.86l0,0l0,0
		c0.46-0.58,0.813-1.277,1.06-2.09l0,0l0,0c0.247-0.82,0.37-1.577,0.37-2.27l0,0l0,0c0-0.693-0.027-1.263-0.08-1.71l0,0l0,0
		c0.22-0.02,0.36-0.03,0.42-0.03l0,0l0,0c0.793,0,1.19,0.407,1.19,1.22l0,0l0,0c0,0.173-0.113,0.893-0.34,2.16l0,0l0,0
		c-0.22,1.267-0.33,2.28-0.33,3.04l0,0l0,0c0,0.76,0.143,1.433,0.43,2.02l0,0l0,0c-0.587-0.12-1.013-0.38-1.28-0.78l0,0l0,0
		c-0.267-0.393-0.4-0.963-0.4-1.71l0,0l0,0c0-0.133,0.02-0.387,0.06-0.76l0,0l0,0c-0.253,0.887-0.697,1.6-1.33,2.14l0,0l0,0
		c-0.64,0.547-1.263,0.82-1.87,0.82l0,0l0,0c-0.613,0-1.107-0.233-1.48-0.7l0,0l0,0c-0.373-0.46-0.56-1.097-0.56-1.91l0,0l0,0
		c0-0.82,0.153-1.62,0.46-2.4l0,0l0,0c0.3-0.78,0.757-1.453,1.37-2.02l0,0l0,0c0.607-0.573,1.29-0.86,2.05-0.86l0,0l0,0
		c0.327,0,0.687,0.067,1.08,0.2l0,0l0,0c-0.553,0.14-1.06,0.397-1.52,0.77l0,0l0,0C11.387,12.495,11.023,12.918,10.75,13.392z
		 M24.84,9.142L24.84,9.142l0.01,0.17l0,0c0,0.353-0.133,1.513-0.4,3.48l0,0l0,0c-0.267,1.96-0.4,3.6-0.4,4.92l0,0l0,0
		c0,0.587,0.03,1.043,0.09,1.37l0,0l0,0c-0.227,0.02-0.35,0.03-0.37,0.03l0,0l0,0c-0.42,0-0.733-0.097-0.94-0.29l0,0l0,0
		c-0.2-0.193-0.3-0.507-0.3-0.94l0,0l0,0c0-0.433,0.157-1.76,0.47-3.98l0,0l0,0c0.307-2.213,0.46-3.793,0.46-4.74l0,0l0,0
		c0-0.947-0.063-1.567-0.19-1.86l0,0l0,0c0.3,0.04,0.577,0.157,0.83,0.35l0,0l0,0c0.26,0.187,0.453,0.44,0.58,0.76l0,0l0,0
		c0.713-0.38,1.507-0.57,2.38-0.57l0,0l0,0c0.867,0,1.55,0.267,2.05,0.8l0,0l0,0c0.5,0.54,0.75,1.2,0.75,1.98l0,0l0,0
		c0,1-0.363,1.9-1.09,2.7l0,0l0,0c-0.727,0.793-1.707,1.19-2.94,1.19l0,0l0,0c-0.28,0-0.537-0.017-0.77-0.05l0,0l-0.04-0.45l0,0
		c0.627,0,1.173-0.093,1.64-0.28l0,0l0,0c0.467-0.187,0.82-0.433,1.06-0.74l0,0l0,0c0.473-0.6,0.71-1.3,0.71-2.1l0,0l0,0
		c0-0.58-0.183-1.063-0.55-1.45l0,0l0,0c-0.367-0.387-0.9-0.58-1.6-0.58l0,0l0,0C25.86,8.862,25.38,8.955,24.84,9.142z
		 M32.96,13.392L32.96,13.392L32.96,13.392c-0.273,0.467-0.483,0.947-0.63,1.44l0,0l0,0c-0.14,0.487-0.21,0.957-0.21,1.41l0,0l0,0
		c0,0.447,0.1,0.827,0.3,1.14l0,0l0,0c0.2,0.313,0.487,0.47,0.86,0.47l0,0l0,0c0.52,0,1.01-0.287,1.47-0.86l0,0l0,0
		c0.453-0.58,0.803-1.277,1.05-2.09l0,0l0,0c0.253-0.82,0.38-1.577,0.38-2.27l0,0l0,0c0-0.693-0.03-1.263-0.09-1.71l0,0l0,0
		c0.227-0.02,0.367-0.03,0.42-0.03l0,0l0,0c0.793,0,1.19,0.407,1.19,1.22l0,0l0,0c0,0.173-0.11,0.893-0.33,2.16l0,0l0,0
		c-0.227,1.267-0.34,2.28-0.34,3.04l0,0l0,0c0,0.76,0.143,1.433,0.43,2.02l0,0l0,0c-0.587-0.12-1.013-0.38-1.28-0.78l0,0l0,0
		c-0.267-0.393-0.4-0.963-0.4-1.71l0,0l0,0c0-0.133,0.02-0.387,0.06-0.76l0,0l0,0c-0.253,0.887-0.697,1.6-1.33,2.14l0,0l0,0
		c-0.633,0.547-1.257,0.82-1.87,0.82l0,0l0,0c-0.613,0-1.107-0.233-1.48-0.7l0,0l0,0c-0.373-0.46-0.56-1.097-0.56-1.91l0,0l0,0
		c0-0.82,0.153-1.62,0.46-2.4l0,0l0,0c0.3-0.78,0.757-1.453,1.37-2.02l0,0l0,0c0.613-0.573,1.297-0.86,2.05-0.86l0,0l0,0
		c0.327,0,0.687,0.067,1.08,0.2l0,0l0,0c-0.553,0.14-1.057,0.397-1.51,0.77l0,0l0,0C33.59,12.495,33.227,12.918,32.96,13.392z
		 M46.35,12.782L46.35,12.782L46.35,12.782c0,0.427-0.09,1.183-0.27,2.27l0,0l0,0c-0.18,1.087-0.27,1.88-0.27,2.38l0,0l0,0
		c0,0.493,0.06,0.85,0.18,1.07l0,0l0,0c0.12,0.22,0.327,0.407,0.62,0.56l0,0l0,0c-0.127,0.013-0.3,0.02-0.52,0.02l0,0l0,0
		c-0.633,0-1.083-0.12-1.35-0.36l0,0l0,0c-0.267-0.24-0.4-0.667-0.4-1.28l0,0l0,0c0-0.347,0.093-1.043,0.28-2.09l0,0l0,0
		c0.187-1.053,0.28-1.827,0.28-2.32l0,0l0,0c0-0.613-0.187-0.92-0.56-0.92l0,0l0,0c-0.6,0-1.22,0.527-1.86,1.58l0,0l0,0
		c-0.64,1.053-0.96,2.323-0.96,3.81l0,0l0,0c0,0.587,0.03,1.043,0.09,1.37l0,0l0,0c-0.247,0.02-0.393,0.03-0.44,0.03l0,0l0,0
		c-0.82,0-1.23-0.403-1.23-1.21l0,0l0,0c0-0.187,0.1-0.903,0.3-2.15l0,0l0,0c0.193-1.253,0.29-2.25,0.29-2.99l0,0l0,0
		c0-0.747-0.08-1.43-0.24-2.05l0,0l0,0c0.553,0.213,0.94,0.517,1.16,0.91l0,0l0,0c0.22,0.4,0.33,0.853,0.33,1.36l0,0l0,0
		c0,0.507-0.057,1.097-0.17,1.77l0,0l0,0c0.307-1.053,0.79-1.94,1.45-2.66l0,0l0,0c0.653-0.727,1.267-1.09,1.84-1.09l0,0l0,0
		C45.867,10.792,46.35,11.455,46.35,12.782z M53.06,11.202L53.06,11.202L53.06,11.202c0,0.387-0.073,0.657-0.22,0.81l0,0l0,0
		c-0.153,0.147-0.373,0.22-0.66,0.22l0,0h-1.01l0,0c-0.04,0.247-0.137,0.827-0.29,1.74l0,0l0,0c-0.32,1.733-0.48,3.043-0.48,3.93
		l0,0l0,0c0,0.887,0.067,1.477,0.2,1.77l0,0l0,0c-0.533-0.2-0.913-0.497-1.14-0.89l0,0l0,0c-0.22-0.4-0.33-0.883-0.33-1.45l0,0l0,0
		c0-0.573,0.033-1.113,0.1-1.62l0,0l0,0c0.073-0.507,0.173-1.1,0.3-1.78l0,0l0,0c0.133-0.687,0.227-1.233,0.28-1.64l0,0l0,0
		c-0.533,0.073-1.057,0.223-1.57,0.45l0,0l0,0c-0.013-0.153-0.02-0.29-0.02-0.41l0,0l0,0c0-0.447,0.147-0.747,0.44-0.9l0,0l0,0
		c0.3-0.153,0.73-0.23,1.29-0.23l0,0l0,0c0.067-0.693,0.1-1.21,0.1-1.55l0,0l0,0c0-0.34-0.003-0.613-0.01-0.82l0,0l0,0
		c0-0.207,0-0.36,0-0.46l0,0l0,0c0.427,0.067,0.757,0.257,0.99,0.57l0,0l0,0c0.233,0.307,0.35,0.733,0.35,1.28l0,0l0,0
		c0,0.28-0.023,0.62-0.07,1.02l0,0l0,0c0.813,0,1.387-0.137,1.72-0.41l0,0l0,0C53.05,10.965,53.06,11.088,53.06,11.202z
		 M55.69,14.542L55.69,14.542c0.307-1.053,0.78-1.94,1.42-2.66l0,0l0,0c0.64-0.727,1.24-1.09,1.8-1.09l0,0l0,0
		c0.56,0,0.957,0.17,1.19,0.51l0,0l0,0c0.233,0.34,0.35,0.803,0.35,1.39l0,0l0,0c0,0.58-0.09,1.397-0.27,2.45l0,0l0,0
		c-0.18,1.06-0.27,1.83-0.27,2.31l0,0l0,0c0,0.48,0.06,0.83,0.18,1.05l0,0l0,0c0.12,0.22,0.323,0.407,0.61,0.56l0,0l0,0
		c-0.12,0.013-0.29,0.02-0.51,0.02l0,0l0,0c-0.6,0-1.043-0.123-1.33-0.37l0,0l0,0c-0.28-0.247-0.42-0.67-0.42-1.27l0,0l0,0
		c0-0.347,0.093-1.043,0.28-2.09l0,0l0,0c0.187-1.053,0.28-1.827,0.28-2.32l0,0l0,0c0-0.613-0.217-0.92-0.65-0.92l0,0l0,0
		c-0.253,0-0.533,0.133-0.84,0.4l0,0l0,0c-0.307,0.26-0.603,0.617-0.89,1.07l0,0l0,0c-0.28,0.453-0.517,1.03-0.71,1.73l0,0l0,0
		c-0.193,0.693-0.29,1.377-0.29,2.05l0,0l0,0c0,0.68,0.03,1.183,0.09,1.51l0,0l0,0c-0.227,0.02-0.353,0.03-0.38,0.03l0,0l0,0
		c-0.44,0-0.763-0.093-0.97-0.28l0,0l0,0c-0.213-0.187-0.32-0.48-0.32-0.88l0,0l0,0c0-0.393,0.083-1.157,0.25-2.29l0,0l0,0
		c0.493-3.473,0.74-6.11,0.74-7.91l0,0l0,0c0-0.813-0.053-1.36-0.16-1.64l0,0l0,0c0.54,0.2,0.92,0.49,1.14,0.87l0,0l0,0
		c0.22,0.387,0.33,0.913,0.33,1.58l0,0l0,0c0,0.467-0.093,1.447-0.28,2.94l0,0l0,0C55.88,12.785,55.757,13.868,55.69,14.542
		L55.69,14.542z M66.28,11.522L66.28,11.522L66.28,11.522c-0.56,0-1.033,0.32-1.42,0.96l0,0l0,0c-0.393,0.647-0.653,1.403-0.78,2.27
		l0,0h0.39l0,0c0.493,0,0.923-0.07,1.29-0.21l0,0l0,0c0.36-0.14,0.64-0.32,0.84-0.54l0,0l0,0c0.373-0.433,0.56-0.92,0.56-1.46l0,0
		l0,0c0-0.307-0.073-0.553-0.22-0.74l0,0l0,0C66.793,11.615,66.573,11.522,66.28,11.522z M68.25,17.192L68.25,17.192
		c-0.427,0.7-0.897,1.19-1.41,1.47l0,0l0,0c-0.513,0.28-1.11,0.42-1.79,0.42l0,0l0,0c-0.673,0-1.263-0.3-1.77-0.9l0,0l0,0
		c-0.507-0.593-0.76-1.433-0.76-2.52l0,0l0,0c0-1.233,0.333-2.333,1-3.3l0,0l0,0c0.327-0.467,0.753-0.847,1.28-1.14l0,0l0,0
		c0.527-0.287,1.107-0.43,1.74-0.43l0,0l0,0c1.4,0,2.1,0.677,2.1,2.03l0,0l0,0c0,0.813-0.313,1.45-0.94,1.91l0,0l0,0
		c-0.633,0.46-1.363,0.69-2.19,0.69l0,0l0,0c-0.553,0-1.05-0.05-1.49-0.15l0,0l0,0c-0.007,0.093-0.01,0.237-0.01,0.43l0,0l0,0
		c0,1.653,0.49,2.48,1.47,2.48l0,0l0,0c0.92,0,1.67-0.457,2.25-1.37l0,0l0,0C68.077,16.858,68.25,16.985,68.25,17.192L68.25,17.192z
		 M67.97,9.742L67.97,9.742L67.97,9.742c-0.007,0.1-0.057,0.197-0.15,0.29l0,0l0,0c-0.087,0.087-0.187,0.143-0.3,0.17l0,0l0,0
		c-0.333-0.42-0.763-0.833-1.29-1.24l0,0l0,0c-0.527-0.413-1.063-0.703-1.61-0.87l0,0l0,0c0.02-0.487,0.247-0.87,0.68-1.15l0,0l0,0
		c0.493,0.193,1.003,0.58,1.53,1.16l0,0l0,0C67.357,8.675,67.737,9.222,67.97,9.742z M72.1,14.322L72.1,14.322
		c0.333-1.213,0.737-2.107,1.21-2.68l0,0l0,0c0.473-0.573,0.913-0.86,1.32-0.86l0,0l0,0c0.407,0,0.71,0.15,0.91,0.45l0,0l0,0
		c0.207,0.307,0.31,0.693,0.31,1.16l0,0l0,0c0,0.467-0.12,0.87-0.36,1.21l0,0l0,0c-0.247,0.34-0.603,0.51-1.07,0.51l0,0l0,0
		c-0.147,0-0.263-0.01-0.35-0.03l0,0l0,0c0.32-0.46,0.48-0.927,0.48-1.4l0,0l0,0c0-0.333-0.137-0.5-0.41-0.5l0,0l0,0
		c-0.213,0-0.44,0.123-0.68,0.37l0,0l0,0c-0.247,0.253-0.48,0.603-0.7,1.05l0,0l0,0c-0.227,0.453-0.413,1.037-0.56,1.75l0,0l0,0
		c-0.153,0.72-0.23,1.497-0.23,2.33l0,0l0,0c0,0.093,0.023,0.49,0.07,1.19l0,0l0,0c-0.24,0.02-0.38,0.03-0.42,0.03l0,0l0,0
		c-0.82,0-1.23-0.403-1.23-1.21l0,0l0,0c0-0.187,0.1-0.903,0.3-2.15l0,0l0,0c0.193-1.253,0.29-2.25,0.29-2.99l0,0l0,0
		c0-0.747-0.08-1.43-0.24-2.05l0,0l0,0c0.553,0.213,0.94,0.517,1.16,0.91l0,0l0,0c0.22,0.4,0.33,0.863,0.33,1.39l0,0l0,0
		C72.23,13.328,72.187,13.835,72.1,14.322L72.1,14.322z M80.35,11.522L80.35,11.522L80.35,11.522c-0.56,0-1.037,0.32-1.43,0.96l0,0
		l0,0c-0.387,0.647-0.643,1.403-0.77,2.27l0,0h0.39l0,0c0.493,0,0.923-0.07,1.29-0.21l0,0l0,0c0.36-0.14,0.64-0.32,0.84-0.54l0,0
		l0,0c0.373-0.433,0.56-0.92,0.56-1.46l0,0l0,0c0-0.307-0.073-0.553-0.22-0.74l0,0l0,0C80.863,11.615,80.643,11.522,80.35,11.522z
		 M82.32,17.192L82.32,17.192c-0.427,0.7-0.897,1.19-1.41,1.47l0,0l0,0c-0.513,0.28-1.11,0.42-1.79,0.42l0,0l0,0
		c-0.673,0-1.263-0.3-1.77-0.9l0,0l0,0c-0.507-0.593-0.76-1.433-0.76-2.52l0,0l0,0c0-1.233,0.333-2.333,1-3.3l0,0l0,0
		c0.327-0.467,0.753-0.847,1.28-1.14l0,0l0,0c0.527-0.287,1.107-0.43,1.74-0.43l0,0l0,0c1.4,0,2.1,0.677,2.1,2.03l0,0l0,0
		c0,0.813-0.313,1.45-0.94,1.91l0,0l0,0c-0.633,0.46-1.363,0.69-2.19,0.69l0,0l0,0c-0.553,0-1.05-0.05-1.49-0.15l0,0l0,0
		c-0.007,0.093-0.01,0.237-0.01,0.43l0,0l0,0c0,1.653,0.49,2.48,1.47,2.48l0,0l0,0c0.92,0,1.67-0.457,2.25-1.37l0,0l0,0
		C82.147,16.858,82.32,16.985,82.32,17.192L82.32,17.192z"/>
</g>
</svg>
