<svg xmlns="http://www.w3.org/2000/svg" viewBox="0 0 488 90" xml:space="preserve">
  <g transform="matrix(1.21017 0 0 1.21017 -4.37 -14.7)" fill="#1d1d1b">
    <path d="M44 46.07V46a5.74 5.74 0 0 0-3.52-2.72h-.14c-.81-.25-1.65-.4-2.5-.47-2.3-.3-4.49-1.12-6.43-2.38a.75.75 0 0 0-.84 1.24c.64.41 1.31.78 2 1.11 0 .1-.09.2-.12.31a6.1 6.1 0 0 0 5.93 7.76 5.9 5.9 0 0 0 4.69-2.28c.09 1 .03 2.01-.18 3-.16.38.03.82.41.98l.06.02h.24c.32 0 .6-.2.71-.51.32-1.34.4-2.73.23-4.1a4.94 4.94 0 0 0-.54-1.89zm-4.47-1.49c.04.17.04.35 0 .52a1.31 1.31 0 1 1-2.53-.71l.09-.17.6.07c.63.05 1.25.15 1.86.3l-.02-.01zm.94 4.25a4.67 4.67 0 0 1-3.48.32 4.59 4.59 0 0 1-3.14-5.67v-.12c.56.21 1.12.4 1.7.55v.06A2.8 2.8 0 1 0 41 45.14c.6.3 1.11.76 1.48 1.32a4.27 4.27 0 0 1-1.99 2.37h-.02zm27.1-5.76c0-.11-.08-.2-.12-.31.69-.33 1.36-.7 2-1.11a.75.75 0 0 0-.84-1.24 15.61 15.61 0 0 1-6.43 2.38c-.86.06-1.7.22-2.52.47h-.12A5.74 5.74 0 0 0 56 46v.05c-.31.6-.5 1.27-.54 1.95-.17 1.37-.1 2.76.23 4.1.1.3.39.51.71.51a.75.75 0 0 0 .72-1c-.21-.98-.27-2-.19-3a5.9 5.9 0 0 0 4.69 2.28 6.09 6.09 0 0 0 5.96-7.78l-.01-.04zm-5.3 1.22.6-.07.09.17c.2.69-.2 1.4-.89 1.6a1.27 1.27 0 0 1-1.63-1.41c.6-.15 1.22-.25 1.84-.29h-.01zm.73 4.86c-1.16.35-2.4.23-3.48-.32a4.27 4.27 0 0 1-2-2.38c.37-.56.88-1 1.48-1.31a2.8 2.8 0 0 0 2.76 2.37A2.8 2.8 0 0 0 64.41 44v-.06c.58-.15 1.14-.34 1.7-.55v.12A4.59 4.59 0 0 1 63 49.15z"/>
    <path d="M46.33 44.89c-.16-2.25-2-3.68-5.15-3.92-1.66-.22-3.26-.8-4.68-1.69a.75.75 0 0 0-.83 1.25 12.92 12.92 0 0 0 5.4 1.93c1.35.1 3.63.57 3.77 2.53.03.4.35.7.75.7h.05a.75.75 0 0 0 .69-.8zm12.98-2.43c1.92-.23 3.77-.89 5.4-1.93a.75.75 0 0 0-.83-1.25c-1.42.9-3.02 1.5-4.69 1.72-3.11.24-5 1.67-5.15 3.92-.03.41.28.77.7.8h.05c.4 0 .72-.3.75-.7.14-2.02 2.46-2.45 3.77-2.56zm-24.67-5.21a.75.75 0 1 0 1.16-.95l-3.19-3.92a.75.75 0 1 0-1.16.95l3.19 3.92zM38 35.08c.11.29.39.48.7.48a.75.75 0 0 0 .7-1l-1.41-3.68a.75.75 0 1 0-1.4.54L38 35.08zm4 .11c.4 0 .72-.3.75-.69l.25-3.18a.75.75 0 0 0-.69-.81.74.74 0 0 0-.8.67l-.01.02-.25 3.19c-.03.41.28.77.7.8H42z"/>
    <path d="M95.31 61c-3.9-1.24-13.08-1.13-20.54-.79 5-6.31 5-12.41 4.11-15.28-.68-2.15-1.73-7.57-.39-9.68.25-.43.69-.72 1.18-.77 1.76-.23 2.08-2.06 2.33-3.52.07-.52.19-1.04.35-1.54.3-.54.72-1 1.22-1.37a10.6 10.6 0 0 0 3.18-4.23c1.59-3.91-.54-5.84-.63-5.92a.73.73 0 0 0-.28-.13h-.14a6.16 6.16 0 0 0-4.81.73c-.68.33-1.52.73-2.76 1.25a6.88 6.88 0 0 1-8-1.32c-4.5-4.32-7.67-5.57-20.08-5.57s-15.54 1.26-20 5.57a6.88 6.88 0 0 1-8 1.32 51.8 51.8 0 0 1-2.76-1.25 6.16 6.16 0 0 0-4.81-.73h-.14c-.1.02-.2.07-.28.13-.09.08-2.22 2-.63 5.92a10.6 10.6 0 0 0 3.18 4.23c.5.36.92.83 1.22 1.37.1.52.16 1.05.17 1.58.25 1.47.56 3.29 2.33 3.52.5.05.93.34 1.18.77 1.34 2.11.29 7.53-.39 9.68-.91 2.87-.87 9 4.11 15.28-7.46-.34-16.64-.45-20.54.79a.75.75 0 1 0 .46 1.43c4.09-1.3 15-1 21.18-.66h.25l.65.69c-7.68.11-12.89.64-15.5 1.58a.75.75 0 1 0 .51 1.41c2.58-.93 8.3-1.45 16.56-1.51l1.07.88c-6.47.36-17 1.21-21 3a.75.75 0 0 0 .6 1.37c4.17-1.83 16.18-2.64 22.22-2.95l1 .72.1.07c-6.29.61-10.59 1.4-12.79 2.36a.75.75 0 0 0 .6 1.37c2.07-.91 6.45-1.69 12.72-2.28-.03 1.85.2 3.7.68 5.48 1.63 4.32 3.86 5.38 6.46 5.6.37.7.9 1.32 1.52 1.81a15.16 15.16 0 0 0-3.39 4.47.75.75 0 1 0 1.4.54c.27-.7 1.08-2 3.29-4.19.64.32 1.3.59 2 .78-.48 1.09-.8 2.24-.92 3.43-.02.41.3.77.7.79h.01c.4 0 .73-.31.75-.71.13-1.1.44-2.17.91-3.17 2.17.36 4.38.36 6.54 0 .47 1 .78 2.07.91 3.17.02.4.35.71.75.71a.75.75 0 0 0 .71-.79 11.33 11.33 0 0 0-.89-3.44c.7-.2 1.36-.45 2-.78 2.21 2.19 3 3.49 3.29 4.19a.75.75 0 1 0 1.4-.54c-.84-1.69-2-3.2-3.39-4.47a5.68 5.68 0 0 0 1.52-1.81c2.6-.22 4.83-1.27 6.45-5.59.47-1.78.69-3.61.65-5.45 6.27.59 10.66 1.37 12.72 2.28a.75.75 0 1 0 .6-1.37c-2.22-1-6.6-1.77-13-2.38l.8-.56.3-.22c6 .3 18.2 1.11 22.43 3a.75.75 0 0 0 .6-1.37c-4.06-1.78-14.61-2.62-21.07-3 .38-.29.75-.58 1.1-.88 8.29.05 14 .57 16.6 1.51a.75.75 0 0 0 .5-1.41c-2.6-.94-7.8-1.47-15.5-1.58l.66-.69h.25c6.15-.31 17.09-.64 21.18.66A.8.8 0 0 0 95.3 61zm-42 18.91a.75.75 0 0 0-1.3.75c.16.27.39.7.64 1.2-1.73.25-3.49.25-5.22 0 .35-.71.63-1.19.64-1.2a.75.75 0 0 0-1.3-.75c0 .06-.42.73-.87 1.66a7 7 0 0 1-3.58-2h2.43A6 6 0 0 0 50 76.43a6 6 0 0 0 5.29 3.13h2.43a7 7 0 0 1-3.58 2c-.45-.9-.83-1.56-.87-1.63l.04-.02zm17.1-17.26-.08.06a35.2 35.2 0 0 1-2.68 2h-.78c.13-1.71.45-3.25 1.07-3.71a.76.76 0 0 0-.94-1.2c-1 .83-1.44 2.64-1.63 4.83h-.61a.73.73 0 0 0-.77.69v.04c-.01.41.32.76.73.77h.56v.74h-.18a.76.76 0 0 0-.81.68c-.04.41.27.77.68.81h.21c.03 1.7-.16 3.4-.56 5.05-1.41 3.75-3.1 4.54-5.55 4.66h-3.78a4.54 4.54 0 0 1-4.53-4.46c.35-.33.74-.61 1.16-.84 1-.64 2.47-1.52 1.93-2.79-.19-.44-.06-.65 1.66-1.82l.63-.43a2.48 2.48 0 0 0 1.3-2 2.08 2.08 0 0 0-.95-1.6.74.74 0 0 0-1 .22c-.2.34-.1.77.21 1 .08.06.26.23.27.37s-.17.41-.66.75l-.62.43c-1.63 1.1-2.91 2-2.2 3.57-.08.25-.89.74-1.33 1-.4.23-.77.49-1.13.77-.36-.28-.74-.54-1.13-.77a7.48 7.48 0 0 1-1.33-.93c.71-1.67-.58-2.54-2.2-3.65l-.62-.43c-.48-.34-.66-.61-.66-.75s.18-.31.26-.37a.75.75 0 0 0-.81-1.26c-.55.35-.9.95-.95 1.6.06.84.55 1.6 1.3 2l.63.43c1.73 1.17 1.85 1.38 1.66 1.82-.54 1.28.89 2.15 1.93 2.79.4.23.8.49 1.16.77a4.54 4.54 0 0 1-4.54 4.52h-1.56c-3.72.09-6 .14-7.78-4.66-.4-1.65-.59-3.35-.56-5.05h.21a.75.75 0 0 0-.13-1.5h-.14v-.74h.56a.75.75 0 0 0 0-1.5h-.61c-.19-2.19-.58-4-1.63-4.83A.82.82 0 0 0 32.06 61c.62.49.91 2 1.06 3.71h-.95a40.85 40.85 0 0 1-2.63-2.14l-.76-.69 2.33.15h.06a.75.75 0 0 0 .06-1.5s-1.57-.12-4-.25c-5.44-6.19-5.58-12.2-4.72-14.92 0-.08 2.33-7.62.23-10.93a3.07 3.07 0 0 0-2.2-1.43c-.62-.08-.82-1-1-2.29a9.54 9.54 0 0 0-.44-1.84 5.36 5.36 0 0 0-1.63-1.95 9 9 0 0 1-2.78-3.67c-1-2.36-.23-3.66.1-4.08.73-.06 1.46.13 2.07.54.07.06 7.52 5.52 10.79 5.52H28c-3 2.15-4.76 4.9-4.76 7.59a.75.75 0 0 0 1.5 0c0-2.81 2.6-5.89 6.63-7.86 1.57-.23 3.08-.74 4.48-1.49a.75.75 0 0 0-.7-1.33l-.03.02a15.47 15.47 0 0 1-7.56 1.58c-1.25 0-3.64-1.21-5.86-2.55a8.3 8.3 0 0 0 9.3-1.73c4-3.82 6.49-5.15 19-5.15s15 1.34 19 5.15a8.18 8.18 0 0 0 5.77 2.45 9.77 9.77 0 0 0 3.44-.68c-2.21 1.33-4.6 2.53-5.84 2.53-2.61.12-5.21-.42-7.56-1.58a.75.75 0 0 0-.73 1.3c1.4.77 2.93 1.28 4.51 1.52 4 2 6.63 5 6.63 7.86a.75.75 0 0 0 1.5 0c0-2.7-1.77-5.45-4.76-7.6h.44c3.27 0 10.72-5.45 10.79-5.51a3.2 3.2 0 0 1 2.06-.54c.33.43 1.05 1.73.1 4.08a9 9 0 0 1-2.78 3.67 5.36 5.36 0 0 0-1.63 1.95c-.2.6-.36 1.21-.44 1.84-.23 1.33-.42 2.2-1 2.29-.93.11-1.76.65-2.25 1.45-2.11 3.3.2 10.86.23 10.93.87 2.73.72 8.74-4.72 14.92-2.39.13-4 .25-4 .25a.75.75 0 0 0 .06 1.5h.06l2.33-.15c-.21.23-.52.47-.8.71z"/>
    <path d="M64.77 37.53c.23 0 .44-.1.58-.28l3.19-3.92a.75.75 0 0 0-1.13-.98l-.03.03-3.19 3.92a.75.75 0 0 0 .58 1.22v.01zm-3.7-2.02c.09.02.18.02.27 0 .31 0 .59-.2.7-.48l1.41-3.68a.75.75 0 1 0-1.4-.54l-1.41 3.68a.75.75 0 0 0 .43 1.02zM58 35.2c.41-.03.72-.4.69-.8v-.01l-.25-3.19a.75.75 0 0 0-1.5.12l.25 3.19c.03.41.4.72.8.69H58z"/>
    <circle cx="38.13" cy="69.84" r="1.05"/>
    <circle cx="38.48" cy="73.41" r="1.05"/>
    <circle cx="41.22" cy="75.76" r="1.05"/>
    <circle cx="42.14" cy="72.11" r="1.05"/>
    <circle cx="45.06" cy="73.95" r="1.05"/>
    <circle cx="61.87" cy="69.84" r="1.05"/>
    <circle cx="61.52" cy="73.41" r="1.05"/>
    <circle cx="58.78" cy="75.76" r="1.05"/>
    <circle cx="57.86" cy="72.11" r="1.05"/>
    <circle cx="54.94" cy="73.95" r="1.05"/>
    <path d="M53.56 52.5a.75.75 0 0 0-.81.69A9.2 9.2 0 0 1 50 58.58a9.16 9.16 0 0 1-2.73-5.4.75.75 0 0 0-1.5.12 11 11 0 0 0 3.73 6.86c.13.1.3.17.47.17.17 0 .34-.06.47-.17a11 11 0 0 0 3.73-6.86.75.75 0 0 0-.61-.8zm-13.19 2.7a.75.75 0 0 0-1 .27c-.2.35-.46.72-.73 1.11-1.34 1.94-3.36 4.88-.51 8a.75.75 0 0 0 1.1-1c-1.89-2.05-.93-3.82.64-6.1.29-.43.57-.83.79-1.21a.75.75 0 0 0-.29-1.07zm20.32.27a.75.75 0 0 0-1.3.75c.22.38.5.78.79 1.21 1.57 2.28 2.53 4.05.64 6.1a.75.75 0 1 0 1.1 1c2.85-3.09.83-6-.5-8-.26-.34-.52-.71-.73-1.06zM41.89 65a.75.75 0 1 0-1.43-.46 4.13 4.13 0 0 0 1.91 4.82.75.75 0 0 0 .75-1.3A2.62 2.62 0 0 1 41.89 65zm15.73 4.33a4.13 4.13 0 0 0 1.91-4.82.75.75 0 1 0-1.43.46A2.62 2.62 0 0 1 56.87 68a.75.75 0 0 0 .75 1.3v.03zm-4.74-4.18a3.83 3.83 0 0 1-5.77 0 .77.77 0 0 0-1.16 1 5.32 5.32 0 0 0 8.08 0 .77.77 0 0 0-1.16-1h.01zM30.51 50.52a.75.75 0 1 0-.72 1.31c2.63 1.45 3.77 3.59 3.77 4.36a.75.75 0 0 0 1.5 0c0-1.55-1.7-4.1-4.55-5.67zm40.08.3a.75.75 0 0 0-1-.3C66.72 52.09 65 54.64 65 56.2a.75.75 0 0 0 1.5 0c0-.77 1.14-2.92 3.77-4.36a.75.75 0 0 0 .32-1.02z"/>
  </g>
  <path d="M134.3 67.85a11.8 11.8 0 0 1-.57-4.1c0-1.74.6-6.9 1.79-15.5 1.19-8.58 1.78-15.46 1.78-20.66 0-1.22-.08-2.89-.26-5.01 3.08.17 5.01.9 5.8 2.18.4.75.66 1.47.78 2.13.12.67.18 1.73.18 3.18 0 1.43-.66 6.85-1.96 16.26-1.34 9.4-2.02 16.12-2.05 20.13.2-.06.56-.09 1.09-.09 8.8 0 15.35-.61 19.65-1.83-.3 2.35-1.1 4.18-2.4 5.5a6.83 6.83 0 0 1-4.97 1.95c-.58 0-2.34-.13-5.27-.4-2.96-.25-5.82-.38-8.58-.38s-5.54.26-8.32.78a7 7 0 0 1 3.3-4.14zm40.13-20.22a29.72 29.72 0 0 0-2.7 6.28 21.22 21.22 0 0 0-.96 6.14c0 1.95.43 3.6 1.3 4.97a4.2 4.2 0 0 0 3.75 2.05c2.3 0 4.43-1.25 6.4-3.75 2.01-2.53 3.55-5.56 4.63-9.1a34.48 34.48 0 0 0 1.6-9.9c0-3.02-.1-5.5-.34-7.45.96-.09 1.57-.13 1.83-.13 3.46 0 5.19 1.77 5.19 5.32 0 .75-.5 3.89-1.49 9.4-.95 5.53-1.43 9.94-1.43 13.25 0 3.32.62 6.25 1.87 8.8-2.56-.52-4.41-1.65-5.58-3.4-1.16-1.7-1.74-4.19-1.74-7.44 0-.58.09-1.69.26-3.31a18.63 18.63 0 0 1-5.8 9.32c-2.78 2.38-5.5 3.57-8.14 3.57a7.85 7.85 0 0 1-6.45-3.05c-1.63-2-2.44-4.78-2.44-8.32 0-3.57.66-7.06 2-10.46 1.31-3.4 3.3-6.33 5.97-8.8 2.65-2.5 5.62-3.75 8.93-3.75 1.43 0 3 .3 4.71.88a17.08 17.08 0 0 0-6.62 3.35 20.26 20.26 0 0 0-4.75 5.53zm61.4-18.51.04.74c0 1.53-.58 6.59-1.75 15.16-1.16 8.54-1.74 15.69-1.74 21.44 0 2.56.13 4.54.4 5.97l-1.62.13c-1.83 0-3.2-.42-4.1-1.27-.87-.84-1.3-2.2-1.3-4.1 0-1.88.68-7.66 2.04-17.33 1.34-9.65 2-16.53 2-20.66 0-4.12-.27-6.83-.82-8.1 1.3.17 2.52.68 3.62 1.52a7.27 7.27 0 0 1 2.53 3.31 21.7 21.7 0 0 1 10.37-2.48c3.77 0 6.75 1.16 8.93 3.49a12.23 12.23 0 0 1 3.27 8.62c0 4.36-1.59 8.28-4.75 11.77-3.17 3.45-7.44 5.18-12.81 5.18-1.22 0-2.34-.07-3.36-.21l-.17-1.96c2.73 0 5.1-.41 7.14-1.22a10.77 10.77 0 0 0 4.62-3.23 14.35 14.35 0 0 0 3.1-9.15c0-2.53-.8-4.63-2.4-6.32-1.6-1.68-3.92-2.52-6.97-2.52-1.83 0-3.92.4-6.28 1.22zm35.37 18.51a28.6 28.6 0 0 0-2.74 6.28 22.2 22.2 0 0 0-.92 6.14c0 1.95.44 3.6 1.31 4.97a4.2 4.2 0 0 0 3.75 2.05c2.26 0 4.4-1.25 6.4-3.75a27.72 27.72 0 0 0 4.58-9.1 33.75 33.75 0 0 0 1.65-9.9c0-3.02-.13-5.5-.39-7.45 1-.09 1.6-.13 1.83-.13 3.46 0 5.19 1.77 5.19 5.32 0 .75-.48 3.89-1.44 9.4-.99 5.53-1.48 9.94-1.48 13.25 0 3.32.62 6.25 1.87 8.8-2.56-.52-4.41-1.65-5.58-3.4-1.16-1.7-1.74-4.19-1.74-7.44 0-.58.09-1.69.26-3.31a18.63 18.63 0 0 1-5.8 9.32c-2.75 2.38-5.47 3.57-8.14 3.57a7.85 7.85 0 0 1-6.45-3.05c-1.62-2-2.44-4.78-2.44-8.32 0-3.57.67-7.06 2-10.46 1.31-3.4 3.3-6.33 5.97-8.8 2.68-2.5 5.66-3.75 8.94-3.75 1.42 0 2.99.3 4.7.88a16.7 16.7 0 0 0-6.58 3.35c-2 1.63-3.58 3.47-4.75 5.53zm58.35-2.65c0 1.86-.4 5.15-1.18 9.89-.78 4.73-1.18 8.19-1.18 10.37 0 2.15.27 3.7.79 4.66a6.22 6.22 0 0 0 2.7 2.44c-.55.06-1.3.09-2.27.09-2.75 0-4.71-.53-5.88-1.57-1.16-1.05-1.74-2.9-1.74-5.58 0-1.51.4-4.54 1.22-9.1.81-4.6 1.22-7.97 1.22-10.11 0-2.68-.82-4.01-2.44-4.01-2.61 0-5.32 2.3-8.1 6.88-2.8 4.59-4.19 10.12-4.19 16.6 0 2.56.13 4.55.4 5.97a39.3 39.3 0 0 1-1.92.13c-3.58 0-5.36-1.75-5.36-5.27 0-.81.43-3.93 1.3-9.37.85-5.46 1.27-9.8 1.27-13.03 0-3.25-.35-6.23-1.05-8.93 2.41.93 4.1 2.25 5.06 3.97a12.09 12.09 0 0 1 1.43 5.92c0 2.21-.24 4.78-.74 7.71a28.76 28.76 0 0 1 6.32-11.59c2.85-3.16 5.52-4.74 8.02-4.74 4.21 0 6.32 2.88 6.32 8.67zm29.24-6.89c0 1.69-.32 2.86-.96 3.53-.67.64-1.63.96-2.88.96h-4.4l-1.26 7.58c-1.4 7.55-2.1 13.26-2.1 17.13 0 3.86.3 6.43.88 7.7-2.33-.86-3.98-2.16-4.97-3.87a12.93 12.93 0 0 1-1.44-6.32c0-2.5.14-4.85.44-7.06.31-2.2.75-4.79 1.3-7.75.58-3 1-5.38 1.22-7.15-2.32.32-4.6.97-6.84 1.96-.05-.66-.08-1.26-.08-1.78 0-1.95.64-3.26 1.91-3.93 1.31-.66 3.18-1 5.62-1 .3-3.02.44-5.27.44-6.75 0-1.48-.01-2.67-.04-3.58v-2c1.86.3 3.3 1.12 4.31 2.48 1.02 1.34 1.52 3.2 1.52 5.58 0 1.22-.1 2.7-.3 4.45 3.54 0 6.04-.6 7.5-1.8.08.59.13 1.12.13 1.62zm11.45 14.55a29.64 29.64 0 0 1 6.2-11.59c2.78-3.16 5.4-4.74 7.84-4.74 2.44 0 4.17.74 5.18 2.22 1.02 1.48 1.53 3.5 1.53 6.05 0 2.53-.4 6.1-1.18 10.68-.79 4.62-1.18 7.97-1.18 10.06 0 2.1.26 3.62.79 4.58.52.96 1.4 1.77 2.65 2.44-.52.06-1.26.09-2.22.09-2.61 0-4.54-.54-5.8-1.62-1.21-1.07-1.82-2.91-1.82-5.53 0-1.51.4-4.54 1.22-9.1.81-4.6 1.22-7.97 1.22-10.11 0-2.68-.95-4.01-2.83-4.01-1.1 0-2.33.58-3.66 1.74a20.28 20.28 0 0 0-3.88 4.66 29.11 29.11 0 0 0-3.1 7.54 33.2 33.2 0 0 0-1.26 8.93c0 2.97.13 5.16.4 6.58-1 .09-1.55.13-1.66.13-1.92 0-3.33-.4-4.23-1.22-.93-.81-1.4-2.09-1.4-3.83 0-1.71.37-5.04 1.1-9.98 2.14-15.13 3.22-26.62 3.22-34.47 0-3.54-.23-5.92-.7-7.14 2.35.87 4.01 2.13 4.97 3.79.96 1.68 1.44 3.98 1.44 6.88 0 2.04-.4 6.3-1.22 12.81-.79 6.5-1.32 11.23-1.62 14.16zM416.4 39.5c-2.44 0-4.5 1.39-6.19 4.18a26.13 26.13 0 0 0-3.4 9.89h1.7c2.15 0 4.02-.3 5.62-.92a9.5 9.5 0 0 0 3.66-2.35 9.5 9.5 0 0 0 2.44-6.36c0-1.34-.31-2.4-.96-3.22-.64-.82-1.6-1.22-2.87-1.22zm8.58 24.7c-1.86 3.05-3.9 5.19-6.14 6.4a16.03 16.03 0 0 1-7.8 1.84c-2.93 0-5.5-1.31-7.71-3.92-2.21-2.59-3.31-6.25-3.31-10.98 0-5.38 1.45-10.17 4.35-14.38a16.44 16.44 0 0 1 5.58-4.97 15.6 15.6 0 0 1 7.58-1.87c6.1 0 9.15 2.94 9.15 8.84 0 3.54-1.36 6.32-4.1 8.32-2.75 2-5.93 3-9.54 3a29.4 29.4 0 0 1-6.49-.64c-.03.4-.04 1.03-.04 1.87 0 7.2 2.13 10.8 6.4 10.8 4.01 0 7.28-1.99 9.8-5.96 1.52.2 2.27.75 2.27 1.65zm-1.22-32.46a2 2 0 0 1-.65 1.26 2.7 2.7 0 0 1-1.3.74 32.36 32.36 0 0 0-5.63-5.4 21.68 21.68 0 0 0-7.01-3.79 6 6 0 0 1 2.96-5.01c2.15.84 4.37 2.53 6.67 5.05 2.3 2.5 3.95 4.88 4.96 7.15zm18 19.96c1.45-5.29 3.21-9.18 5.27-11.68 2.06-2.5 3.98-3.75 5.75-3.75 1.78 0 3.1.66 3.97 1.96a8.84 8.84 0 0 1 1.35 5.06 8.9 8.9 0 0 1-1.57 5.27 5.4 5.4 0 0 1-4.66 2.22c-.64 0-1.15-.04-1.53-.13 1.4-2 2.1-4.04 2.1-6.1 0-1.45-.6-2.18-1.8-2.18-.92 0-1.91.54-2.96 1.61a17.75 17.75 0 0 0-3.05 4.58 31.41 31.41 0 0 0-2.44 7.62c-.66 3.14-1 6.53-1 10.16 0 .4.1 2.13.3 5.18a39.4 39.4 0 0 1-1.82.13c-3.58 0-5.36-1.75-5.36-5.27 0-.81.43-3.93 1.3-9.37.85-5.46 1.27-9.8 1.27-13.03 0-3.25-.35-6.23-1.05-8.93 2.41.93 4.1 2.25 5.06 3.97a12.36 12.36 0 0 1 1.43 6.05c0 2.3-.18 4.5-.56 6.63zm35.95-12.2c-2.44 0-4.52 1.39-6.24 4.18a26.55 26.55 0 0 0-3.35 9.89h1.7c2.15 0 4.02-.3 5.62-.92a9.5 9.5 0 0 0 3.66-2.35 9.5 9.5 0 0 0 2.44-6.36c0-1.34-.32-2.4-.96-3.22-.64-.82-1.6-1.22-2.87-1.22zm8.58 24.7c-1.86 3.05-3.9 5.19-6.14 6.4a16.03 16.03 0 0 1-7.8 1.84c-2.94 0-5.5-1.31-7.72-3.92-2.2-2.59-3.3-6.25-3.3-10.98 0-5.38 1.44-10.17 4.35-14.38a16.44 16.44 0 0 1 5.58-4.97 15.6 15.6 0 0 1 7.58-1.87c6.1 0 9.15 2.94 9.15 8.84 0 3.54-1.36 6.32-4.1 8.32-2.75 2-5.94 3-9.54 3a29.4 29.4 0 0 1-6.5-.64c-.02.4-.04 1.03-.04 1.87 0 7.2 2.14 10.8 6.41 10.8 4 0 7.28-1.99 9.8-5.96 1.52.2 2.27.75 2.27 1.65z"/>
</svg>
