<svg xmlns="http://www.w3.org/2000/svg" width="382.7" height="310.3" viewBox="0 0 382.7 310.3" xml:space="preserve"><g transform="matrix(1.21017 0 0 1.21017 -4.4 -14.7)" fill="#1d1d1b"><path d="M141 126.7v-.2c-2.6-4.6-7-8-12-9.4h-.5c-2.8-.8-5.7-1.4-8.6-1.6-7.9-1-15.4-3.8-22-8.2a2.6 2.6 0 0 0-3 4.3c2.2 1.4 4.5 2.7 6.9 3.8 0 .4-.3.7-.4 1a21 21 0 0 0 20.3 26.7c6.3 0 12.3-2.8 16.1-7.8.3 3.4.1 7-.6 10.3a2.6 2.6 0 0 0 1.6 3.4h.9c1 0 2-.7 2.4-1.7 1.1-4.6 1.4-9.4.8-14.1a17 17 0 0 0-1.9-6.5zm-15.3-5.1v1.8a4.5 4.5 0 1 1-8.7-2.5c0-.2.2-.4.3-.5l2 .2c2.2.2 4.4.5 6.5 1h-.1zm3.2 14.6a16 16 0 0 1-12 1 15.8 15.8 0 0 1-10.7-19.4v-.4c1.9.7 3.8 1.4 5.8 1.9v.2a9.6 9.6 0 1 0 18.7 4c2 1 3.8 2.6 5.1 4.6a14.7 14.7 0 0 1-6.8 8zm93-19.8c0-.4-.2-.7-.4-1 2.4-1.2 4.7-2.4 7-3.9a2.6 2.6 0 0 0-3-4.2 53.6 53.6 0 0 1-22 8.2c-3 .2-5.9.7-8.7 1.6h-.4a19.7 19.7 0 0 0-12.2 9.4v.1a17 17 0 0 0-1.8 6.7c-.6 4.7-.3 9.5.8 14.1a2.6 2.6 0 1 0 5-1.7c-.8-3.3-1-6.8-.8-10.3 3.9 5 9.8 7.9 16.1 7.9a21 21 0 0 0 20.5-26.7v-.2zm-18.1 4.2 2-.2.3.5c.7 2.4-.7 4.9-3 5.5a4.4 4.4 0 0 1-5.6-4.8c2-.5 4.2-.8 6.3-1zm2.5 16.7a16 16 0 0 1-12-1.1 14.7 14.7 0 0 1-6.8-8.2c1.2-1.9 3-3.4 5-4.5l.3 1.3c1.2 4 5 6.9 9.2 6.9a9.6 9.6 0 0 0 9.1-12v-.3c2-.5 4-1.2 5.8-1.9v.4c2.4 8.3-2.4 17-10.6 19.4z"/><path d="M149 122.7c-.5-7.8-6.8-12.7-17.6-13.5a39.7 39.7 0 0 1-16.1-5.8 2.6 2.6 0 0 0-2.9 4.3c5.6 3.6 12 5.8 18.6 6.6 4.6.4 12.4 2 13 8.7 0 1.4 1.1 2.4 2.5 2.4h.2a2.6 2.6 0 0 0 2.3-2.7zm44.6-8.4c6.6-.8 13-3 18.5-6.6a2.6 2.6 0 0 0-2.8-4.3 39.8 39.8 0 0 1-16.1 6c-10.7.7-17.2 5.6-17.7 13.4 0 1.4 1 2.6 2.4 2.7h.2c1.3 0 2.5-1 2.6-2.4.4-7 8.4-8.4 12.9-8.8zm-84.7-17.9a2.6 2.6 0 1 0 4-3.2l-11-13.5a2.6 2.6 0 1 0-4 3.3l11 13.4zm11.5-7.4a2.6 2.6 0 0 0 4.8-1.8l-4.8-12.6a2.6 2.6 0 0 0-4.8 1.8l4.8 12.6zm13.8.4c1.3 0 2.4-1 2.5-2.4l.9-11c.1-1.3-1-2.6-2.4-2.7a2.5 2.5 0 0 0-2.7 2.4l-1 11c0 1.3 1 2.6 2.5 2.7h.2z"/><path d="M317.2 178c-13.4-4.3-45-3.9-70.5-2.7 17.1-21.7 17.1-42.6 14-52.5-2.2-7.4-5.8-26-1.2-33.2a5.4 5.4 0 0 1 4-2.7c6-.8 7.1-7 8-12 .2-1.9.6-3.6 1.2-5.4 1-1.8 2.5-3.4 4.2-4.7 4.8-3.8 8.6-8.8 11-14.5 5.4-13.4-2-20-2.2-20.3l-1-.5h-.5a21.1 21.1 0 0 0-16.5 2.6c-2.3 1-5.2 2.5-9.5 4.2a23.6 23.6 0 0 1-27.4-4.5c-15.5-14.8-26.4-19.1-69-19.1S108.5 17 93.1 31.8a23.6 23.6 0 0 1-27.4 4.5c-3.2-1.3-6.4-2.7-9.5-4.2-5-3.1-11-4-16.5-2.6h-.5l-1 .5c-.3.3-7.6 6.9-2.1 20.3A36.4 36.4 0 0 0 47 64.8c1.7 1.3 3.1 2.9 4.2 4.7.3 1.8.5 3.6.6 5.5.8 5 1.9 11.3 8 12 1.7.2 3.2 1.2 4 2.7 4.6 7.2 1 25.9-1.3 33.2-3.1 9.9-3 31 14 52.5-25.5-1.2-57-1.5-70.4 2.7a2.6 2.6 0 1 0 1.5 5c14-4.5 51.5-3.5 72.8-2.3h.8l2.3 2.3c-26.4.4-44.3 2.2-53.3 5.5a2.6 2.6 0 1 0 1.8 4.8c8.8-3.2 28.5-5 56.8-5.2l3.7 3c-22.2 1.3-58.3 4.2-72 10.3a2.6 2.6 0 0 0 2 4.7c14.3-6.2 55.5-9 76.3-10.1l3.4 2.5.3.2C81 201 66.2 203.6 58.6 207a2.6 2.6 0 0 0 2 4.7c7.2-3.1 22.2-5.8 43.8-7.8-.1 6.3.7 12.7 2.3 18.8 5.6 14.8 13.3 18.5 22.2 19.2 1.3 2.5 3 4.6 5.2 6.3a52.1 52.1 0 0 0-11.6 15.3 2.6 2.6 0 0 0 4.8 1.9c.9-2.4 3.7-7 11.3-14.4 2.2 1 4.5 2 6.8 2.6a38.9 38.9 0 0 0-3.1 11.8c-.1 1.4 1 2.7 2.4 2.7s2.5-1 2.6-2.4c.4-3.8 1.5-7.4 3.1-10.9 7.4 1.3 15 1.3 22.5 0a36 36 0 0 1 3 10.9c.2 1.4 1.3 2.4 2.7 2.4 1.4 0 2.5-1.2 2.4-2.7-.4-4-1.4-8-3-11.8 2.3-.7 4.6-1.5 6.8-2.7 7.6 7.6 10.3 12 11.3 14.4a2.6 2.6 0 0 0 4.8-1.8c-2.9-5.8-6.8-11-11.6-15.4 2.1-1.7 4-3.8 5.2-6.2 9-.8 16.6-4.4 22.1-19.2A68.4 68.4 0 0 0 219 204c21.5 2 36.6 4.7 43.6 7.8a2.6 2.6 0 1 0 2.1-4.7c-7.6-3.4-22.7-6-44.6-8.1l2.7-2 1-.7c20.7 1 62.6 3.8 77 10.3a2.6 2.6 0 0 0 2.1-4.7c-14-6.1-50.1-9-72.3-10.3l3.8-3c28.4.1 48 1.9 57 5.1a2.6 2.6 0 0 0 1.7-4.8c-9-3.2-26.8-5-53.2-5.4l2.2-2.4h.9c21-1 58.6-2.2 72.7 2.3a2.8 2.8 0 1 0 1.6-5.3zM173 242.9a2.6 2.6 0 1 0-4.5 2.6 72 72 0 0 1 2.2 4.1c-6 .9-12 .9-17.9 0a59 59 0 0 1 2.2-4.1 2.6 2.6 0 0 0-4.5-2.6l-3 5.7a24 24 0 0 1-12.2-6.9h8.3c7.5 0 14.4-4.1 18-10.7a20.6 20.6 0 0 0 18.2 10.7h8.3a24 24 0 0 1-12.3 6.9c-1.5-3.1-2.8-5.4-3-5.6l.2-.1zm58.7-59.3-.3.2c-2.8 2.4-6 4.8-9.2 7h-2.6c.4-6 1.5-11.2 3.6-12.8a2.6 2.6 0 1 0-3.2-4.1c-3.4 2.8-5 9-5.6 16.5h-2a2.5 2.5 0 0 0-2.7 2.5c0 1.5 1 2.7 2.5 2.7h1.9v2.5h-.6c-1.4 0-2.7 1-2.8 2.4-.1 1.4 1 2.6 2.3 2.7h.8c0 5.9-.6 11.7-2 17.4-4.8 12.9-10.6 15.6-19 16h-13c-8.5 0-15.4-6.8-15.6-15.3 1.2-1.2 2.6-2.1 4-3 3.5-2.1 8.5-5.1 6.7-9.5-.7-1.5-.3-2.2 5.7-6.2l2.1-1.5c2.6-1.4 4.3-4 4.5-6.9a7.1 7.1 0 0 0-3.3-5.5 2.5 2.5 0 0 0-3.4.8c-.7 1.1-.4 2.6.7 3.4.3.2.9.8 1 1.3 0 .5-.7 1.4-2.3 2.6l-2.2 1.4c-5.6 3.8-10 6.9-7.5 12.3-.3.8-3 2.5-4.6 3.4l-3.9 2.7c-1.2-1-2.5-1.9-3.8-2.7-1.7-.9-3.2-2-4.6-3.2 2.4-5.7-2-8.7-7.6-12.5l-2-1.5c-1.7-1.1-2.4-2-2.4-2.6 0-.4.7-1 1-1.2a2.6 2.6 0 0 0-2.8-4.4 7.1 7.1 0 0 0-3.3 5.5 8.5 8.5 0 0 0 4.5 7l2.1 1.4c6 4 6.4 4.7 5.7 6.2-1.8 4.4 3 7.4 6.6 9.6a36 36 0 0 1 4 2.7c0 8.5-7 15.5-15.6 15.5h-5.3c-12.8.3-20.6.5-26.7-16a69 69 0 0 1-2-17.4h.8a2.6 2.6 0 0 0-.5-5.1h-.5v-2.6h2a2.6 2.6 0 0 0 0-5.1h-2.1c-.7-7.5-2-13.7-5.6-16.6-1.2-1-3-.8-4 .4s-.8 3 .4 4c2.2 1.7 3.2 6.8 3.7 12.7h-3.3a140.2 140.2 0 0 1-9-7.3l-2.6-2.4 8 .5h.2a2.6 2.6 0 0 0 .2-5.1s-5.4-.5-13.7-.9c-18.7-21.3-19.2-41.9-16.2-51.2 0-.3 8-26.2.7-37.6a10.5 10.5 0 0 0-7.5-4.9c-2.1-.2-2.8-3.4-3.4-7.8-.3-2.2-.8-4.3-1.6-6.3-1.3-2.7-3.2-5-5.6-6.7a30.9 30.9 0 0 1-9.5-12.6c-3.4-8.1-.8-12.6.3-14 2.6-.3 5 .4 7.2 1.8.2.2 25.8 19 37 19h1.2c-10.3 7.3-16.3 16.8-16.3 26a2.6 2.6 0 0 0 5.1 0c0-9.6 9-20.2 22.8-27a47 47 0 0 0 15.4-5 2.6 2.6 0 1 0-2.6-4.6c-8 4-17 5.9-26 5.4-4.2 0-12.4-4.1-20-8.7a28.5 28.5 0 0 0 31.9-6c13.7-13 22.3-17.6 65.2-17.6s51.5 4.6 65.3 17.6a28 28 0 0 0 19.8 8.5c4-.1 8-.9 11.8-2.4a54.6 54.6 0 0 1-20 8.7c-9 .4-18-1.4-26-5.4a2.6 2.6 0 0 0-2.5 4.5c4.8 2.6 10 4.4 15.5 5.2 13.7 6.8 22.7 17.1 22.7 27a2.6 2.6 0 0 0 5.2 0c0-9.3-6.1-18.8-16.4-26.1h1.5c11.3 0 36.9-18.8 37-19 2.2-1.4 4.7-2 7.2-1.8 1.1 1.5 3.6 6 .3 14-2 5-5.3 9.3-9.5 12.6-2.4 1.8-4.3 4-5.6 6.7-.7 2-1.2 4.2-1.5 6.3-.8 4.6-1.5 7.6-3.5 7.9-3.2.4-6 2.2-7.7 5-7.2 11.3.7 37.2.8 37.5 3 9.4 2.5 30-16.2 51.2l-13.7.9a2.6 2.6 0 0 0 .2 5.1h.2l8-.5-2.8 2.4z"/><path d="M212.3 97.4c.8 0 1.6-.4 2-1l11-13.4a2.6 2.6 0 1 0-4-3.3l-11 13.5a2.6 2.6 0 0 0 2 4.2zm-12.7-7h1c1 0 2-.6 2.4-1.6l4.8-12.6a2.6 2.6 0 0 0-4.8-1.9L198.2 87a2.6 2.6 0 0 0 1.4 3.5zm-10.5-1a2.6 2.6 0 0 0 2.4-2.8l-.9-11a2.6 2.6 0 0 0-5.1.5l.8 11a2.6 2.6 0 0 0 2.8 2.3z"/><circle cx="120.9" cy="208.3" r="3.6"/><circle cx="122.1" cy="220.6" r="3.6"/><circle cx="131.5" cy="228.7" r="3.6"/><circle cx="134.6" cy="216.1" r="3.6"/><circle cx="144.7" cy="222.4" r="3.6"/><circle cx="202.4" cy="208.3" r="3.6"/><circle cx="201.2" cy="220.6" r="3.6"/><circle cx="191.8" cy="228.7" r="3.6"/><circle cx="188.6" cy="216.1" r="3.6"/><circle cx="178.6" cy="222.4" r="3.6"/><path d="M173.9 148.8c-1.5-.1-2.7 1-2.8 2.3-1 7.1-4.3 13.6-9.5 18.6-5.1-5-8.4-11.5-9.3-18.6a2.6 2.6 0 0 0-5.2.4 37.8 37.8 0 0 0 12.8 23.6c.5.4 1 .6 1.6.6.6 0 1.2-.2 1.6-.6 7-6 11.6-14.4 12.9-23.6 0-1.3-.8-2.5-2.1-2.7zm-45.3 9.3a2.6 2.6 0 0 0-3.5.9c-.6 1.2-1.5 2.5-2.5 3.8-4.6 6.7-11.5 16.8-1.7 27.5a2.6 2.6 0 0 0 3.8-3.5c-6.5-7-3.2-13 2.2-21l2.7-4a2.6 2.6 0 0 0-1-3.7zm69.7.9a2.6 2.6 0 1 0-4.4 2.6c.7 1.3 1.7 2.6 2.7 4.1 5.4 7.8 8.7 14 2.2 21a2.6 2.6 0 1 0 3.8 3.4c9.7-10.6 2.8-20.6-1.8-27.5l-2.5-3.6zm-64.5 32.7a2.6 2.6 0 0 0-5-1.6c-1.9 6.4.8 13.3 6.6 16.6a2.6 2.6 0 0 0 2.6-4.5 9 9 0 0 1-4.2-10.5zm54 14.9a14.2 14.2 0 0 0 6.6-16.6 2.6 2.6 0 1 0-5 1.6 9 9 0 0 1-4.2 10.4 2.6 2.6 0 1 0 2.6 4.5zm-16.3-14.4a13.2 13.2 0 0 1-19.8 0 2.6 2.6 0 1 0-4 3.5 18.3 18.3 0 0 0 27.8 0 2.6 2.6 0 1 0-4-3.5zM94.7 142a2.6 2.6 0 1 0-2.5 4.5c9 5 13 12.3 13 15a2.6 2.6 0 0 0 5.1 0c0-5.4-5.8-14.1-15.6-19.5zm137.6 1a2.6 2.6 0 0 0-3.4-1c-9.9 5.4-15.8 14.1-15.8 19.5a2.6 2.6 0 0 0 5.2 0c0-2.6 3.9-10 13-15a2.6 2.6 0 0 0 1-3.4z"/></g></svg>