<?xml version="1.0" encoding="utf-8"?>
<!-- Generator: Adobe Illustrator 25.4.1, SVG Export Plug-In . SVG Version: 6.00 Build 0)  -->
<svg version="1.1" id="Layer_1" xmlns="http://www.w3.org/2000/svg" xmlns:xlink="http://www.w3.org/1999/xlink" x="0px" y="0px"
	 viewBox="0 0 382.677 310.317" style="enable-background:new 0 0 382.677 310.317;" xml:space="preserve">
<g id="_x39_7221fff-9f5f-45e5-b2fa-fe4d6ef25df3" transform="matrix(1.2101654687240968,0,0,1.2101654687240968,-4.368992009843154,-14.702727655207887)">
	<path style="fill:#1D1D1B;" d="M141.035,126.714v-0.24c-2.609-4.611-6.966-7.977-12.086-9.339h-0.481
		c-2.793-0.851-5.672-1.392-8.584-1.614c-7.873-1.055-15.414-3.846-22.077-8.172c-1.22-0.732-2.801-0.336-3.533,0.883
		c-0.675,1.126-0.396,2.579,0.649,3.374c2.202,1.421,4.496,2.694,6.867,3.811c0,0.343-0.309,0.687-0.412,1.064
		c-3.14,11.05,3.223,22.563,14.249,25.785c1.987,0.57,4.044,0.858,6.112,0.858c6.292,0.033,12.242-2.86,16.103-7.828
		c0.297,3.445,0.089,6.915-0.618,10.3c-0.539,1.316,0.091,2.82,1.407,3.359c0.068,0.028,0.137,0.053,0.207,0.075
		c0.273,0.044,0.551,0.044,0.824,0c1.104-0.001,2.084-0.705,2.438-1.751c1.1-4.608,1.368-9.375,0.79-14.077
		C142.712,130.938,142.081,128.731,141.035,126.714z M125.687,121.598c0.122,0.589,0.122,1.197,0,1.785
		c-0.673,2.399-3.163,3.798-5.562,3.124s-3.798-3.163-3.124-5.562c0.088-0.202,0.191-0.397,0.309-0.584l2.06,0.24
		c2.155,0.158,4.291,0.503,6.386,1.03L125.687,121.598z M128.915,136.19c-3.691,1.899-7.974,2.293-11.948,1.099
		c-8.344-2.41-13.166-11.116-10.781-19.468v-0.412c1.909,0.739,3.857,1.369,5.837,1.888v0.206
		c-1.607,5.06,1.192,10.466,6.252,12.073c5.06,1.607,10.466-1.192,12.073-6.252c0.187-0.587,0.316-1.191,0.387-1.803
		c2.06,1.042,3.811,2.605,5.082,4.532c-1.18,3.471-3.618,6.375-6.833,8.137H128.915z M221.961,116.414
		c0-0.378-0.275-0.687-0.412-1.064c2.371-1.117,4.665-2.391,6.867-3.811c1.132-0.861,1.351-2.477,0.49-3.609
		c-0.795-1.045-2.248-1.324-3.374-0.649c-6.663,4.325-14.204,7.116-22.077,8.172c-2.935,0.216-5.837,0.758-8.652,1.614h-0.412
		c-5.158,1.362-9.543,4.756-12.154,9.408v0.172c-1.073,2.08-1.705,4.359-1.854,6.695c-0.578,4.702-0.311,9.469,0.79,14.077
		c0.353,1.046,1.334,1.75,2.438,1.751c1.422,0.025,2.595-1.108,2.619-2.53c0.005-0.307-0.044-0.613-0.147-0.903
		c-0.721-3.383-0.941-6.853-0.652-10.3c3.861,4.969,9.811,7.861,16.103,7.828c2.067,0,4.124-0.289,6.112-0.858
		c11.103-3.174,17.532-14.748,14.358-25.851C221.988,116.507,221.975,116.46,221.961,116.414z M203.764,120.603l2.06-0.24
		c0.118,0.186,0.221,0.382,0.309,0.584c0.662,2.36-0.702,4.812-3.056,5.494c-2.301,0.712-4.743-0.576-5.454-2.877
		c-0.197-0.635-0.245-1.307-0.142-1.964c2.074-0.512,4.187-0.845,6.318-0.996L203.764,120.603z M206.27,137.289
		c-3.975,1.194-8.258,0.8-11.948-1.099c-3.234-1.764-5.686-4.682-6.867-8.172c1.275-1.915,3.026-3.465,5.081-4.498
		c0.052,0.428,0.132,0.853,0.24,1.27c1.217,4.083,4.976,6.877,9.236,6.867c5.308-0.111,9.522-4.504,9.411-9.812
		c-0.016-0.756-0.121-1.508-0.313-2.24v-0.206c1.98-0.519,3.928-1.15,5.837-1.888v0.412
		C219.275,126.212,214.521,134.834,206.27,137.289z"/>
	<path style="fill:#1D1D1B;" d="M149.035,122.663c-0.549-7.725-6.867-12.635-17.682-13.459c-5.714-0.746-11.197-2.726-16.069-5.803
		c-1.185-0.787-2.784-0.464-3.571,0.721s-0.464,2.784,0.721,3.571c5.606,3.57,11.942,5.834,18.541,6.627
		c4.635,0.343,12.463,1.957,12.944,8.687c0.091,1.355,1.217,2.406,2.575,2.403h0.172C148.076,125.3,149.133,124.073,149.035,122.663
		z M193.601,114.319c6.599-0.792,12.935-3.057,18.541-6.627c1.185-0.787,1.508-2.386,0.721-3.571
		c-0.787-1.185-2.386-1.508-3.571-0.721c-4.874,3.117-10.37,5.132-16.103,5.906c-10.678,0.824-17.167,5.734-17.682,13.459
		c-0.098,1.419,0.973,2.648,2.392,2.746c0.004,0,0.008,0.001,0.011,0.001h0.172c1.358,0.003,2.485-1.049,2.575-2.403
		C181.137,116.173,189.103,114.697,193.601,114.319z M108.898,96.431c0.869,1.126,2.486,1.335,3.612,0.466
		c1.126-0.869,1.335-2.486,0.466-3.612c-0.03-0.04-0.062-0.078-0.095-0.116L101.928,79.71c-0.869-1.126-2.486-1.335-3.612-0.466
		c-1.126,0.869-1.335,2.486-0.466,3.612c0.03,0.04,0.062,0.078,0.095,0.116L108.898,96.431z M120.434,88.981
		c0.383,0.993,1.339,1.648,2.403,1.648c1.422-0.013,2.564-1.177,2.551-2.599c-0.003-0.284-0.052-0.566-0.147-0.834L120.4,74.56
		c-0.512-1.327-2.003-1.988-3.33-1.476c-1.327,0.512-1.988,2.003-1.476,3.33L120.434,88.981z M134.168,89.358
		c1.345,0.004,2.467-1.028,2.575-2.369l0.858-10.918c0.118-1.417-0.935-2.662-2.353-2.78c-0.005,0-0.011-0.001-0.016-0.001
		c-1.397-0.136-2.639,0.887-2.774,2.284c-0.003,0.028-0.005,0.057-0.007,0.086l-0.858,10.953c-0.095,1.419,0.979,2.646,2.398,2.741
		C134.05,89.356,134.109,89.358,134.168,89.358z"/>
	<path style="fill:#1D1D1B;" d="M317.205,177.976c-13.39-4.257-44.91-3.88-70.523-2.712c17.167-21.665,17.167-42.609,14.111-52.463
		c-2.335-7.382-5.94-25.991-1.339-33.236c0.853-1.476,2.357-2.457,4.051-2.644c6.043-0.79,7.142-7.073,8-12.086
		c0.233-1.796,0.636-3.567,1.202-5.288c1.037-1.854,2.467-3.46,4.189-4.704c4.81-3.839,8.567-8.836,10.918-14.523
		c5.459-13.425-1.854-20.051-2.163-20.326c-0.285-0.216-0.613-0.368-0.961-0.446h-0.481c-5.616-1.466-11.587-0.56-16.515,2.506
		c-2.335,1.133-5.219,2.506-9.476,4.292c-9.168,4.618-20.269,2.786-27.468-4.532c-15.451-14.833-26.335-19.124-68.944-19.124
		s-53.356,4.326-68.669,19.124c-7.199,7.319-18.3,9.15-27.468,4.532c-3.2-1.338-6.36-2.769-9.476-4.292
		c-4.928-3.066-10.899-3.972-16.515-2.506h-0.481c-0.349,0.079-0.676,0.231-0.961,0.446c-0.309,0.275-7.622,6.867-2.163,20.326
		c2.352,5.687,6.108,10.684,10.918,14.523c1.721,1.245,3.151,2.85,4.189,4.704c0.366,1.786,0.561,3.602,0.584,5.425
		c0.858,5.047,1.923,11.296,8,12.086c1.694,0.186,3.199,1.168,4.051,2.644c4.601,7.245,0.996,25.854-1.339,33.236
		c-3.124,9.854-2.987,30.901,14.111,52.463c-25.614-1.167-57.133-1.545-70.523,2.712c-1.356,0.436-2.101,1.889-1.665,3.245
		s1.889,2.101,3.245,1.665c14.043-4.463,51.502-3.433,72.721-2.266h0.858l2.232,2.369c-26.369,0.378-44.257,2.197-53.218,5.425
		c-1.35,0.446-2.084,1.902-1.638,3.253c0.446,1.351,1.902,2.084,3.253,1.638c0.046-0.015,0.092-0.032,0.137-0.049
		c8.858-3.193,28.498-4.978,56.858-5.185c1.202,1.03,2.438,2.026,3.674,3.021c-22.214,1.236-58.369,4.154-72.102,10.3
		c-1.255,0.668-1.731,2.228-1.063,3.483c0.597,1.122,1.924,1.64,3.123,1.221c14.317-6.283,55.553-9.064,76.291-10.129l3.433,2.472
		l0.343,0.24c-21.596,2.094-36.36,4.807-43.914,8.103c-1.255,0.668-1.731,2.228-1.063,3.483c0.597,1.122,1.924,1.64,3.123,1.221
		c7.107-3.124,22.146-5.803,43.674-7.828c-0.098,6.35,0.688,12.682,2.335,18.815c5.597,14.833,13.253,18.472,22.18,19.227
		c1.284,2.415,3.062,4.533,5.219,6.215c-4.8,4.348-8.747,9.553-11.639,15.348c-0.512,1.327,0.149,2.818,1.476,3.33
		c1.327,0.512,2.818-0.149,3.33-1.476c0.927-2.403,3.708-6.867,11.296-14.386c2.195,1.117,4.495,2.014,6.867,2.678
		c-1.666,3.735-2.732,7.709-3.159,11.777c-0.078,1.42,1.01,2.634,2.43,2.712c0.002,0,0.005,0,0.007,0
		c1.37,0.002,2.502-1.069,2.575-2.438c0.452-3.772,1.507-7.447,3.124-10.884c7.434,1.239,15.021,1.239,22.455,0
		c1.608,3.441,2.663,7.114,3.124,10.884c0.073,1.368,1.205,2.44,2.575,2.438c1.42-0.074,2.512-1.285,2.438-2.705
		c0-0.002,0-0.005,0-0.007c-0.39-4.073-1.422-8.059-3.056-11.811c2.372-0.664,4.672-1.561,6.867-2.678
		c7.588,7.519,10.3,11.983,11.296,14.386c0.512,1.327,2.003,1.988,3.33,1.476c1.327-0.512,1.988-2.003,1.476-3.33
		c-2.893-5.795-6.84-10.999-11.639-15.348c2.157-1.682,3.935-3.799,5.219-6.215c8.927-0.755,16.584-4.36,22.146-19.193
		c1.604-6.105,2.355-12.402,2.232-18.712c21.528,2.026,36.601,4.704,43.674,7.828c1.255,0.668,2.815,0.192,3.483-1.063
		c0.668-1.255,0.192-2.815-1.063-3.483c-0.116-0.062-0.236-0.114-0.36-0.158c-7.622-3.433-22.661-6.077-44.635-8.172l2.747-1.923
		l1.064-0.755c20.601,1.03,62.489,3.811,76.978,10.3c1.342,0.469,2.811-0.238,3.281-1.581c0.42-1.2-0.099-2.526-1.221-3.123
		c-13.94-6.112-50.163-8.996-72.343-10.3c1.305-0.984,2.575-1.991,3.811-3.021c28.429,0.172,48.068,1.957,56.961,5.185
		c1.35,0.446,2.807-0.288,3.253-1.638c0.428-1.297-0.231-2.703-1.501-3.203c-8.927-3.227-26.815-5.047-53.218-5.425l2.232-2.369
		h0.858c21.116-1.064,58.678-2.197,72.721,2.266c1.46,0.446,3.005-0.377,3.451-1.837
		C319.488,179.966,318.665,178.421,317.205,177.976z M173,242.902c-0.711-1.233-2.287-1.655-3.519-0.944
		c-1.233,0.711-1.655,2.287-0.944,3.519c0.549,0.927,1.339,2.403,2.197,4.12c-5.943,0.864-11.98,0.864-17.923,0
		c1.202-2.438,2.163-4.086,2.197-4.12c0.711-1.233,0.288-2.808-0.944-3.519s-2.808-0.288-3.519,0.944c0,0.206-1.442,2.506-2.987,5.7
		c-4.691-1.011-8.972-3.402-12.292-6.867h8.343c7.527-0.031,14.438-4.164,18.026-10.781c3.62,6.647,10.594,10.773,18.163,10.747
		h8.343c-3.32,3.465-7.601,5.856-12.292,6.867c-1.545-3.09-2.85-5.356-2.987-5.597L173,242.902z M231.712,183.641l-0.275,0.206
		c-2.884,2.403-6.077,4.738-9.202,6.867h-2.678c0.446-5.871,1.545-11.159,3.674-12.738c1.138-0.891,1.338-2.536,0.446-3.674
		s-2.536-1.338-3.674-0.446c-3.433,2.85-4.944,9.064-5.597,16.584h-2.094c-1.382-0.076-2.564,0.983-2.64,2.365
		c-0.003,0.047-0.004,0.094-0.004,0.141c-0.038,1.422,1.083,2.605,2.505,2.644c0.001,0,0.001,0,0.002,0h1.923v2.541h-0.618
		c-1.405-0.1-2.636,0.933-2.781,2.335c-0.119,1.411,0.924,2.654,2.335,2.781h0.721c0.099,5.838-0.547,11.665-1.923,17.339
		c-4.841,12.875-10.644,15.588-19.056,16h-12.978c-8.489-0.017-15.404-6.825-15.554-15.313c1.196-1.131,2.535-2.1,3.983-2.884
		c3.433-2.197,8.481-5.219,6.627-9.579c-0.652-1.511-0.206-2.232,5.7-6.249l2.163-1.476c2.563-1.376,4.246-3.966,4.463-6.867
		c-0.162-2.243-1.37-4.278-3.262-5.494c-1.162-0.708-2.676-0.375-3.433,0.755c-0.68,1.159-0.368,2.645,0.721,3.433
		c0.275,0.206,0.893,0.79,0.927,1.27c0.034,0.481-0.584,1.408-2.266,2.575l-2.129,1.476c-5.597,3.777-9.991,6.867-7.554,12.257
		c-0.275,0.858-3.056,2.541-4.566,3.433c-1.351,0.794-2.647,1.677-3.88,2.644c-1.233-0.967-2.529-1.85-3.88-2.644
		c-1.634-0.895-3.165-1.966-4.566-3.193c2.438-5.734-1.991-8.721-7.554-12.532l-2.129-1.476c-1.648-1.167-2.266-2.094-2.266-2.575
		c0-0.481,0.618-1.064,0.893-1.27c1.154-0.831,1.416-2.441,0.584-3.595c-0.77-1.069-2.222-1.384-3.365-0.732
		c-1.891,1.216-3.1,3.251-3.262,5.494c0.217,2.901,1.9,5.491,4.463,6.867l2.163,1.476c5.94,4.017,6.352,4.738,5.7,6.249
		c-1.854,4.395,3.056,7.382,6.627,9.579c1.385,0.792,2.715,1.675,3.983,2.644c-0.038,8.582-7.006,15.519-15.588,15.519h-5.356
		c-12.772,0.309-20.601,0.481-26.712-16c-1.373-5.675-2.019-11.501-1.923-17.339h0.721c1.422-0.123,2.475-1.376,2.352-2.798
		c-0.123-1.422-1.376-2.475-2.798-2.352h-0.481v-2.541h1.923c1.422,0,2.575-1.153,2.575-2.575c0-1.422-1.153-2.575-2.575-2.575
		h-2.094c-0.652-7.519-1.991-13.734-5.597-16.584c-1.204-0.977-2.972-0.792-3.948,0.412s-0.792,2.972,0.412,3.948
		c2.129,1.682,3.124,6.867,3.639,12.738h-3.262c-2.918-2.197-5.837-4.498-8.515-6.867c-0.148-0.184-0.322-0.346-0.515-0.481
		c-0.893-0.79-1.785-1.579-2.609-2.369l8,0.515h0.206c1.422,0.057,2.621-1.05,2.678-2.472s-1.05-2.621-2.472-2.678
		c0,0-5.391-0.412-13.734-0.858c-18.678-21.253-19.159-41.888-16.206-51.227c0-0.275,8-26.163,0.79-37.528
		c-1.656-2.684-4.428-4.486-7.554-4.91c-2.129-0.275-2.815-3.433-3.433-7.863c-0.292-2.151-0.798-4.267-1.511-6.318
		c-1.303-2.647-3.222-4.943-5.597-6.695c-4.22-3.302-7.51-7.644-9.545-12.601c-3.433-8.103-0.79-12.566,0.343-14.008
		c2.512-0.218,5.022,0.436,7.107,1.854c0.24,0.206,25.82,18.953,37.047,18.953H86.1c-10.3,7.382-16.343,16.824-16.343,26.06
		c0,1.422,1.153,2.575,2.575,2.575s2.575-1.153,2.575-2.575c0-9.648,8.927-20.223,22.764-26.987
		c5.385-0.803,10.589-2.534,15.382-5.116c1.257-0.666,1.736-2.224,1.07-3.481c-0.666-1.257-2.224-1.736-3.481-1.07
		c-0.032,0.017-0.064,0.035-0.095,0.053c-8.055,3.972-16.985,5.839-25.957,5.425c-4.292,0-12.498-4.154-20.12-8.755
		c10.841,4.873,23.568,2.505,31.931-5.94c13.734-13.116,22.283-17.682,65.236-17.682s51.502,4.601,65.236,17.682
		c5.225,5.323,12.352,8.35,19.811,8.412c4.046-0.06,8.047-0.851,11.811-2.335c-7.588,4.566-15.794,8.687-20.051,8.687
		c-8.972,0.414-17.902-1.453-25.957-5.425c-1.257-0.666-2.815-0.187-3.481,1.069c-0.646,1.219-0.216,2.731,0.975,3.428
		c4.82,2.616,10.061,4.371,15.485,5.185c13.734,6.867,22.764,17.167,22.764,26.987c0,1.422,1.153,2.575,2.575,2.575
		c1.422,0,2.575-1.153,2.575-2.575c0-9.27-6.077-18.712-16.343-26.06h1.511c11.227,0,36.807-18.747,37.047-18.953
		c2.076-1.41,4.573-2.064,7.073-1.854c1.133,1.476,3.605,5.94,0.343,14.008c-2.035,4.957-5.325,9.299-9.545,12.601
		c-2.374,1.752-4.294,4.048-5.596,6.695c-0.713,2.05-1.219,4.167-1.511,6.318c-0.79,4.566-1.442,7.588-3.433,7.863
		c-3.201,0.39-6.047,2.225-7.725,4.979c-7.245,11.365,0.687,37.287,0.79,37.528c2.987,9.373,2.472,30.008-16.206,51.227
		c-8.206,0.446-13.734,0.858-13.734,0.858c-1.422,0.057-2.529,1.256-2.472,2.678c0.057,1.422,1.256,2.529,2.678,2.472h0.206l8-0.515
		C233.738,181.993,232.674,182.817,231.712,183.641z"/>
	<path style="fill:#1D1D1B;" d="M212.348,97.392c0.775-0.005,1.506-0.358,1.991-0.961l10.953-13.459
		c0.933-1.074,0.818-2.7-0.255-3.633c-1.074-0.933-2.7-0.818-3.633,0.256c-0.033,0.038-0.064,0.076-0.095,0.115l-10.953,13.459
		c-0.891,1.108-0.715,2.729,0.393,3.62c0.453,0.365,1.017,0.565,1.598,0.568V97.392z M199.644,90.457
		c0.306,0.057,0.621,0.057,0.927,0c1.065,0,2.02-0.655,2.403-1.648l4.841-12.635c0.512-1.327-0.149-2.818-1.476-3.33
		c-1.327-0.512-2.818,0.149-3.33,1.476l-4.841,12.635c-0.594,1.292-0.029,2.821,1.264,3.416
		C199.501,90.402,199.572,90.431,199.644,90.457z M189.103,89.393c1.418-0.109,2.479-1.347,2.37-2.765
		c0-0.005-0.001-0.011-0.001-0.016l-0.858-10.953c-0.114-1.422-1.359-2.483-2.781-2.369s-2.483,1.359-2.369,2.781l0.858,10.953
		c0.109,1.418,1.347,2.479,2.765,2.37C189.092,89.393,189.098,89.393,189.103,89.393z"/>
	<circle style="fill:#1D1D1B;" cx="120.88" cy="208.327" r="3.605"/>
	<circle style="fill:#1D1D1B;" cx="122.082" cy="220.585" r="3.605"/>
	<circle style="fill:#1D1D1B;" cx="131.49" cy="228.653" r="3.605"/>
	<circle style="fill:#1D1D1B;" cx="134.649" cy="216.121" r="3.605"/>
	<circle style="fill:#1D1D1B;" cx="144.674" cy="222.439" r="3.605"/>
	<circle style="fill:#1D1D1B;" cx="202.391" cy="208.327" r="3.605"/>
	<circle style="fill:#1D1D1B;" cx="201.189" cy="220.585" r="3.605"/>
	<circle style="fill:#1D1D1B;" cx="191.781" cy="228.653" r="3.605"/>
	<circle style="fill:#1D1D1B;" cx="188.622" cy="216.121" r="3.605"/>
	<circle style="fill:#1D1D1B;" cx="178.597" cy="222.439" r="3.605"/>
	<path style="fill:#1D1D1B;" d="M173.859,148.791c-1.417-0.118-2.662,0.935-2.78,2.353c0,0.005-0.001,0.011-0.001,0.016
		c-0.973,7.056-4.3,13.577-9.442,18.506c-5.134-4.94-8.439-11.477-9.373-18.541c-0.114-1.422-1.359-2.483-2.781-2.369
		c-1.422,0.114-2.483,1.359-2.369,2.781c1.245,9.153,5.801,17.533,12.807,23.553c0.455,0.373,1.025,0.579,1.614,0.584
		c0.589-0.004,1.158-0.21,1.614-0.584c7.006-6.021,11.562-14.4,12.807-23.553C176.064,150.221,175.158,149.033,173.859,148.791z
		 M128.571,158.062c-1.208-0.658-2.72-0.25-3.433,0.927c-0.687,1.202-1.579,2.472-2.506,3.811
		c-4.601,6.661-11.536,16.755-1.751,27.468c1.088,0.915,2.713,0.775,3.628-0.313c0.747-0.888,0.808-2.165,0.149-3.12
		c-6.489-7.039-3.193-13.116,2.197-20.944c0.996-1.476,1.957-2.85,2.712-4.154c0.764-1.2,0.411-2.791-0.789-3.555
		C128.711,158.137,128.642,158.098,128.571,158.062z M198.339,158.989c-0.711-1.233-2.287-1.655-3.519-0.944
		c-1.233,0.711-1.655,2.287-0.944,3.519c0.755,1.305,1.717,2.678,2.712,4.154c5.391,7.828,8.687,13.905,2.197,20.944
		c-1.088,0.915-1.229,2.54-0.313,3.628c0.915,1.088,2.54,1.229,3.628,0.313c0.176-0.148,0.331-0.319,0.462-0.508
		c9.785-10.609,2.85-20.601-1.751-27.468C199.953,161.461,199.06,160.19,198.339,158.989z M133.79,191.709
		c0.436-1.356-0.309-2.808-1.665-3.245c-1.356-0.436-2.808,0.309-3.245,1.665c-1.98,6.372,0.75,13.263,6.558,16.549
		c1.233,0.711,2.808,0.288,3.519-0.944c0.711-1.233,0.288-2.808-0.944-3.519C134.302,200.15,132.541,195.769,133.79,191.709z
		 M187.798,206.576c5.808-3.286,8.538-10.177,6.558-16.549c-0.436-1.356-1.889-2.101-3.245-1.665
		c-1.356,0.436-2.101,1.889-1.665,3.245l0,0c1.195,4.028-0.558,8.348-4.223,10.403c-1.233,0.711-1.655,2.287-0.944,3.519
		c0.711,1.233,2.287,1.655,3.519,0.944V206.576z M171.524,192.224c-4.777,5.471-13.084,6.033-18.555,1.256
		c-0.447-0.39-0.866-0.81-1.256-1.256c-0.948-1.1-2.608-1.223-3.708-0.275c-1.1,0.948-1.223,2.608-0.275,3.708
		c6.564,7.661,18.095,8.55,25.755,1.987c0.712-0.61,1.377-1.275,1.987-1.987c0.948-1.1,0.825-2.76-0.275-3.708
		c-1.1-0.948-2.76-0.825-3.708,0.275l0,0H171.524z M94.718,141.993c-1.185-0.786-2.783-0.463-3.569,0.723
		c-0.786,1.185-0.463,2.783,0.723,3.569c0.119,0.079,0.244,0.148,0.375,0.206c9.03,4.979,12.944,12.326,12.944,14.97
		c0,1.422,1.153,2.575,2.575,2.575s2.575-1.153,2.575-2.575C110.34,156.139,104.503,147.384,94.718,141.993z M232.33,143.023
		c-0.678-1.214-2.199-1.67-3.433-1.03c-9.854,5.391-15.76,14.146-15.76,19.502c0,1.422,1.153,2.575,2.575,2.575
		c1.422,0,2.575-1.153,2.575-2.575c0-2.644,3.914-10.026,12.944-14.97c1.266-0.649,1.766-2.2,1.118-3.466
		C232.343,143.047,232.337,143.035,232.33,143.023z"/>
</g>
</svg>
